<?xml version="1.0" encoding="UTF-8"?><svg id="baggrund" xmlns="http://www.w3.org/2000/svg" width="1920" height="1080" viewBox="0 0 1920 1080"><defs><style>.cls-1,.cls-2,.cls-3,.cls-4,.cls-5,.cls-6,.cls-7,.cls-8,.cls-9,.cls-10,.cls-11,.cls-12,.cls-13,.cls-14,.cls-15,.cls-16,.cls-17,.cls-18,.cls-19,.cls-20,.cls-21,.cls-22,.cls-23{stroke-miterlimit:10;}.cls-1,.cls-2,.cls-5,.cls-12,.cls-23{fill:#fff;}.cls-1,.cls-6{stroke:#000;}.cls-2,.cls-3,.cls-4,.cls-5,.cls-8,.cls-9,.cls-10,.cls-11,.cls-12,.cls-13,.cls-15,.cls-16,.cls-17,.cls-18,.cls-22,.cls-23{stroke-width:3px;}.cls-2,.cls-13,.cls-14{stroke:#ffdc00;}.cls-3{fill:#efc5ca;}.cls-3,.cls-5,.cls-19{stroke:#ce91b3;}.cls-4{fill:#a67c52;}.cls-4,.cls-12,.cls-20{stroke:#8c6239;}.cls-6{fill:#000;}.cls-7{fill:#998675;}.cls-7,.cls-14,.cls-19,.cls-20{stroke-linecap:round;stroke-width:4px;}.cls-7,.cls-18,.cls-23{stroke:#998675;}.cls-8,.cls-15{fill:none;}.cls-8,.cls-17{stroke:#ccb593;}.cls-9{fill:#846b49;}.cls-9,.cls-22{stroke:#4f3f29;}.cls-24{fill:#fafeff;}.cls-24,.cls-25{stroke-width:0px;}.cls-10{fill:#39b54a;}.cls-10,.cls-16{stroke:#009245;}.cls-11,.cls-15,.cls-21{stroke:#006837;}.cls-11,.cls-21{fill:#009245;}.cls-13,.cls-16{fill:#feffbf;}.cls-14{fill:#ffdc00;}.cls-25{fill:#e2e2e2;}.cls-17{fill:#f9f0e1;}.cls-18{fill:#c7b299;}.cls-19{fill:#ce91b3;}.cls-20{fill:#8c6239;}.cls-21{stroke-width:5px;}.cls-22{fill:#4f3f29;}</style></defs><rect class="cls-24" x="14.25" y="-2.89" width="313.07" height="536"/><path class="cls-25" d="M325.31-.89v532H16.25V-.89h309.07M329.31-4.89H12.25v540h317.07V-4.89h0Z"/><rect class="cls-24" x="331.31" y="-2.89" width="313.07" height="536"/><path class="cls-25" d="M642.38-.89v532h-309.07V-.89h309.07M646.38-4.89h-317.07v540h317.07V-4.89h0Z"/><rect class="cls-24" x="648.38" y="-2.89" width="313.07" height="536"/><path class="cls-25" d="M959.45-.89v532h-309.07V-.89h309.07M963.45-4.89h-317.07v540h317.07V-4.89h0Z"/><rect class="cls-24" x="965.45" y="-2.89" width="313.07" height="536"/><path class="cls-25" d="M1276.51-.89v532h-309.07V-.89h309.07M1280.51-4.89h-317.07v540h317.07V-4.89h0Z"/><rect class="cls-24" x="965.45" y="537.11" width="313.07" height="536"/><path class="cls-25" d="M1276.51,539.11v532h-309.07v-532h309.07M1280.51,535.11h-317.07v540h317.07v-540h0Z"/><rect class="cls-24" x="1282.51" y="-2.89" width="313.07" height="536"/><path class="cls-25" d="M1593.58-.89v532h-309.07V-.89h309.07M1597.58-4.89h-317.07v540h317.07V-4.89h0Z"/><rect class="cls-24" x="1282.51" y="537.11" width="313.07" height="536"/><path class="cls-25" d="M1593.58,539.11v532h-309.07v-532h309.07M1597.58,535.11h-317.07v540h317.07v-540h0Z"/><rect class="cls-24" x="1599.58" y="-2.89" width="313.07" height="536"/><path class="cls-25" d="M1910.65-.89v532h-309.07V-.89h309.07M1914.65-4.89h-317.07v540h317.07V-4.89h0Z"/><rect class="cls-24" x="1599.58" y="537.11" width="313.07" height="536"/><path class="cls-25" d="M1910.65,539.11v532h-309.07v-532h309.07M1914.65,535.11h-317.07v540h317.07v-540h0Z"/><rect class="cls-24" x="648.38" y="537.11" width="313.07" height="536"/><path class="cls-25" d="M959.45,539.11v532h-309.07v-532h309.07M963.45,535.11h-317.07v540h317.07v-540h0Z"/><rect class="cls-24" x="331.31" y="537.11" width="313.07" height="536"/><path class="cls-25" d="M642.38,539.11v532h-309.07v-532h309.07M646.38,535.11h-317.07v540h317.07v-540h0Z"/><rect class="cls-24" x="14.25" y="537.11" width="313.07" height="536"/><path class="cls-25" d="M325.31,539.11v532H16.25v-532h309.07M329.31,535.11H12.25v540h317.07v-540h0Z"/><rect class="cls-9" x="122.26" y="1046.97" width="1672" height="34"/><path class="cls-17" d="M136.65,1080.47C126.59,858.31,1.46,678.83,1.46,678.83,68.74,769.99,474,.47,474,.47H1.46v1080h135.18Z"/><rect class="cls-22" x="-11.74" y="677.97" width="51.56" height="29" rx="11.57" ry="11.57"/><path class="cls-8" d="M274.97,187.97c31.44,12-249.7,490-249.7,490,0,0,172.99-453,159.16-453"/><path class="cls-8" d="M2.8,677.97s93.6-368,70.97-382"/><path class="cls-8" d="M40.05,1080.47C31.48,732.97,2.8,706.97,2.8,706.97c0,0,46.59,121,74.5,373.5"/><path class="cls-8" d="M111.96,1080.47C79.73,828.97,14.04,706.97,14.04,706.97"/><path class="cls-17" d="M1774.42,1080.38c10.6-222.16,142.42-401.64,142.42-401.64C1845.97,769.9,1419,.38,1419,.38h497.85v1080h-142.42Z"/><path class="cls-8" d="M1628.69,187.88c-33.12,12,263.07,490,263.07,490,0,0-182.26-453-167.68-453"/><path class="cls-8" d="M1915.44,677.88s-98.62-368-74.77-382"/><path class="cls-8" d="M1876.19,1080.38c9.03-347.5,39.24-373.5,39.24-373.5,0,0-49.09,121-78.49,373.5"/><path class="cls-8" d="M1800.43,1080.38c33.96-251.5,103.17-373.5,103.17-373.5"/><rect class="cls-22" x="1876.44" y="677.88" width="54.32" height="29" rx="11.57" ry="11.57" transform="translate(3807.2 1384.75) rotate(180)"/><path class="cls-10" d="M1554.45,858.51c-12.52,0-22.67,66.4-22.67,148.3,0,1.37,0,2.73,0,4.09,15.07-.08,30.15.05,45.31.96,0-1.68.01-3.36.01-5.05,0-81.9-10.15-148.3-22.67-148.3Z"/><path class="cls-10" d="M1505.64,787.73c-18.28,0-33.1,96.95-33.1,216.55,0,2,0,3.99.01,5.97,22.01-.12,44.03.08,66.16,1.41.01-2.45.02-4.91.02-7.37,0-119.6-14.82-216.55-33.1-216.55Z"/><line class="cls-16" x1="1483.81" y1="810.27" x2="1494.02" y2="821.18"/><line class="cls-16" x1="1488.74" y1="797.93" x2="1499.3" y2="807"/><line class="cls-16" x1="1479.53" y1="822.94" x2="1488.74" y2="839.14"/><line class="cls-16" x1="1505.64" y1="780.69" x2="1505.64" y2="795.83"/><line class="cls-16" x1="1521.48" y1="796.53" x2="1511.92" y2="807"/><line class="cls-16" x1="1526.49" y1="809.88" x2="1516.96" y2="821.18"/><line class="cls-16" x1="1564.19" y1="858.51" x2="1561.27" y2="872.94"/><line class="cls-16" x1="1571" y1="872.94" x2="1561.27" y2="882.21"/><line class="cls-16" x1="1528.9" y1="821.38" x2="1522.83" y2="838.71"/><line class="cls-16" x1="1554.45" y1="848.87" x2="1554.45" y2="861.38"/><line class="cls-16" x1="1545.08" y1="858.15" x2="1548.6" y2="872.24"/><line class="cls-16" x1="1538.74" y1="872.94" x2="1549.37" y2="882.21"/><line class="cls-16" x1="1478.22" y1="847.81" x2="1488.43" y2="858.73"/><line class="cls-16" x1="1473.94" y1="860.49" x2="1483.15" y2="876.68"/><line class="cls-16" x1="1473.13" y1="884.94" x2="1483.34" y2="895.86"/><line class="cls-16" x1="1468.85" y1="897.62" x2="1478.06" y2="913.82"/><line class="cls-16" x1="1533.75" y1="845.54" x2="1524.23" y2="856.84"/><line class="cls-16" x1="1534.76" y1="858.45" x2="1528.69" y2="875.78"/><line class="cls-16" x1="1535.36" y1="881.41" x2="1525.83" y2="892.71"/><line class="cls-16" x1="1537.77" y1="892.91" x2="1531.7" y2="910.23"/><path class="cls-13" d="M1588.92,950.73h-125.77c-6.03,0-10.7,5.28-9.96,11.26l11.73,95.53c.62,5.03,4.89,8.81,9.96,8.81h100.26c4.99,0,9.22-3.67,9.93-8.6l13.78-95.53c.87-6.05-3.82-11.47-9.93-11.47Z"/><path class="cls-2" d="M1512.28,1032.8s13.37,31.49,28.22,0h-28.22Z"/><ellipse class="cls-14" cx="1494.55" cy="1032.61" rx="9.04" ry="5.48"/><ellipse class="cls-6" cx="1503.46" cy="1020.94" rx="8.94" ry="12.32"/><ellipse class="cls-1" cx="1503.27" cy="1016.84" rx="4.41" ry="6.72"/><ellipse class="cls-14" cx="1559.1" cy="1032.92" rx="5.48" ry="9.04" transform="translate(427.12 2521.65) rotate(-86.28)"/><ellipse class="cls-6" cx="1547.59" cy="1020.84" rx="8.94" ry="12.32"/><ellipse class="cls-1" cx="1547.39" cy="1016.73" rx="4.41" ry="6.72"/><line class="cls-21" x1="1692.37" y1="957.56" x2="1690.12" y2="796.99"/><ellipse class="cls-21" cx="1672.04" cy="823.43" rx="18.5" ry="8.28"/><ellipse class="cls-21" cx="1710.99" cy="823.43" rx="18.5" ry="8.28"/><ellipse class="cls-21" cx="1671.07" cy="851.66" rx="18.5" ry="8.28"/><ellipse class="cls-21" cx="1710.02" cy="851.66" rx="18.5" ry="8.28"/><ellipse class="cls-21" cx="1671.07" cy="879.9" rx="18.5" ry="8.28"/><ellipse class="cls-21" cx="1710.02" cy="879.9" rx="18.5" ry="8.28"/><ellipse class="cls-21" cx="1672.04" cy="908.14" rx="18.5" ry="8.28"/><ellipse class="cls-21" cx="1710.99" cy="908.14" rx="18.5" ry="8.28"/><ellipse class="cls-21" cx="1673.02" cy="936.37" rx="18.5" ry="8.28"/><ellipse class="cls-21" cx="1711.96" cy="936.37" rx="18.5" ry="8.28"/><path class="cls-4" d="M1757.16,954.58h-125.77c-6.03,0-10.7,5.28-9.96,11.26l11.73,95.53c.62,5.03,4.89,8.81,9.96,8.81h100.26c4.99,0,9.22-3.67,9.93-8.6l13.78-95.53c.87-6.05-3.82-11.47-9.93-11.47Z"/><path class="cls-12" d="M1678.54,1034.86s13.37,31.49,28.22,0h-28.22Z"/><ellipse class="cls-20" cx="1662.22" cy="1034.03" rx="9.04" ry="5.48"/><ellipse class="cls-6" cx="1671.14" cy="1022.37" rx="8.94" ry="12.32"/><ellipse class="cls-1" cx="1670.95" cy="1018.26" rx="4.41" ry="6.72"/><ellipse class="cls-20" cx="1726.77" cy="1034.34" rx="5.48" ry="9.04" transform="translate(582.48 2690.31) rotate(-86.28)"/><ellipse class="cls-6" cx="1715.26" cy="1022.26" rx="8.94" ry="12.32"/><ellipse class="cls-1" cx="1715.07" cy="1018.16" rx="4.41" ry="6.72"/><path class="cls-11" d="M404.41,920.49l22.56-1.76c6.05,0,11.6-3.57,14.32-9.25,6.99-14.55,13.59-58.67,2.22-65.26-11.81-6.83-9.67,29.42-10.11,39.48-.17,3.96-2.31,16.38-4.97,19.18-1.68,1.76-41.93,5.97-43.57-15.84"/><path class="cls-11" d="M358.44,877.8l-28.45-1.9c-7.63,0-14.62-3.85-18.06-9.97-8.81-15.68-17.13-63.23-2.8-70.32,14.88-7.36,12.19,31.7,12.74,42.55.22,4.26,2.91,17.65,6.27,20.67,2.11,1.9,52.85,6.44,54.93-17.07"/><path class="cls-11" d="M348.64,953.86s-3.04-79.73,0-150.04c1.96-45.35,60.5-43.42,60.5,1.98v148.07"/><path class="cls-15" d="M359.55,952.23c6.49-47.7,2.54-96.11-.55-144.15-.31-4.88-.62-9.82.18-14.65,1.34-8.15,5.92-15.73,12.52-20.71-.88,21.64,3.05,41.52,2.18,63.16-.66,16.39-1.32,32.89.98,49.13.69,4.88,1.65,9.74,1.73,14.66.08,4.94-.72,9.84-1.53,14.71-2.18,13.25-4.38,26.56-8.54,39.33"/><path class="cls-15" d="M397.25,952.22c-7.24-47.7-2.83-96.11.61-144.15.35-4.88.69-9.82-.2-14.65-1.5-8.15-6.61-15.73-13.97-20.71.98,21.64-3.4,41.52-2.43,63.16.74,16.39,1.47,32.89-1.1,49.13-.77,4.88-1.84,9.74-1.93,14.66-.09,4.94.81,9.84,1.7,14.71,2.44,13.25,4.89,26.56,9.52,39.33"/><path class="cls-18" d="M441.01,952.8h-125.77c-6.03,0-10.7,5.28-9.96,11.26l11.73,95.53c.62,5.03,4.89,8.81,9.96,8.81h100.26c4.99,0,9.22-3.67,9.93-8.6l13.78-95.53c.87-6.05-3.82-11.47-9.93-11.47Z"/><path class="cls-23" d="M362.39,1033.08s13.37,31.49,28.22,0h-28.22Z"/><ellipse class="cls-7" cx="346.07" cy="1032.26" rx="9.04" ry="5.48"/><ellipse class="cls-6" cx="354.99" cy="1020.59" rx="8.94" ry="12.32"/><ellipse class="cls-1" cx="354.79" cy="1016.49" rx="4.41" ry="6.72"/><ellipse class="cls-7" cx="410.62" cy="1032.57" rx="5.48" ry="9.04" transform="translate(-646.43 1375.27) rotate(-86.28)"/><ellipse class="cls-6" cx="399.11" cy="1020.49" rx="8.94" ry="12.32"/><ellipse class="cls-1" cx="398.91" cy="1016.38" rx="4.41" ry="6.72"/><line class="cls-21" x1="211.28" y1="955.27" x2="209.02" y2="870.76"/><ellipse class="cls-21" cx="208.81" cy="868.65" rx="13.03" ry="17.96"/><line class="cls-21" x1="208.81" y1="850.69" x2="208.81" y2="886.61"/><line class="cls-21" x1="198.18" y1="973.51" x2="176.54" y2="891.79"/><ellipse class="cls-21" cx="175.84" cy="889.78" rx="13.03" ry="17.96" transform="translate(-200.08 64.36) rotate(-13.31)"/><line class="cls-21" x1="171.71" y1="872.31" x2="179.98" y2="907.26"/><line class="cls-21" x1="225.81" y1="973.65" x2="243.9" y2="891.06"/><ellipse class="cls-21" cx="244.2" cy="888.96" rx="17.96" ry="13.03" transform="translate(-677.39 912.81) rotate(-76.12)"/><line class="cls-21" x1="248.5" y1="871.53" x2="239.89" y2="906.4"/><line class="cls-21" x1="205.17" y1="992.49" x2="154.22" y2="925.03"/><ellipse class="cls-21" cx="152.82" cy="923.43" rx="13.03" ry="17.96" transform="translate(-508.23 260.79) rotate(-35.53)"/><line class="cls-21" x1="142.38" y1="908.82" x2="163.26" y2="938.04"/><line class="cls-21" x1="215.55" y1="988.28" x2="269.74" y2="923.4"/><ellipse class="cls-21" cx="270.98" cy="921.67" rx="17.96" ry="13.03" transform="translate(-599.58 515.44) rotate(-48.6)"/><line class="cls-21" x1="282.86" y1="908.2" x2="259.11" y2="935.14"/><path class="cls-3" d="M276.48,950.65h-125.77c-6.03,0-10.7,5.28-9.96,11.26l11.73,95.53c.62,5.03,4.89,8.81,9.96,8.81h100.26c4.99,0,9.22-3.67,9.93-8.6l13.78-95.53c.87-6.05-3.82-11.47-9.93-11.47Z"/><path class="cls-5" d="M197.86,1030.93s13.37,31.49,28.22,0h-28.22Z"/><ellipse class="cls-19" cx="181.54" cy="1030.11" rx="9.04" ry="5.48"/><ellipse class="cls-6" cx="190.45" cy="1018.44" rx="8.94" ry="12.32"/><ellipse class="cls-1" cx="190.26" cy="1014.34" rx="4.41" ry="6.72"/><ellipse class="cls-19" cx="246.09" cy="1030.42" rx="5.48" ry="9.04" transform="translate(-798.13 1209.07) rotate(-86.28)"/><ellipse class="cls-6" cx="234.57" cy="1018.34" rx="8.94" ry="12.32"/><ellipse class="cls-1" cx="234.38" cy="1014.23" rx="4.41" ry="6.72"/></svg>