<?xml version="1.0" encoding="UTF-8"?><svg id="ui_elementer" xmlns="http://www.w3.org/2000/svg" width="1920" height="1080" viewBox="0 0 1920 1080"><defs><style>.cls-1,.cls-2,.cls-3,.cls-4,.cls-5,.cls-6,.cls-7,.cls-8,.cls-9,.cls-10,.cls-11,.cls-12,.cls-13,.cls-14,.cls-15,.cls-16,.cls-17,.cls-18,.cls-19,.cls-20,.cls-21,.cls-22,.cls-23,.cls-24,.cls-25,.cls-26,.cls-27,.cls-28,.cls-29,.cls-30,.cls-31,.cls-32,.cls-33,.cls-34,.cls-35,.cls-36,.cls-37,.cls-38,.cls-39,.cls-40{stroke-miterlimit:10;}.cls-1,.cls-2,.cls-8,.cls-12,.cls-15,.cls-19,.cls-28,.cls-37,.cls-39{fill:#fff;}.cls-1,.cls-9{stroke:#000;}.cls-2,.cls-3,.cls-5,.cls-8,.cls-11,.cls-12,.cls-15,.cls-16,.cls-17,.cls-19,.cls-20,.cls-21,.cls-25,.cls-26,.cls-28,.cls-31,.cls-37,.cls-38,.cls-39,.cls-40{stroke-width:3px;}.cls-2,.cls-20,.cls-23{stroke:#ffdc00;}.cls-3{fill:#efc5ca;}.cls-3,.cls-8,.cls-32{stroke:#ce91b3;}.cls-4{fill:#73ccff;}.cls-4,.cls-6,.cls-7,.cls-10,.cls-13,.cls-14,.cls-18,.cls-22,.cls-23,.cls-24,.cls-27,.cls-29,.cls-30,.cls-32,.cls-33,.cls-35,.cls-36{stroke-width:4px;}.cls-4,.cls-6,.cls-7,.cls-10,.cls-13,.cls-14,.cls-18,.cls-22,.cls-23,.cls-24,.cls-30,.cls-32,.cls-33,.cls-35,.cls-36{stroke-linecap:round;}.cls-4,.cls-36,.cls-39{stroke:#29abe2;}.cls-5{fill:#a67c52;}.cls-5,.cls-19,.cls-33{stroke:#8c6239;}.cls-6,.cls-13,.cls-24,.cls-28,.cls-29{stroke:#ff931e;}.cls-6,.cls-29,.cls-30{fill:#f15a24;}.cls-7{fill:#0077d4;}.cls-7,.cls-15,.cls-22{stroke:#0077d4;}.cls-9{fill:#000;}.cls-10{fill:#998675;}.cls-10,.cls-31,.cls-37{stroke:#998675;}.cls-11{fill:#39b54a;}.cls-11,.cls-26{stroke:#009245;}.cls-12,.cls-30,.cls-35{stroke:#f15a24;}.cls-13,.cls-35{fill:#ff931e;}.cls-14,.cls-18,.cls-27{stroke:#1b1464;}.cls-14,.cls-27{fill:#0071bc;}.cls-16,.cls-25,.cls-34{stroke:#006837;}.cls-16,.cls-34{fill:#009245;}.cls-17{fill:#bbe4ff;}.cls-17,.cls-40{stroke:#159eff;}.cls-18{fill:#1b1464;}.cls-20,.cls-26{fill:#feffbf;}.cls-21{fill:#e2e2e2;stroke:#878787;}.cls-22,.cls-40{fill:#159eff;}.cls-23{fill:#ffdc00;}.cls-24{fill:#fbb03b;}.cls-25{fill:none;}.cls-31{fill:#c7b299;}.cls-32{fill:#ce91b3;}.cls-33{fill:#8c6239;}.cls-34{stroke-width:5px;}.cls-36{fill:#29abe2;}.cls-38{fill:#ff0043;stroke:#c90027;}</style></defs><g id="vandkander"><rect class="cls-17" x="1597.1" y="249.6" width="15" height="112" rx="7.5" ry="7.5" transform="translate(311.09 1303.09) rotate(-48.42)"/><path class="cls-17" d="M1694.6,243.1c-33.15,0-61.17,35.81-70.33,85,4.31-.81,8.61-1.92,12.94-3.03,9.19-36.99,31.42-63.08,57.39-63.08s47.71,25.51,57.09,61.83c4.1-.22,8.19-.41,12.27-.51-10.04-46.71-37.3-80.21-69.36-80.21Z"/><path class="cls-17" d="M1756.83,319.1h-125.77c-6.03,0-10.7,5.28-9.96,11.26l11.73,95.53c.62,5.03,4.89,8.81,9.96,8.81h100.26c4.99,0,9.22-3.67,9.93-8.6l13.78-95.53c.87-6.05-3.82-11.47-9.93-11.47Z"/><rect class="cls-17" x="1315.66" y="248.13" width="15" height="112" rx="7.5" ry="7.5" transform="translate(217.54 1092.06) rotate(-48.42)"/><path class="cls-17" d="M1413.16,241.63c-33.15,0-61.17,35.81-70.33,85,4.31-.81,8.61-1.92,12.94-3.03,9.19-36.99,31.42-63.08,57.39-63.08s47.71,25.51,57.09,61.83c4.1-.22,8.19-.41,12.27-.51-10.04-46.71-37.3-80.21-69.36-80.21Z"/><path class="cls-17" d="M1475.39,317.62h-125.77c-6.03,0-10.7,5.28-9.96,11.26l11.73,95.53c.62,5.03,4.89,8.81,9.96,8.81h100.26c4.99,0,9.22-3.67,9.93-8.6l13.78-95.53c.87-6.05-3.82-11.47-9.93-11.47Z"/><path class="cls-40" d="M1341.54,347.05l9.67,78.79c.62,5.03,4.89,8.81,9.96,8.81h100.26c4.99,0,9.22-3.67,9.93-8.6l11.5-79.76c-47.26,2.1-93.99.25-141.33.76Z"/></g><g id="liv"><path class="cls-38" d="M1461.3,614.43l-35.76-36.94c-28.2-29.13,8.75-64.89,36.94-35.76,27.84-26.94,63.59,10,35.76,36.94l-36.94,35.76Z"/><path class="cls-21" d="M1587.6,614.81l-35.76-36.94c-28.2-29.13,8.75-64.89,36.94-35.76,27.84-26.94,63.59,10,35.76,36.94l-36.94,35.76Z"/></g><g id="planter-3"><g id="gul"><path class="cls-11" d="M218.69,253.74c-12.52,0-22.67,66.4-22.67,148.3,0,1.37,0,2.73,0,4.09,15.07-.08,30.15.05,45.31.96,0-1.68.01-3.36.01-5.05,0-81.9-10.15-148.3-22.67-148.3Z"/><path class="cls-11" d="M169.87,182.97c-18.28,0-33.1,96.95-33.1,216.55,0,2,0,3.99.01,5.97,22.01-.12,44.03.08,66.16,1.41.01-2.45.02-4.91.02-7.37,0-119.6-14.82-216.55-33.1-216.55Z"/><line class="cls-26" x1="148.04" y1="205.5" x2="158.25" y2="216.42"/><line class="cls-26" x1="152.97" y1="193.17" x2="163.53" y2="202.24"/><line class="cls-26" x1="143.77" y1="218.18" x2="152.97" y2="234.38"/><line class="cls-26" x1="169.87" y1="175.93" x2="169.87" y2="191.07"/><line class="cls-26" x1="185.72" y1="191.77" x2="176.15" y2="202.24"/><line class="cls-26" x1="190.72" y1="205.12" x2="181.19" y2="216.42"/><line class="cls-26" x1="228.43" y1="253.74" x2="225.51" y2="268.18"/><line class="cls-26" x1="235.23" y1="268.18" x2="225.51" y2="277.45"/><line class="cls-26" x1="193.13" y1="216.62" x2="187.06" y2="233.95"/><line class="cls-26" x1="218.69" y1="244.11" x2="218.69" y2="256.61"/><line class="cls-26" x1="209.31" y1="253.39" x2="212.83" y2="267.48"/><line class="cls-26" x1="202.97" y1="268.18" x2="213.6" y2="277.45"/><line class="cls-26" x1="142.45" y1="243.05" x2="152.67" y2="253.96"/><line class="cls-26" x1="138.18" y1="255.72" x2="147.38" y2="271.92"/><line class="cls-26" x1="137.36" y1="280.18" x2="147.57" y2="291.1"/><line class="cls-26" x1="133.08" y1="292.86" x2="142.29" y2="309.05"/><line class="cls-26" x1="197.99" y1="240.78" x2="188.46" y2="252.08"/><line class="cls-26" x1="198.99" y1="253.69" x2="192.92" y2="271.02"/><line class="cls-26" x1="199.59" y1="276.65" x2="190.07" y2="287.94"/><line class="cls-26" x1="202.01" y1="288.14" x2="195.94" y2="305.47"/><path class="cls-20" d="M253.16,345.96h-125.77c-6.03,0-10.7,5.28-9.96,11.26l11.73,95.53c.62,5.03,4.89,8.81,9.96,8.81h100.26c4.99,0,9.22-3.67,9.93-8.6l13.78-95.53c.87-6.05-3.82-11.47-9.93-11.47Z"/><path class="cls-2" d="M176.51,428.04s13.37,31.49,28.22,0h-28.22Z"/><ellipse class="cls-23" cx="158.78" cy="427.84" rx="9.04" ry="5.48"/><ellipse class="cls-9" cx="167.7" cy="416.18" rx="8.94" ry="12.32"/><ellipse class="cls-1" cx="167.5" cy="412.08" rx="4.41" ry="6.72"/><ellipse class="cls-23" cx="223.33" cy="428.15" rx="5.48" ry="9.04" transform="translate(-218.42 623.21) rotate(-86.28)"/><ellipse class="cls-9" cx="211.82" cy="416.07" rx="8.94" ry="12.32"/><ellipse class="cls-1" cx="211.63" cy="411.97" rx="4.41" ry="6.72"/></g><g id="beige"><path class="cls-16" d="M221,661.34l22.56-1.76c6.05,0,11.6-3.57,14.32-9.25,6.99-14.55,13.59-58.67,2.22-65.26-11.81-6.83-9.67,29.42-10.11,39.48-.17,3.96-2.31,16.38-4.97,19.18-1.68,1.76-41.93,5.97-43.57-15.84"/><path class="cls-16" d="M175.04,618.65l-28.45-1.9c-7.63,0-14.62-3.85-18.06-9.97-8.81-15.68-17.13-63.23-2.8-70.32s12.19,31.7,12.74,42.55c.22,4.26,2.91,17.65,6.27,20.67,2.11,1.9,52.85,6.44,54.93-17.07"/><path class="cls-16" d="M165.23,694.7s-3.04-79.73,0-150.04c1.96-45.35,60.5-43.42,60.5,1.98v148.07"/><path class="cls-25" d="M176.14,693.07c6.49-47.7,2.54-96.11-.55-144.15-.31-4.88-.62-9.82.18-14.65,1.34-8.15,5.92-15.73,12.52-20.71-.88,21.64,3.05,41.52,2.18,63.16-.66,16.39-1.32,32.89.98,49.13.69,4.88,1.65,9.74,1.73,14.66.08,4.94-.72,9.84-1.53,14.71-2.18,13.25-4.38,26.56-8.54,39.33"/><path class="cls-25" d="M213.85,693.06c-7.24-47.7-2.83-96.11.61-144.15.35-4.88.69-9.82-.2-14.65-1.5-8.15-6.61-15.73-13.97-20.71.98,21.64-3.4,41.52-2.43,63.16.74,16.39,1.47,32.89-1.1,49.13-.77,4.88-1.84,9.74-1.93,14.66-.09,4.94.81,9.84,1.7,14.71,2.44,13.25,4.89,26.56,9.52,39.33"/><path class="cls-31" d="M257.61,693.65h-125.77c-6.03,0-10.7,5.28-9.96,11.26l11.73,95.53c.62,5.03,4.89,8.81,9.96,8.81h100.26c4.99,0,9.22-3.67,9.93-8.6l13.78-95.53c.87-6.05-3.82-11.47-9.93-11.47Z"/><path class="cls-37" d="M178.98,773.93s13.37,31.49,28.22,0h-28.22Z"/><ellipse class="cls-10" cx="162.67" cy="773.1" rx="9.04" ry="5.48"/><ellipse class="cls-9" cx="171.58" cy="761.44" rx="8.94" ry="12.32"/><ellipse class="cls-1" cx="171.39" cy="757.33" rx="4.41" ry="6.72"/><ellipse class="cls-10" cx="227.22" cy="773.41" rx="5.48" ry="9.04" transform="translate(-559.32 949.93) rotate(-86.28)"/><ellipse class="cls-9" cx="215.7" cy="761.33" rx="8.94" ry="12.32"/><ellipse class="cls-1" cx="215.51" cy="757.23" rx="4.41" ry="6.72"/></g><g id="brun"><line class="cls-34" x1="391.23" y1="357.3" x2="388.97" y2="196.73"/><ellipse class="cls-34" cx="370.9" cy="223.17" rx="18.5" ry="8.28"/><ellipse class="cls-34" cx="409.85" cy="223.17" rx="18.5" ry="8.28"/><ellipse class="cls-34" cx="369.92" cy="251.4" rx="18.5" ry="8.28"/><ellipse class="cls-34" cx="408.87" cy="251.4" rx="18.5" ry="8.28"/><ellipse class="cls-34" cx="369.92" cy="279.64" rx="18.5" ry="8.28"/><ellipse class="cls-34" cx="408.87" cy="279.64" rx="18.5" ry="8.28"/><ellipse class="cls-34" cx="370.9" cy="307.88" rx="18.5" ry="8.28"/><ellipse class="cls-34" cx="409.85" cy="307.88" rx="18.5" ry="8.28"/><ellipse class="cls-34" cx="371.87" cy="336.11" rx="18.5" ry="8.28"/><ellipse class="cls-34" cx="410.82" cy="336.11" rx="18.5" ry="8.28"/><path class="cls-5" d="M456.02,354.32h-125.77c-6.03,0-10.7,5.28-9.96,11.26l11.73,95.53c.62,5.03,4.89,8.81,9.96,8.81h100.26c4.99,0,9.22-3.67,9.93-8.6l13.78-95.53c.87-6.05-3.82-11.47-9.93-11.47Z"/><path class="cls-19" d="M377.4,434.6s13.37,31.49,28.22,0h-28.22Z"/><ellipse class="cls-33" cx="361.08" cy="433.78" rx="9.04" ry="5.48"/><ellipse class="cls-9" cx="370" cy="422.11" rx="8.94" ry="12.32"/><ellipse class="cls-1" cx="369.8" cy="418.01" rx="4.41" ry="6.72"/><ellipse class="cls-33" cx="425.63" cy="434.09" rx="5.48" ry="9.04" transform="translate(-35.18 830.63) rotate(-86.28)"/><ellipse class="cls-9" cx="414.12" cy="422.01" rx="8.94" ry="12.32"/><ellipse class="cls-1" cx="413.92" cy="417.9" rx="4.41" ry="6.72"/></g><g id="pink"><line class="cls-34" x1="404.87" y1="693.12" x2="402.62" y2="608.61"/><ellipse class="cls-34" cx="402.4" cy="606.5" rx="13.03" ry="17.96"/><line class="cls-34" x1="402.4" y1="588.54" x2="402.4" y2="624.45"/><line class="cls-34" x1="391.77" y1="711.36" x2="370.13" y2="629.64"/><ellipse class="cls-34" cx="369.44" cy="627.63" rx="13.03" ry="17.96" transform="translate(-134.54 101.88) rotate(-13.31)"/><line class="cls-34" x1="365.3" y1="610.15" x2="373.57" y2="645.11"/><line class="cls-34" x1="419.41" y1="711.49" x2="437.49" y2="628.91"/><ellipse class="cls-34" cx="437.79" cy="626.81" rx="17.96" ry="13.03" transform="translate(-275.73 901.48) rotate(-76.12)"/><line class="cls-34" x1="442.1" y1="609.38" x2="433.48" y2="644.24"/><line class="cls-34" x1="398.76" y1="730.34" x2="347.81" y2="662.87"/><ellipse class="cls-34" cx="346.41" cy="661.28" rx="13.03" ry="17.96" transform="translate(-319.81 324.48) rotate(-35.53)"/><line class="cls-34" x1="335.98" y1="646.66" x2="356.85" y2="675.89"/><line class="cls-34" x1="409.14" y1="726.12" x2="463.34" y2="661.24"/><ellipse class="cls-34" cx="464.58" cy="659.52" rx="17.96" ry="13.03" transform="translate(-337.37 571.87) rotate(-48.6)"/><line class="cls-34" x1="476.45" y1="646.05" x2="452.7" y2="672.99"/><path class="cls-3" d="M470.07,688.5h-125.77c-6.03,0-10.7,5.28-9.96,11.26l11.73,95.53c.62,5.03,4.89,8.81,9.96,8.81h100.26c4.99,0,9.22-3.67,9.93-8.6l13.78-95.53c.87-6.05-3.82-11.47-9.93-11.47Z"/><path class="cls-8" d="M391.45,768.78s13.37,31.49,28.22,0h-28.22Z"/><ellipse class="cls-32" cx="375.13" cy="767.95" rx="9.04" ry="5.48"/><ellipse class="cls-9" cx="384.05" cy="756.29" rx="8.94" ry="12.32"/><ellipse class="cls-1" cx="383.85" cy="752.18" rx="4.41" ry="6.72"/><ellipse class="cls-32" cx="439.68" cy="768.26" rx="5.48" ry="9.04" transform="translate(-355.51 1157.13) rotate(-86.28)"/><ellipse class="cls-9" cx="428.17" cy="756.18" rx="8.94" ry="12.32"/><ellipse class="cls-1" cx="427.97" cy="752.08" rx="4.41" ry="6.72"/></g></g><g id="ild"><g id="ildlys-2"><polygon class="cls-24" points="691.09 73.09 712.69 103.36 691.09 157.49 691.09 73.09"/><polygon class="cls-24" points="755.21 61.26 732.98 111.23 757.7 164.38 755.21 61.26"/><path class="cls-24" d="M752,138.28c21.43,53.3-12.34,73.61-27.92,73.61s-44.28-22-28.48-73.61c0,0,8.71-28.65,15.61-50.18,2.05-6.4,2.56-11.96,4.01-16.16.57-1.65,4.36-26.98,5.17-26.99.32,0-.31.06,0,0,.84-.17,17.69,58.6,18.37,60.29,7.33,18.05-.99-2.37,13.25,33.04Z"/><path class="cls-28" d="M735.21,193.84s-8.24-19.41-17.4,0h17.4Z"/><ellipse class="cls-13" cx="705.55" cy="185.52" rx="5.58" ry="3.38"/><ellipse class="cls-9" cx="710.51" cy="179.14" rx="4.6" ry="6.34"/><ellipse class="cls-1" cx="710.41" cy="177.02" rx="2.27" ry="3.46"/><ellipse class="cls-13" cx="746.53" cy="184.08" rx="5.58" ry="3.38"/><ellipse class="cls-9" cx="740.79" cy="178.95" rx="4.6" ry="6.34"/><ellipse class="cls-1" cx="740.69" cy="176.84" rx="2.27" ry="3.46"/></g><g id="ildmidt"><polygon class="cls-35" points="824.04 73.25 845.64 103.52 824.04 157.65 824.04 73.25"/><polygon class="cls-35" points="888.15 61.42 865.92 111.39 890.64 164.54 888.15 61.42"/><path class="cls-35" d="M884.94,138.45c21.43,53.3-12.34,73.61-27.92,73.61s-44.28-22-28.48-73.61c0,0,8.71-28.65,15.61-50.18,2.05-6.4,2.56-11.96,4.01-16.16.57-1.65,4.36-26.98,5.17-26.99.32,0-.31.06,0,0,.84-.17,17.69,58.6,18.37,60.29,7.33,18.05-.99-2.37,13.25,33.04Z"/><ellipse class="cls-30" cx="840.15" cy="182.38" rx="5.58" ry="3.38"/><ellipse class="cls-30" cx="878.65" cy="182.6" rx="5.58" ry="3.38"/><ellipse class="cls-9" cx="844.87" cy="178" rx="4.6" ry="6.34"/><ellipse class="cls-1" cx="844.77" cy="175.89" rx="2.27" ry="3.46"/><path class="cls-12" d="M867.63,192.48s-8.24-19.41-17.4,0h17.4Z"/><ellipse class="cls-9" cx="874.3" cy="178.28" rx="4.6" ry="6.34"/><ellipse class="cls-1" cx="874.2" cy="176.17" rx="2.27" ry="3.46"/></g><g id="ilddark-2"><polygon class="cls-6" points="1023.46 61.32 1001.23 111.29 1025.95 164.44 1023.46 61.32"/><polygon class="cls-6" points="959.35 73.15 980.95 103.42 959.35 157.55 959.35 73.15"/><path class="cls-6" d="M1020.25,138.35c21.43,53.3-12.34,73.61-27.92,73.61s-44.28-22-28.48-73.61c0,0,8.71-28.65,15.61-50.18,2.05-6.4,2.56-11.96,4.01-16.16.57-1.65,4.36-26.98,5.17-26.99.32,0-.31.06,0,0,.84-.17,17.69,58.6,18.37,60.29,7.33,18.05-.99-2.37,13.25,33.04Z"/><path class="cls-29" d="M987.4,189.27s6.59-10.65,13.04,0"/><ellipse class="cls-13" cx="1012.99" cy="181.35" rx="5.58" ry="3.38"/><ellipse class="cls-13" cx="973.49" cy="181.46" rx="5.58" ry="3.38"/><ellipse class="cls-9" cx="1008.41" cy="176.54" rx="4.6" ry="6.34"/><ellipse class="cls-1" cx="1008.31" cy="174.43" rx="2.27" ry="3.46"/><ellipse class="cls-9" cx="978.12" cy="175.9" rx="4.6" ry="6.34"/><ellipse class="cls-1" cx="978.02" cy="173.79" rx="2.27" ry="3.46"/></g></g><g id="dråber-2"><g id="vanddark-2"><path class="cls-14" d="M1020.8,377.24c21.43,53.3-12.34,73.61-27.92,73.61s-44.28-22-28.48-73.61c0,0,14.66-48.22,21-66.56.57-1.65,3.01-11.27,3.82-11.27.32,0-.31.06,0,0,.84-.17,11.72,30.18,12.41,31.87,7.33,18.05,4.94,10.56,19.18,45.97Z"/><ellipse class="cls-18" cx="976.81" cy="423.28" rx="5.58" ry="3.38"/><ellipse class="cls-9" cx="980.36" cy="417.02" rx="4.59" ry="6.26"/><ellipse class="cls-1" cx="980.26" cy="414.93" rx="2.26" ry="3.41"/><ellipse class="cls-18" cx="1013.68" cy="423.62" rx="5.58" ry="3.38"/><ellipse class="cls-9" cx="1009.15" cy="416.94" rx="4.6" ry="6.34"/><ellipse class="cls-1" cx="1009.05" cy="414.82" rx="2.27" ry="3.46"/><path class="cls-27" d="M1001.89,423.16s-6.59,10.65-13.04,0"/></g><g id="vandmidt"><path class="cls-22" d="M885.33,377.55c21.43,53.3-12.34,73.61-27.92,73.61s-44.28-22-28.48-73.61c0,0,14.66-48.22,21-66.56.57-1.65,3.01-11.27,3.82-11.27.32,0-.31.06,0,0,.84-.17,11.72,30.18,12.41,31.87,7.33,18.05,4.94,10.56,19.18,45.97Z"/><ellipse class="cls-7" cx="841.35" cy="423.59" rx="5.58" ry="3.38"/><ellipse class="cls-9" cx="844.9" cy="417.34" rx="4.59" ry="6.26"/><ellipse class="cls-1" cx="844.8" cy="415.25" rx="2.26" ry="3.41"/><ellipse class="cls-7" cx="878.22" cy="423.93" rx="5.58" ry="3.38"/><ellipse class="cls-9" cx="873.69" cy="417.25" rx="4.6" ry="6.34"/><ellipse class="cls-1" cx="873.59" cy="415.14" rx="2.27" ry="3.46"/><path class="cls-15" d="M850.73,422.71s8.24,19.41,17.4,0h-17.4Z"/></g><g id="vandlys-2"><path class="cls-4" d="M764.85,377.61c21.43,53.3-12.34,73.61-27.92,73.61s-44.28-22-28.48-73.61c0,0,14.66-48.22,21-66.56.57-1.65,3.01-11.27,3.82-11.27.32,0-.31.06,0,0,.84-.17,11.72,30.18,12.41,31.87,7.33,18.05,4.94,10.56,19.18,45.97Z"/><path class="cls-39" d="M730.51,423.82s8.24,19.41,17.4,0h-17.4Z"/><ellipse class="cls-36" cx="720.87" cy="423.65" rx="5.58" ry="3.38"/><ellipse class="cls-9" cx="724.42" cy="417.39" rx="4.59" ry="6.26"/><ellipse class="cls-1" cx="724.32" cy="415.31" rx="2.26" ry="3.41"/><ellipse class="cls-36" cx="757.73" cy="423.99" rx="5.58" ry="3.38"/><ellipse class="cls-9" cx="753.2" cy="417.31" rx="4.6" ry="6.34"/><ellipse class="cls-1" cx="753.1" cy="415.2" rx="2.27" ry="3.46"/></g></g></svg>