<?xml version="1.0" encoding="UTF-8"?><svg xmlns="http://www.w3.org/2000/svg" width="1920" height="1080" xmlns:xlink="http://www.w3.org/1999/xlink" viewBox="0 0 1920 1080"><defs><style>.cls-1,.cls-2,.cls-3,.cls-4,.cls-5,.cls-6,.cls-7,.cls-8,.cls-9,.cls-10,.cls-11,.cls-12,.cls-13,.cls-14,.cls-15,.cls-16,.cls-17,.cls-18,.cls-19,.cls-20,.cls-21,.cls-22,.cls-23,.cls-24,.cls-25,.cls-26,.cls-27,.cls-28,.cls-29,.cls-30,.cls-31,.cls-32,.cls-33,.cls-34,.cls-35,.cls-36,.cls-37,.cls-38,.cls-39{stroke-miterlimit:10;}.cls-1,.cls-2,.cls-10,.cls-11,.cls-14,.cls-17,.cls-19,.cls-23,.cls-38{fill:#fff;}.cls-1,.cls-12{stroke:#000;}.cls-2,.cls-3,.cls-7,.cls-10,.cls-11,.cls-14,.cls-15,.cls-17,.cls-18,.cls-20,.cls-23,.cls-24,.cls-27,.cls-28,.cls-31,.cls-38{stroke-width:3px;}.cls-2,.cls-24,.cls-26{stroke:#ffdc00;}.cls-3{fill:#efc5ca;}.cls-3,.cls-11,.cls-32{stroke:#ce91b3;}.cls-4,.cls-6{stroke:#0071bc;}.cls-4,.cls-16,.cls-29,.cls-30{fill:#0071bc;}.cls-5,.cls-8,.cls-9,.cls-13,.cls-16,.cls-21,.cls-22,.cls-25,.cls-26,.cls-29,.cls-32,.cls-33,.cls-34,.cls-36,.cls-39{stroke-width:4px;}.cls-5,.cls-8,.cls-13,.cls-16,.cls-21,.cls-22,.cls-25,.cls-26,.cls-32,.cls-34,.cls-36,.cls-39{stroke-linecap:round;}.cls-5,.cls-33{fill:#73ccff;}.cls-5,.cls-33,.cls-36{stroke:#29abe2;}.cls-6{fill:#0b4987;stroke-width:2px;}.cls-7{fill:#a67c52;}.cls-7,.cls-23,.cls-34{stroke:#8c6239;}.cls-8{fill:#0077d4;}.cls-8,.cls-9,.cls-17,.cls-25{stroke:#0077d4;}.cls-9,.cls-25{fill:#159eff;}.cls-10,.cls-16,.cls-22,.cls-29{stroke:#1b1464;}.cls-12,.cls-37{fill:#000;}.cls-40{fill:#441506;}.cls-40,.cls-41,.cls-42{stroke-width:0px;}.cls-13{fill:#998675;}.cls-13,.cls-31,.cls-38{stroke:#998675;}.cls-14,.cls-19,.cls-20,.cls-21,.cls-37,.cls-39{stroke:#3a0b04;}.cls-41{fill:#fafeff;}.cls-15{fill:#39b54a;}.cls-15,.cls-28{stroke:#009245;}.cls-18,.cls-27,.cls-35{stroke:#006837;}.cls-18,.cls-35{fill:#009245;}.cls-43{filter:url(#drop-shadow-2);}.cls-44{filter:url(#drop-shadow-3);}.cls-45{filter:url(#drop-shadow-1);}.cls-20,.cls-27{fill:none;}.cls-21{fill:#ff931e;}.cls-22{fill:#1b1464;}.cls-24,.cls-28{fill:#feffbf;}.cls-26{fill:#ffdc00;}.cls-46{mix-blend-mode:darken;opacity:.75;}.cls-47{opacity:.4;}.cls-48{opacity:.6;}.cls-42{fill:#e2e2e2;}.cls-30{stroke:#8e8e8e;}.cls-31{fill:#c7b299;}.cls-32{fill:#ce91b3;}.cls-34{fill:#8c6239;}.cls-49{isolation:isolate;}.cls-35{stroke-width:5px;}.cls-36{fill:#29abe2;}.cls-39{fill:#f15a24;}</style><filter id="drop-shadow-1" filterUnits="userSpaceOnUse"><feOffset dx="7" dy="7"/><feGaussianBlur result="blur" stdDeviation="40"/><feFlood flood-color="#000" flood-opacity="0"/><feComposite in2="blur" operator="in"/><feComposite in="SourceGraphic"/></filter><filter id="drop-shadow-2" filterUnits="userSpaceOnUse"><feOffset dx="7" dy="7"/><feGaussianBlur result="blur-2" stdDeviation="40"/><feFlood flood-color="#000" flood-opacity="0"/><feComposite in2="blur-2" operator="in"/><feComposite in="SourceGraphic"/></filter><filter id="drop-shadow-3" filterUnits="userSpaceOnUse"><feOffset dx="7" dy="7"/><feGaussianBlur result="blur-3" stdDeviation="40"/><feFlood flood-color="#000" flood-opacity="0"/><feComposite in2="blur-3" operator="in"/><feComposite in="SourceGraphic"/></filter></defs><g class="cls-49"><g id="forside"><rect class="cls-41" x="-4.39" y="-9" width="320.31" height="547"/><path class="cls-42" d="M313.93-7v543H-2.39V-7h316.31M317.93-11H-6.39v551h324.31V-11h0Z"/><rect class="cls-41" x="319.93" y="-9" width="320.31" height="547"/><path class="cls-42" d="M638.24-7v543h-316.31V-7h316.31M642.24-11h-324.31v551h324.31V-11h0Z"/><rect class="cls-41" x="644.24" y="-9" width="320.32" height="547"/><path class="cls-42" d="M962.56-7v543h-316.31V-7h316.31M966.56-11h-324.31v551h324.31V-11h0Z"/><rect class="cls-41" x="968.56" y="-9" width="320.31" height="547"/><path class="cls-42" d="M1286.87-7v543h-316.31V-7h316.31M1290.87-11h-324.31v551h324.31V-11h0Z"/><rect class="cls-41" x="968.56" y="542" width="320.31" height="547"/><path class="cls-42" d="M1286.87,544v543h-316.31v-543h316.31M1290.87,540h-324.31v551h324.31v-551h0Z"/><rect class="cls-41" x="1292.87" y="-9" width="320.32" height="547"/><path class="cls-42" d="M1611.19-7v543h-316.31V-7h316.31M1615.19-11h-324.31v551h324.31V-11h0Z"/><rect class="cls-41" x="1292.87" y="542" width="320.32" height="547"/><path class="cls-42" d="M1611.19,544v543h-316.31v-543h316.31M1615.19,540h-324.31v551h324.31v-551h0Z"/><rect class="cls-41" x="1617.19" y="-9" width="320.31" height="547"/><path class="cls-42" d="M1935.5-7v543h-316.31V-7h316.31M1939.5-11h-324.31v551h324.31V-11h0Z"/><rect class="cls-41" x="1617.19" y="542" width="320.31" height="547"/><path class="cls-42" d="M1935.5,544v543h-316.31v-543h316.31M1939.5,540h-324.31v551h324.31v-551h0Z"/><rect class="cls-41" x="644.24" y="542" width="320.32" height="547"/><path class="cls-42" d="M962.56,544v543h-316.31v-543h316.31M966.56,540h-324.31v551h324.31v-551h0Z"/><rect class="cls-41" x="319.93" y="542" width="320.31" height="547"/><path class="cls-42" d="M638.24,544v543h-316.31v-543h316.31M642.24,540h-324.31v551h324.31v-551h0Z"/><rect class="cls-41" x="-4.39" y="542" width="320.31" height="547"/><path class="cls-42" d="M313.93,544v543H-2.39v-543h316.31M317.93,540H-6.39v551h324.31v-551h0Z"/><g id="ondt_hjørne"><g class="cls-47"><image class="cls-46" width="1474" height="892" transform="translate(795.5 458)" xlink:href="forside-1.png"/><image class="cls-46" width="1305" height="692" transform="translate(855.5 543)" xlink:href="forside-2.png"/><path class="cls-40" d="M2028.39,715.42c1.16-17.07,2.1-34.12,2.83-51.15-3.34,7.04-4.84,13.24-3.11,18.05,9.28,25.79-196.75-43.85-139.41-16.38s-46.2,71.84-7.22,98.92c38.98,27.08-87.24,94.15-200.46,54.17-113.22-39.98-100.23-29.66-68.68,14.19,31.55,43.85-92.13,51.39-92.13,51.39,0,0-22.95-53.96-53.14,14.79-30.2,68.75-121.08-13.94-121.08-13.94-87.24-9.03,24.13,55.46,23.56,121.43-.57,65.97-118.22-24.7-118.22-24.7,0,0-113.22-38.69-76.81,8.34,36.41,47.04-195.03,115.47-195.03,115.47h1044.11c6.92-129.81-4.23-260.82,4.8-390.58Z"/><path class="cls-20" d="M2028.39,715.42c1.16-17.07,2.1-34.12,2.83-51.15-3.34,7.04-4.84,13.24-3.11,18.05,9.28,25.79-196.75-43.85-139.41-16.38s-46.2,71.84-7.22,98.92c38.98,27.08-87.24,94.15-200.46,54.17-113.22-39.98-100.23-29.66-68.68,14.19,31.55,43.85-92.13,51.39-92.13,51.39,0,0-22.95-53.96-53.14,14.79-30.2,68.75-121.08-13.94-121.08-13.94-87.24-9.03,24.13,55.46,23.56,121.43-.57,65.97-118.22-24.7-118.22-24.7,0,0-113.22-38.69-76.81,8.34,36.41,47.04-195.03,115.47-195.03,115.47h1044.11c6.92-129.81-4.23-260.82,4.8-390.58Z"/></g><g class="cls-48"><image class="cls-46" width="1220" height="789" transform="translate(943.5 546)" xlink:href="forside-3.png"/><image class="cls-46" width="1051" height="589" transform="translate(1002.5 631)" xlink:href="forside-4.png"/><path class="cls-40" d="M1922.5,791c.88-13.13,1.59-26.24,2.15-39.34-2.53,5.41-3.67,10.18-2.36,13.88,7.04,19.84-149.33-33.73-105.81-12.6s-35.07,55.26-5.48,76.09c29.58,20.83-66.21,72.42-152.14,41.66-85.93-30.75-76.07-22.82-52.12,10.91,23.95,33.73-69.93,39.52-69.93,39.52,0,0-17.42-41.51-40.34,11.38-22.92,52.88-91.89-10.72-91.89-10.72-66.21-6.94,18.31,42.66,17.88,93.4-.43,50.74-89.73-19-89.73-19,0,0-85.93-29.76-58.3,6.42,27.63,36.18-148.03,88.82-148.03,88.82h792.45c5.25-99.85-3.21-200.61,3.64-300.42Z"/><path class="cls-20" d="M1922.5,791c.88-13.13,1.59-26.24,2.15-39.34-2.53,5.41-3.67,10.18-2.36,13.88,7.04,19.84-149.33-33.73-105.81-12.6s-35.07,55.26-5.48,76.09c29.58,20.83-66.21,72.42-152.14,41.66-85.93-30.75-76.07-22.82-52.12,10.91,23.95,33.73-69.93,39.52-69.93,39.52,0,0-17.42-41.51-40.34,11.38-22.92,52.88-91.89-10.72-91.89-10.72-66.21-6.94,18.31,42.66,17.88,93.4-.43,50.74-89.73-19-89.73-19,0,0-85.93-29.76-58.3,6.42,27.63,36.18-148.03,88.82-148.03,88.82h792.45c5.25-99.85-3.21-200.61,3.64-300.42Z"/></g><g id="_åben_mund" class="cls-45"><polygon class="cls-39" points="1474.72 1019.06 1502.96 1035 1505.88 1085.75 1474.72 1019.06"/><polygon class="cls-39" points="1521.02 986.04 1521.9 1033.73 1561.06 1066.61 1521.02 986.04"/><path class="cls-39" d="M1546.92,1048.09c36.62,34.21,17.42,62.73,5.11,68.48-12.31,5.75-43.11-1.04-49.69-47.65,0,0-3.69-25.86-6.19-45.42-.74-5.82-2.4-10.39-2.8-14.25-.16-1.51-6.52-22.93-5.88-23.23.25-.12-.22.16,0,0,.6-.44,35.61,39.78,36.78,40.86,12.46,11.56-1.66-1.5,22.67,21.22Z"/><ellipse class="cls-37" cx="1551.68" cy="1083.43" rx="4.01" ry="5.53" transform="translate(-312.75 758.69) rotate(-25.04)"/><ellipse class="cls-19" cx="1550.82" cy="1081.8" rx="1.98" ry="3.02" transform="translate(-312.13 758.18) rotate(-25.04)"/></g><g id="_åben_mund-2" class="cls-43"><polygon class="cls-39" points="1854.12 860.03 1882.36 875.98 1885.28 926.73 1854.12 860.03"/><path class="cls-39" d="M1919.79,865.98l-19.36-38.96.88,47.7,18.38,15.43c0-8.06.02-16.11.1-24.16Z"/><path class="cls-39" d="M1919.79,865.98c-.08,8.05-.11,16.11-.1,24.16l20.78,17.44-20.67-41.6Z"/><path class="cls-39" d="M1866.87,826.99s.02,0,.03,0c.05-.03.08-.06-.03,0Z"/><path class="cls-39" d="M1866.87,826.99s0,.02-.01.03c.01,0,.03-.02.04-.03-.01,0-.02,0-.03,0Z"/><path class="cls-39" d="M1866.86,827.02s0-.03.01-.03c-.1.07-.06.06-.01.03Z"/><path class="cls-39" d="M1919.69,882.87c-14.92-13.95-4.93-4.72-16.04-15.02-1.15-1.07-35.56-40.59-36.75-40.85-.01,0-.03.02-.04.03-.48.74,5.74,21.71,5.89,23.2.4,3.86,2.06,8.44,2.8,14.25,2.5,19.56,6.19,45.42,6.19,45.42,5.04,35.71,24.29,48.04,38.56,49.28-.3-25.44-.66-50.88-.62-76.3Z"/><path class="cls-39" d="M1926.32,889.07c-2.65-2.47-4.81-4.5-6.63-6.2-.05,25.42.31,50.86.62,76.3,4.36.38,8.25-.28,11.13-1.63,12.31-5.75,31.5-34.27-5.11-68.48Z"/><ellipse class="cls-21" cx="1905.66" cy="942.61" rx="4.87" ry="2.95" transform="translate(-219.86 895.3) rotate(-25.04)"/><path class="cls-14" d="M1917.76,945.6l2.37-1.11c-.03-2.63-.06-5.26-.09-7.89-1.34,1.45-2.26,4.2-2.27,8.99Z"/><path class="cls-14" d="M1920.03,936.61c.03,2.63.06,5.26.09,7.89l11.38-5.32s-7.57-6.8-11.47-2.57Z"/><ellipse class="cls-37" cx="1907.22" cy="935.74" rx="4.01" ry="5.53" transform="translate(-216.8 895.31) rotate(-25.04)"/><ellipse class="cls-19" cx="1906.36" cy="934.11" rx="1.98" ry="3.02" transform="translate(-216.19 894.79) rotate(-25.04)"/></g><g id="_åben_mund-3" class="cls-44"><polygon class="cls-39" points="1769.87 1007.48 1798.11 1023.42 1801.03 1074.18 1769.87 1007.48"/><polygon class="cls-39" points="1816.17 974.46 1817.05 1022.16 1856.21 1055.03 1816.17 974.46"/><path class="cls-39" d="M1842.07,1036.51c36.62,34.21,17.42,62.73,5.11,68.48-12.31,5.75-43.11-1.04-49.69-47.65,0,0-3.69-25.86-6.19-45.42-.74-5.82-2.4-10.39-2.8-14.25-.16-1.51-6.52-22.93-5.88-23.23.25-.12-.22.16,0,0,.6-.44,35.61,39.78,36.78,40.86,12.46,11.56-1.66-1.5,22.67,21.22Z"/><ellipse class="cls-21" cx="1852.9" cy="1074.75" rx="4.87" ry="2.95" transform="translate(-280.75 885.39) rotate(-25.04)"/><ellipse class="cls-37" cx="1846.83" cy="1071.85" rx="4.01" ry="5.53" transform="translate(-280.1 882.54) rotate(-25.04)"/><ellipse class="cls-19" cx="1845.97" cy="1070.22" rx="1.98" ry="3.02" transform="translate(-279.49 882.03) rotate(-25.04)"/><ellipse class="cls-37" cx="1822.96" cy="1083.19" rx="4.01" ry="5.53" transform="translate(-287.14 873.51) rotate(-25.04)"/><ellipse class="cls-19" cx="1822.1" cy="1081.55" rx="1.98" ry="3.02" transform="translate(-286.53 872.99) rotate(-25.04)"/></g><g class="cls-48"><image class="cls-46" width="1220" height="789" transform="translate(1043.5 632)" xlink:href="forside-5.png"/><image class="cls-46" width="1051" height="589" transform="translate(1102.5 717)" xlink:href="forside-6.png"/><path class="cls-40" d="M2022.24,877.08c.88-13.13,1.59-26.24,2.15-39.34-2.53,5.41-3.67,10.18-2.36,13.88,7.04,19.84-149.33-33.73-105.81-12.6s-35.07,55.26-5.48,76.09c29.58,20.83-66.21,72.42-152.14,41.66-85.93-30.75-76.07-22.82-52.12,10.91,23.95,33.73-69.93,39.52-69.93,39.52,0,0-17.42-41.51-40.34,11.38-22.92,52.88-91.89-10.72-91.89-10.72-66.21-6.94,18.31,42.66,17.88,93.4-.43,50.74-89.73-19-89.73-19,0,0-85.93-29.76-58.3,6.42,27.63,36.18-148.03,88.82-148.03,88.82h792.45c5.25-99.85-3.21-200.61,3.64-300.42Z"/><path class="cls-20" d="M2022.24,877.08c.88-13.13,1.59-26.24,2.15-39.34-2.53,5.41-3.67,10.18-2.36,13.88,7.04,19.84-149.33-33.73-105.81-12.6s-35.07,55.26-5.48,76.09c29.58,20.83-66.21,72.42-152.14,41.66-85.93-30.75-76.07-22.82-52.12,10.91,23.95,33.73-69.93,39.52-69.93,39.52,0,0-17.42-41.51-40.34,11.38-22.92,52.88-91.89-10.72-91.89-10.72-66.21-6.94,18.31,42.66,17.88,93.4-.43,50.74-89.73-19-89.73-19,0,0-85.93-29.76-58.3,6.42,27.63,36.18-148.03,88.82-148.03,88.82h792.45c5.25-99.85-3.21-200.61,3.64-300.42Z"/></g></g><g id="tekst"><path class="cls-6" d="M435.73,411.35c-4.48-27.18-8.95-54.33-13.41-81.45-4.51,31.84-9.02,63.72-13.51,95.62-1.05,7.27-1.88,12.54-2.5,15.79-.62,3.25-1.69,6.46-3.22,9.61-1.53,3.16-3.57,5.43-6.1,6.84-2.05,1.14-3.73,1.4-5.05.77-1.32-.63-2.39-1.97-3.21-4.02-.82-2.05-1.49-4.65-2-7.81-.52-3.16-.98-6.09-1.39-8.81-4.52-30.5-9.04-60.97-13.54-91.41-.81-5.29-1.22-9.44-1.22-12.46,0-3.82.74-7.48,2.21-10.96,1.47-3.48,3.3-5.86,5.49-7.13,3-1.74,5.02-1.15,6.05,1.74,1.04,2.89,1.95,7.43,2.73,13.63,3.56,26.67,7.13,53.35,10.71,80.06,4.01-29.08,8.02-58.14,12.05-87.17.9-6.65,1.7-11.78,2.42-15.38.71-3.6,1.87-7.01,3.49-10.22,1.61-3.21,3.81-5.55,6.6-7.02,2.82-1.49,5.02-1.4,6.58.23,1.56,1.64,2.65,3.74,3.25,6.31.6,2.57,1.42,6.91,2.44,13.03,4.1,24.75,8.21,49.53,12.33,74.33,3.64-30.51,7.29-61,10.95-91.47.53-4.75,1.04-8.51,1.51-11.29.48-2.78,1.3-5.45,2.46-8.03,1.16-2.57,2.85-4.39,5.07-5.44,2.22-1.05,4.1-.65,5.65,1.2,1.55,1.85,2.33,4.73,2.33,8.62,0,2.75-.42,7.34-1.26,13.77-4.67,35.27-9.33,70.58-13.98,105.91-.95,7.17-1.74,12.46-2.37,15.88-.63,3.42-1.69,6.67-3.2,9.76-1.5,3.08-3.62,5.3-6.36,6.66-2.58,1.28-4.65,1.18-6.2-.32-1.55-1.49-2.63-3.51-3.24-6.06-.61-2.54-1.46-6.99-2.55-13.33Z"/><path class="cls-6" d="M540.78,370.38c-1.37-5.63-2.73-11.25-4.1-16.87-11.63,4.66-23.2,9.5-34.71,14.53-1.35,6.89-2.7,13.79-4.05,20.69-1.58,8.07-2.93,13.65-4.05,16.73-1.12,3.08-2.95,5.19-5.49,6.33-2.16.97-4.06.47-5.71-1.53-1.65-1.99-2.48-4.73-2.48-8.22,0-2.01.19-4.18.58-6.5.38-2.32,1.02-5.6,1.9-9.82,7.2-35.21,14.43-70.35,21.68-105.41.62-3.02,1.36-6.64,2.23-10.87.87-4.23,1.8-7.83,2.79-10.8.99-2.97,2.28-5.59,3.89-7.85,1.61-2.26,3.6-3.89,5.97-4.88,2.41-1.01,4.42-1.05,6.03-.14,1.61.91,2.92,2.4,3.91,4.48.99,2.08,1.83,4.4,2.51,6.97.68,2.57,1.55,6.03,2.6,10.36,7.47,28.7,14.96,57.48,22.47,86.34,1.77,6.57,2.65,11.5,2.65,14.79,0,3.42-.83,6.87-2.5,10.35-1.67,3.48-3.68,5.67-6.03,6.58-1.37.53-2.55.57-3.52.11-.98-.46-1.8-1.27-2.46-2.46-.67-1.18-1.38-3.11-2.14-5.8-.76-2.68-1.42-5.05-1.96-7.12ZM506.49,343.65c8.47-3.66,16.98-7.22,25.51-10.68-4.31-18.54-8.6-37.05-12.9-55.53-4.21,22.05-8.42,44.12-12.62,66.21Z"/><path class="cls-6" d="M618.1,236.63c-6.45,2.06-12.88,4.18-19.3,6.35v107.11c0,6.17-.81,11.02-2.44,14.56-1.62,3.54-3.72,5.75-6.29,6.64-2.61.91-4.73.14-6.37-2.29-1.64-2.44-2.46-6.7-2.46-12.81v-107.11c-6.39,2.27-12.77,4.6-19.14,6.99-2.99,1.12-5.2.84-6.65-.85-1.45-1.69-2.18-4.38-2.18-8.07,0-3.82.75-7.13,2.26-9.92,1.51-2.79,3.7-4.72,6.56-5.8,18.54-6.95,37.21-13.42,55.99-19.43,3.06-.98,5.35-.56,6.84,1.25,1.49,1.81,2.24,4.56,2.24,8.25,0,3.69-.76,6.89-2.27,9.61-1.51,2.72-3.79,4.56-6.81,5.53Z"/><path class="cls-6" d="M695.93,212.95c-13.51,3.35-26.97,6.93-40.38,10.75v36.21c12.35-3.52,24.74-6.83,37.17-9.95,2.74-.69,4.79-.17,6.15,1.54,1.35,1.72,2.03,4.25,2.03,7.6,0,3.35-.67,6.25-2,8.68-1.33,2.44-3.39,4-6.18,4.7-12.43,3.12-24.82,6.43-37.17,9.95v41.94c13.87-3.95,27.8-7.65,41.77-11.09,2.83-.7,4.96-.12,6.39,1.71,1.43,1.83,2.15,4.56,2.15,8.18,0,3.49-.72,6.49-2.15,9.01-1.44,2.52-3.57,4.13-6.39,4.83-16.3,4.02-32.53,8.38-48.68,13.08-3.88,1.13-6.67.52-8.37-1.85-1.7-2.37-2.55-6.78-2.55-13.21v-110.83c0-4.29.38-7.91,1.14-10.85.76-2.94,1.95-5.28,3.57-7,1.62-1.72,3.69-2.95,6.21-3.69,15.7-4.57,31.46-8.81,47.29-12.74,2.87-.71,5-.17,6.39,1.6,1.39,1.77,2.09,4.37,2.09,7.79,0,3.49-.7,6.45-2.09,8.9-1.39,2.45-3.53,4.02-6.39,4.73Z"/><path class="cls-6" d="M744.5,263.31c-2.11.43-4.23.87-6.34,1.32v47.37c0,6.24-.83,11-2.5,14.31-1.67,3.3-3.84,5.24-6.52,5.83-2.88.63-5.11-.42-6.69-3.15-1.58-2.73-2.37-7.07-2.37-13.04v-113.44c0-6.44.87-11.29,2.61-14.57,1.74-3.27,4.56-5.34,8.46-6.19,9.8-2.12,19.63-4.12,29.47-6,4.07-.78,7.56-1.14,10.46-1.09,2.9.04,5.51.74,7.84,2.07,2.82,1.45,5.31,3.81,7.48,7.06,2.17,3.26,3.81,7.19,4.94,11.8,1.12,4.61,1.69,9.6,1.69,14.96,0,11-1.89,20.08-5.67,27.29-3.78,7.21-9.51,12.84-17.18,16.99,3.22,2.23,6.31,5.84,9.25,10.82,2.94,4.98,5.57,10.39,7.88,16.2,2.31,5.81,4.11,11.12,5.4,15.9,1.29,4.79,1.93,8.12,1.93,9.99,0,1.95-.38,3.93-1.13,5.97-.76,2.03-1.79,3.71-3.1,5.03-1.31,1.32-2.82,2.13-4.54,2.42-2.04.35-3.76-.15-5.15-1.48-1.39-1.33-2.58-3.12-3.58-5.36-1-2.24-2.36-5.55-4.07-9.93-2.43-6.2-4.86-12.39-7.28-18.58-2.61-6.82-4.94-11.94-7-15.37-2.06-3.43-4.15-5.63-6.26-6.62-2.12-.99-4.78-1.16-7.99-.5ZM754.88,199.29c-5.58,1.09-11.15,2.22-16.72,3.39v40.53c5.4-1.14,10.81-2.24,16.23-3.3,4.36-.85,8.02-2.17,11-3.97,2.98-1.8,5.25-4.32,6.82-7.59,1.57-3.27,2.36-7.51,2.36-12.74,0-4.09-.63-7.58-1.9-10.47-1.27-2.89-3.02-4.9-5.26-6.03-2.12-1.08-6.3-1.05-12.53.17Z"/><path class="cls-6" d="M900.57,182.04c-6.68.48-13.36,1.02-20.03,1.62v107.11c0,6.17-.84,10.82-2.53,13.96-1.69,3.14-3.87,4.83-6.55,5.09-2.72.26-4.93-1.02-6.64-3.87-1.71-2.84-2.56-7.31-2.56-13.41v-107.11c-6.67.69-13.33,1.45-19.98,2.25-3.12.38-5.44-.45-6.96-2.51-1.52-2.05-2.28-4.92-2.28-8.61,0-3.82.79-6.94,2.37-9.35,1.58-2.41,3.87-3.81,6.87-4.17,19.39-2.35,38.83-4.23,58.29-5.63,3.17-.23,5.54.75,7.08,2.93,1.55,2.18,2.32,5.11,2.32,8.8,0,3.69-.78,6.71-2.35,9.05-1.57,2.35-3.92,3.63-7.05,3.86Z"/><path class="cls-6" d="M939.38,170.8c0,14.08,0,28.16,0,42.24,13.23-.53,26.47-.85,39.72-.95v-42.24c0-6.03.84-10.57,2.51-13.59,1.67-3.03,3.87-4.55,6.6-4.55,2.77,0,5.01,1.5,6.72,4.49,1.71,2.99,2.57,7.54,2.57,13.64v116.16c0,6.1-.87,10.65-2.6,13.66-1.74,3.01-3.97,4.51-6.69,4.51-2.77,0-4.98-1.52-6.63-4.56-1.65-3.04-2.48-7.58-2.48-13.61v-49.58c-13.24.1-26.48.42-39.72.95,0,16.53,0,33.05,0,49.58,0,6.1-.87,10.69-2.6,13.79-1.73,3.09-3.96,4.7-6.69,4.83-2.77.13-4.97-1.28-6.63-4.24-1.65-2.96-2.48-7.46-2.48-13.49v-116.16c0-6.03.81-10.61,2.45-13.71,1.63-3.1,3.85-4.73,6.66-4.86,2.76-.13,5.01,1.26,6.72,4.17,1.71,2.91,2.57,7.42,2.57,13.52Z"/><path class="cls-6" d="M1077.09,180.48c-13.79-1.01-27.6-1.78-41.41-2.31v36.21c12.72.49,25.43,1.19,38.13,2.08,2.8.2,4.9,1.37,6.28,3.52,1.38,2.15,2.07,4.9,2.07,8.25,0,3.35-.68,6.03-2.04,8.04-1.36,2.01-3.46,2.91-6.31,2.71-12.7-.89-25.41-1.59-38.13-2.08v41.94c14.29.55,28.57,1.36,42.83,2.42,2.89.21,5.06,1.48,6.52,3.77,1.46,2.3,2.19,5.26,2.19,8.88,0,3.49-.73,6.26-2.19,8.32-1.46,2.06-3.64,2.98-6.52,2.77-16.64-1.23-33.29-2.13-49.96-2.67-4.01-.13-6.89-1.65-8.64-4.58-1.76-2.93-2.63-7.61-2.63-14.04,0-36.94,0-73.88,0-110.83,0-4.29.39-7.78,1.18-10.48.78-2.7,2.01-4.64,3.69-5.84,1.67-1.19,3.81-1.75,6.41-1.67,16.19.53,32.37,1.39,48.54,2.57,2.93.21,5.1,1.44,6.52,3.66,1.42,2.22,2.13,5.05,2.13,8.47,0,3.49-.71,6.23-2.13,8.23-1.42,2-3.6,2.89-6.52,2.67Z"/><path class="cls-6" d="M1168.43,257.61c-5.57-.83-11.15-1.63-16.73-2.38v41.74c0,5.97-.86,10.38-2.59,13.23-1.72,2.85-3.9,4.11-6.53,3.78-2.75-.35-4.97-2.15-6.65-5.41-1.69-3.26-2.53-7.83-2.53-13.73v-113.64c0-6.57.92-11.15,2.77-13.74,1.85-2.59,4.79-3.64,8.81-3.11,7.82,1.01,15.63,2.1,23.44,3.27,6.92,1.04,12.24,2.76,15.96,5.11,3.68,2.28,6.86,5.6,9.53,9.94,2.68,4.35,4.71,9.46,6.1,15.34,1.39,5.88,2.08,12.34,2.08,19.38,0,15.02-2.81,25.89-8.45,32.67-5.64,6.78-14.04,9.25-25.22,7.57ZM1164,189.37c-4.1-.6-8.2-1.17-12.3-1.73v45.05c4.1.56,8.2,1.13,12.3,1.73,4.3.63,7.9.44,10.78-.59,2.89-1.03,5.08-3.09,6.6-6.2,1.51-3.11,2.27-7.38,2.27-12.81,0-6.5-1.17-11.99-3.5-16.45-2.62-4.77-8-7.81-16.16-9Z"/><path class="cls-6" d="M1235.04,195.05v107.31c12.24,2.53,24.44,5.26,36.61,8.17,2.91.7,5.14,2.42,6.7,5.14,1.56,2.73,2.33,5.87,2.33,9.42,0,3.62-.77,6.36-2.3,8.23-1.54,1.87-3.78,2.44-6.73,1.74-14.5-3.47-29.04-6.67-43.63-9.6-3.95-.79-6.79-2.79-8.52-6-1.73-3.22-2.6-8.04-2.6-14.48v-113.54c0-6.04.83-10.4,2.48-13.1,1.65-2.7,3.82-3.79,6.5-3.25,2.73.54,4.93,2.48,6.62,5.81,1.69,3.33,2.53,8.05,2.53,14.15Z"/><path class="cls-6" d="M1347.28,339.08c-1.4-6.6-2.79-13.2-4.19-19.79-11.9-3.63-23.84-7.07-35.82-10.32-1.41,5.92-2.81,11.84-4.22,17.77-1.65,6.93-3.06,11.54-4.22,13.81-1.17,2.27-3.08,3.06-5.74,2.37-2.26-.59-4.25-2.47-5.99-5.66-1.74-3.19-2.6-6.52-2.6-10.01,0-2.01.2-4.04.6-6.08.4-2.04,1.07-4.86,2-8.45,7.56-30,15.11-59.92,22.65-89.77.64-2.57,1.42-5.66,2.32-9.27.9-3.6,1.87-6.54,2.89-8.8,1.02-2.26,2.37-3.95,4.03-5.05,1.66-1.1,3.72-1.31,6.16-.6,2.48.72,4.56,2.11,6.22,4.17,1.66,2.06,3,4.49,4.02,7.27,1.02,2.79,1.88,5.71,2.58,8.77.7,3.06,1.59,7.13,2.67,12.22,7.65,34.03,15.28,68.13,22.89,102.31,1.79,7.82,2.68,13.38,2.68,16.66,0,3.42-.84,6.28-2.53,8.58-1.69,2.3-3.73,3.07-6.12,2.31-1.39-.44-2.59-1.24-3.58-2.39-1-1.15-1.83-2.55-2.51-4.21-.68-1.65-1.41-4.09-2.18-7.32-.78-3.22-1.45-6.06-2-8.52ZM1311.98,287.83c8.8,2.43,17.57,4.96,26.32,7.59-4.42-21.61-8.84-43.19-13.26-64.75-4.35,19.03-8.7,38.08-13.06,57.16Z"/><path class="cls-6" d="M1402.12,242.11c11.25,33.04,22.45,66.24,33.61,99.62v-87.7c0-5.7.71-9.69,2.14-11.97,1.42-2.28,3.35-2.94,5.76-1.96,2.49,1.01,4.46,3.24,5.9,6.68,1.44,3.44,2.16,8.01,2.16,13.71v115.96c0,12.94-3.11,18.12-9.35,15.6-1.56-.63-2.97-1.58-4.21-2.84-1.25-1.27-2.42-2.96-3.52-5.06-1.09-2.11-2.11-4.47-3.05-7.08-.94-2.61-1.88-5.28-2.82-7.99-10.9-32.87-21.85-65.57-32.84-98.11v86.39c0,5.63-.77,9.62-2.31,11.95-1.54,2.34-3.52,3.09-5.93,2.25-2.49-.87-4.49-3.01-5.99-6.44-1.51-3.43-2.26-7.93-2.26-13.49v-113.74c0-4.83.32-8.51.95-11.04.75-2.76,2-4.8,3.74-6.11,1.74-1.31,3.62-1.62,5.64-.91,1.58.55,2.93,1.47,4.06,2.73,1.13,1.27,2.11,2.79,2.96,4.57.85,1.78,1.72,4,2.6,6.66.89,2.67,1.8,5.44,2.75,8.33Z"/><path class="cls-6" d="M1525.38,303.83c-6.16-3.03-12.34-6.01-18.54-8.93v107.11c0,6.17-.78,10.37-2.35,12.62-1.57,2.25-3.6,2.79-6.09,1.64-2.53-1.17-4.6-3.62-6.19-7.37-1.6-3.74-2.39-8.66-2.39-14.76,0-35.7,0-71.4,0-107.11-6.23-2.82-12.48-5.59-18.75-8.3-2.94-1.27-5.13-3.33-6.56-6.19-1.43-2.86-2.15-6.13-2.15-9.81,0-3.82.75-6.52,2.24-8.1,1.49-1.58,3.65-1.76,6.48-.54,18.26,7.9,36.37,16.27,54.31,25.11,2.93,1.44,5.1,3.67,6.52,6.66,1.42,2.99,2.13,6.33,2.13,10.02,0,3.69-.72,6.29-2.16,7.82-1.44,1.53-3.6,1.57-6.49.15Z"/><path class="cls-6" d="M1606.4,426.16c0,8.92-1.26,16.18-3.79,21.81-2.53,5.63-6.23,9.03-11.13,10.26-4.9,1.23-10.72-.04-17.48-3.76-8.11-4.45-14.83-10.78-20.13-19.07-3.76-5.93-6.83-12.8-9.19-20.62-2.36-7.82-3.54-14.84-3.54-21.08,0-3.62.71-6.36,2.13-8.21,1.42-1.85,3.22-2.22,5.41-1.08,1.77.92,3.27,2.71,4.49,5.36,1.22,2.65,2.27,6.19,3.13,10.6,1.05,5.25,2.19,9.77,3.41,13.58,1.22,3.8,2.94,7.32,5.15,10.55,2.21,3.24,5.11,5.83,8.7,7.8,4.93,2.71,8.92,2.88,11.99.49,3.07-2.39,4.6-6.66,4.6-12.83,0-4.89-.83-9.34-2.48-13.33-1.65-3.99-3.79-7.52-6.42-10.6-2.63-3.08-6.14-6.74-10.55-10.96-5.91-5.7-10.87-11.25-14.88-16.69-4.01-5.43-7.19-11.61-9.55-18.56-2.36-6.95-3.54-14.68-3.54-23.19,0-8.11,1.25-14.68,3.74-19.7,2.49-5.01,6.09-7.99,10.79-8.89,4.7-.9,10.21.37,16.53,3.84,5.04,2.77,9.39,6.33,13.05,10.64,3.66,4.32,6.69,9.04,9.1,14.15,2.41,5.11,4.16,10.04,5.27,14.77,1.11,4.74,1.66,9.05,1.66,12.94,0,3.55-.69,6.35-2.08,8.39-1.39,2.04-3.12,2.46-5.19,1.27-1.89-1.09-3.33-2.77-4.31-5.04-.98-2.27-2.05-5.68-3.2-10.22-1.49-6.41-3.27-11.76-5.35-16.04-2.09-4.29-5.44-7.72-10.07-10.26-4.3-2.36-7.77-2.53-10.42-.57-2.65,1.97-3.97,5.34-3.97,10.1,0,2.95.45,5.74,1.35,8.36.9,2.63,2.14,5.13,3.72,7.52,1.57,2.39,3.17,4.46,4.78,6.2,1.61,1.75,4.27,4.46,7.96,8.18,4.63,4.5,8.8,8.99,12.54,13.46,3.73,4.47,6.9,9.14,9.51,14,2.61,4.87,4.64,10.29,6.1,16.28,1.46,5.98,2.18,12.7,2.18,20.14Z"/></g><g id="dråber"><g id="_åben_mund-4"><path class="cls-25" d="M1797.52,186.9c16.54,41.12-9.52,56.79-21.54,56.79s-34.16-16.97-21.98-56.79c0,0,11.31-37.21,16.2-51.36.44-1.27,2.32-8.7,2.94-8.7.25,0-.24.05,0,0,.65-.13,9.05,23.29,9.57,24.59,5.66,13.93,3.81,8.15,14.8,35.47Z"/><ellipse class="cls-8" cx="1763.59" cy="222.42" rx="4.31" ry="2.61"/><ellipse class="cls-12" cx="1766.33" cy="217.6" rx="3.54" ry="4.83"/><ellipse class="cls-1" cx="1766.25" cy="215.99" rx="1.75" ry="2.63"/><ellipse class="cls-8" cx="1792.03" cy="222.68" rx="4.31" ry="2.61"/><ellipse class="cls-12" cx="1788.54" cy="217.53" rx="3.55" ry="4.89"/><ellipse class="cls-1" cx="1788.46" cy="215.9" rx="1.75" ry="2.67"/><path class="cls-17" d="M1770.83,221.74s6.36,14.97,13.42,0h-13.42Z"/></g><line class="cls-4" x1="1494.86" y1="508.1" x2="1461.5" y2="321.13"/><line class="cls-4" x1="1532.17" y1="465.06" x2="1532.17" y2="200.33"/><line class="cls-4" x1="1556.24" y1="392.12" x2="1573.84" y2="253.72"/><g id="_åben_mund-5"><path class="cls-16" d="M1575.35,550.4c16.54,41.12-9.52,56.79-21.54,56.79s-34.16-16.97-21.98-56.79c0,0,11.31-37.21,16.2-51.36.44-1.27,2.32-8.7,2.94-8.7.25,0-.24.05,0,0,.65-.13,9.05,23.29,9.57,24.59,5.66,13.93,3.81,8.15,14.8,35.47Z"/><ellipse class="cls-22" cx="1541.41" cy="585.92" rx="4.31" ry="2.61"/><ellipse class="cls-12" cx="1544.15" cy="581.1" rx="3.54" ry="4.83"/><ellipse class="cls-1" cx="1544.08" cy="579.49" rx="1.75" ry="2.63"/><ellipse class="cls-22" cx="1569.86" cy="586.18" rx="4.31" ry="2.61"/><ellipse class="cls-12" cx="1566.36" cy="581.03" rx="3.55" ry="4.89"/><ellipse class="cls-1" cx="1566.28" cy="579.4" rx="1.75" ry="2.67"/><path class="cls-10" d="M1548.97,586.21s6.36,14.97,13.42,0h-13.42Z"/></g><g id="lukket_mund"><path class="cls-16" d="M771.28,728.86c16.54,41.12-9.52,56.79-21.54,56.79s-34.16-16.97-21.98-56.79c0,0,11.31-37.21,16.2-51.36.44-1.27,2.32-8.7,2.94-8.7.25,0-.24.05,0,0,.65-.13,9.05,23.29,9.57,24.59,5.66,13.93,3.81,8.15,14.8,35.47Z"/><ellipse class="cls-22" cx="737.35" cy="764.38" rx="4.31" ry="2.61"/><ellipse class="cls-12" cx="740.09" cy="759.55" rx="3.54" ry="4.83"/><ellipse class="cls-1" cx="740.01" cy="757.94" rx="1.75" ry="2.63"/><ellipse class="cls-22" cx="765.79" cy="764.64" rx="4.31" ry="2.61"/><ellipse class="cls-12" cx="762.29" cy="759.48" rx="3.55" ry="4.89"/><ellipse class="cls-1" cx="762.22" cy="757.85" rx="1.75" ry="2.67"/><path class="cls-29" d="M756.7,764.29s-5.08,8.22-10.06,0"/></g><line class="cls-4" x1="715.59" y1="685.5" x2="682.23" y2="498.53"/><line class="cls-4" x1="752.91" y1="642.46" x2="752.91" y2="377.74"/><line class="cls-4" x1="776.97" y1="569.52" x2="794.57" y2="431.12"/><g id="_åben_mund-6"><path class="cls-16" d="M67.85,40.63c10.88,27.06-6.27,37.36-14.17,37.36s-22.47-11.17-14.46-37.36c0,0,7.44-24.48,10.66-33.79.29-.84,1.53-5.72,1.94-5.72.16,0-.16.03,0,0,.43-.08,5.95,15.32,6.3,16.18,3.72,9.16,2.51,5.36,9.73,23.33Z"/><ellipse class="cls-22" cx="45.52" cy="64" rx="2.83" ry="1.72"/><ellipse class="cls-12" cx="47.33" cy="60.82" rx="2.33" ry="3.18"/><ellipse class="cls-1" cx="47.27" cy="59.76" rx="1.15" ry="1.73"/><ellipse class="cls-22" cx="64.24" cy="64.17" rx="2.83" ry="1.72"/><ellipse class="cls-12" cx="61.94" cy="60.78" rx="2.33" ry="3.22"/><ellipse class="cls-1" cx="61.89" cy="59.7" rx="1.15" ry="1.76"/><path class="cls-10" d="M50.5,64.18s4.18,9.85,8.83,0h-8.83Z"/></g><g id="lukket_mund-2"><path class="cls-5" d="M159.56,932.68c16.54,41.12-9.52,56.79-21.54,56.79s-34.16-16.97-21.98-56.79c0,0,11.31-37.21,16.2-51.36.44-1.27,2.32-8.7,2.94-8.7.25,0-.24.05,0,0,.65-.13,9.05,23.29,9.57,24.59,5.66,13.93,3.81,8.15,14.8,35.47Z"/><ellipse class="cls-36" cx="125.63" cy="968.2" rx="4.31" ry="2.61"/><ellipse class="cls-12" cx="128.37" cy="963.38" rx="3.54" ry="4.83"/><ellipse class="cls-1" cx="128.29" cy="961.77" rx="1.75" ry="2.63"/><ellipse class="cls-36" cx="154.07" cy="968.46" rx="4.31" ry="2.61"/><ellipse class="cls-12" cx="150.58" cy="963.31" rx="3.55" ry="4.89"/><ellipse class="cls-1" cx="150.5" cy="961.68" rx="1.75" ry="2.67"/><path class="cls-33" d="M144.37,967.93s-5.08,8.22-10.06,0"/></g><line class="cls-4" x1="97" y1="847.29" x2="63.64" y2="660.32"/><line class="cls-4" x1="134.32" y1="804.25" x2="134.32" y2="539.53"/><line class="cls-4" x1="158.38" y1="731.31" x2="175.98" y2="592.92"/><g id="lukket_mund-3"><path class="cls-5" d="M1200.74,77.43c16.54,41.12-9.52,56.79-21.54,56.79s-34.16-16.97-21.98-56.79c0,0,11.31-37.21,16.2-51.36.44-1.27,2.32-8.7,2.94-8.7.25,0-.24.05,0,0,.65-.13,9.05,23.29,9.57,24.59,5.66,13.93,3.81,8.15,14.8,35.47Z"/><ellipse class="cls-36" cx="1166.81" cy="112.95" rx="4.31" ry="2.61"/><ellipse class="cls-12" cx="1169.55" cy="108.12" rx="3.54" ry="4.83"/><ellipse class="cls-1" cx="1169.47" cy="106.51" rx="1.75" ry="2.63"/><ellipse class="cls-36" cx="1195.25" cy="113.21" rx="4.31" ry="2.61"/><ellipse class="cls-12" cx="1191.76" cy="108.05" rx="3.55" ry="4.89"/><ellipse class="cls-1" cx="1191.68" cy="106.42" rx="1.75" ry="2.67"/><path class="cls-33" d="M1185.55,112.67s-5.08,8.22-10.06,0"/></g><g id="lukket_mund-4"><path class="cls-25" d="M496.68,458.31c9.81,24.4-5.65,33.69-12.78,33.69s-20.27-10.07-13.04-33.69c0,0,6.71-22.07,9.61-30.47.26-.75,1.38-5.16,1.75-5.16.15,0-.14.03,0,0,.38-.08,5.37,13.81,5.68,14.59,3.36,8.26,2.26,4.83,8.78,21.04Z"/><ellipse class="cls-8" cx="476.55" cy="479.39" rx="2.55" ry="1.55"/><ellipse class="cls-12" cx="478.18" cy="476.52" rx="2.1" ry="2.86"/><ellipse class="cls-1" cx="478.13" cy="475.57" rx="1.04" ry="1.56"/><ellipse class="cls-8" cx="493.43" cy="479.54" rx="2.55" ry="1.55"/><ellipse class="cls-12" cx="491.35" cy="476.48" rx="2.11" ry="2.9"/><ellipse class="cls-1" cx="491.31" cy="475.51" rx="1.04" ry="1.58"/><path class="cls-9" d="M487.67,479.22s-3.02,4.88-5.97,0"/></g><line class="cls-4" x1="1730.37" y1="146.1" x2="1697.01" y2="-40.87"/><line class="cls-4" x1="1767.68" y1="103.06" x2="1767.68" y2="-161.66"/><line class="cls-4" x1="1791.75" y1="30.12" x2="1809.34" y2="-108.28"/></g><g id="planter-2"><path class="cls-18" d="M391.21,902.96l25.84-12.86c7.16-2.89,12-9.76,12.52-17.77,1.31-20.55-11.95-75.86-28.54-78.21-17.22-2.44,2.62,39.4,6.9,51.51,1.68,4.76,5.1,20.47,3.28,25.05-1.14,2.88-46.72,27.09-59.08,2.08"/><path class="cls-18" d="M316.47,874.42l-34.54,11.34c-9.02,3.65-19.12,2.43-26.11-3.16-17.91-14.33-50.45-66.57-36.89-81.81,14.08-15.81,29.55,31.66,35.39,44.22,2.3,4.94,11.87,19.48,17.28,21.44,3.4,1.23,65.56-17.63,56.79-46.42"/><path class="cls-18" d="M341.2,969.03s-41.67-92.82-71.65-177.41c-19.34-54.55,50.8-80.24,72.48-26.56l70.72,175.07"/><path class="cls-27" d="M353.32,961.9c-15.1-59.5-42.9-114.85-69.5-170.17-2.7-5.62-5.42-11.31-6.79-17.4-2.31-10.28-.51-21.43,4.92-30.46,9.3,26,23.44,47.64,32.74,73.64,7.04,19.69,14.14,39.51,24.62,57.62,3.15,5.43,6.6,10.72,9.05,16.51,2.45,5.8,3.84,11.98,5.22,18.12,3.75,16.71,7.51,33.5,8.69,50.58"/><path class="cls-27" d="M397.9,943.88c-31.35-52.94-49.25-112.29-68.12-170.73-1.92-5.94-3.88-11.94-7.23-17.22-5.67-8.93-15.33-15.44-26.41-17.81,11.49,25.12,15.81,50.72,27.3,75.84,8.7,19.02,17.45,38.18,22.17,58.61,1.42,6.13,2.47,12.39,4.72,18.26,2.25,5.88,5.65,11.24,9.04,16.57,9.21,14.5,18.47,29.07,30.05,41.96"/><path class="cls-31" d="M449.92,923.67l-148.7,60.07c-7.13,2.88-10.13,11.35-6.4,18.07l59.5,107.35c3.13,5.66,9.99,8.08,15.99,5.66l118.54-47.88c5.9-2.38,9.15-8.74,7.64-14.92l-29.33-119.53c-1.86-7.57-10-11.74-17.22-8.82Z"/><path class="cls-38" d="M395.3,1056.14s30.85,30.84,33.37-13.48l-33.37,13.48Z"/><ellipse class="cls-13" cx="375.61" cy="1062.96" rx="11.53" ry="6.99" transform="translate(-370.78 218.05) rotate(-22)"/><ellipse class="cls-12" cx="380.58" cy="1044.91" rx="11.39" ry="15.71" transform="translate(-363.66 218.6) rotate(-22)"/><ellipse class="cls-1" cx="378.39" cy="1040.15" rx="5.62" ry="8.57" transform="translate(-362.03 217.43) rotate(-22)"/><ellipse class="cls-13" cx="452.08" cy="1032.49" rx="11.53" ry="6.99" transform="translate(-300.93 193.81) rotate(-18.27)"/><ellipse class="cls-12" cx="432.7" cy="1023.71" rx="11.39" ry="15.71" transform="translate(-351.92 236.58) rotate(-22)"/><ellipse class="cls-1" cx="430.51" cy="1018.95" rx="5.62" ry="8.57" transform="translate(-350.3 235.41) rotate(-22)"/><line class="cls-35" x1="241.95" y1="255.24" x2="252.81" y2="180.19"/><ellipse class="cls-35" cx="252.94" cy="178.29" rx="16.11" ry="11.69" transform="translate(34.36 397.35) rotate(-80.24)"/><line class="cls-35" x1="255.67" y1="162.41" x2="250.21" y2="194.16"/><line class="cls-35" x1="227.6" y1="269.37" x2="220.89" y2="193.84"/><ellipse class="cls-35" cx="220.58" cy="191.96" rx="11.69" ry="16.11" transform="translate(-11.46 14.03) rotate(-3.55)"/><line class="cls-35" x1="219.59" y1="175.88" x2="221.58" y2="208.04"/><line class="cls-35" x1="252.01" y1="273.69" x2="280.55" y2="203.44"/><ellipse class="cls-35" cx="281.13" cy="201.63" rx="16.11" ry="11.69" transform="translate(-16.29 378.34) rotate(-66.36)"/><line class="cls-35" x1="287.59" y1="186.87" x2="274.68" y2="216.38"/><line class="cls-35" x1="230.89" y1="287.21" x2="196.11" y2="219.83"/><ellipse class="cls-35" cx="195.12" cy="218.21" rx="11.69" ry="16.11" transform="translate(-75.48 106.56) rotate(-25.78)"/><line class="cls-35" x1="188.11" y1="203.7" x2="202.12" y2="232.71"/><line class="cls-35" x1="240.71" y1="285.07" x2="298.48" y2="235.95"/><ellipse class="cls-35" cx="299.84" cy="234.61" rx="16.11" ry="11.69" transform="translate(-80.84 239.94) rotate(-38.84)"/><line class="cls-35" x1="312.39" y1="224.51" x2="287.3" y2="244.72"/><path class="cls-3" d="M300.29,261.07l-111.18-19.12c-5.33-.92-10.26,3.04-10.52,8.44l-4.15,86.24c-.22,4.54,2.98,8.54,7.47,9.31l88.63,15.24c4.41.76,8.71-1.84,10.09-6.1l26.7-82.36c1.69-5.22-1.63-10.72-7.04-11.65Z"/><path class="cls-11" d="M218.59,320.09s7.03,29.87,24.95,4.29l-24.95-4.29Z"/><ellipse class="cls-32" cx="204.29" cy="316.87" rx="4.92" ry="8.11" transform="translate(-142.63 464.5) rotate(-80.24)"/><ellipse class="cls-12" cx="213.94" cy="307.92" rx="11.05" ry="8.02" transform="translate(-125.78 466.58) rotate(-80.24)"/><ellipse class="cls-1" cx="214.39" cy="304.26" rx="6.03" ry="3.96" transform="translate(-121.8 463.99) rotate(-80.24)"/><ellipse class="cls-32" cx="261.3" cy="326.96" rx="4.92" ry="8.11" transform="translate(-117.57 504.84) rotate(-76.52)"/><ellipse class="cls-12" cx="252.96" cy="314.53" rx="11.05" ry="8.02" transform="translate(-99.89 510.53) rotate(-80.24)"/><ellipse class="cls-1" cx="253.41" cy="310.87" rx="6.03" ry="3.96" transform="translate(-95.91 507.93) rotate(-80.24)"/><line class="cls-30" x1="289.56" y1="122.67" x2="298.25" y2="39.1"/><line class="cls-30" x1="313.21" y1="200.81" x2="348.85" y2="27.57"/><line class="cls-35" x1="780.91" y1="1008.84" x2="865.63" y2="863.98"/><ellipse class="cls-35" cx="835.18" cy="877.87" rx="8.65" ry="19.33" transform="translate(-348.02 1139.04) rotate(-58.88)"/><ellipse class="cls-35" cx="870.02" cy="898.91" rx="8.65" ry="19.33" transform="translate(-349.2 1179.03) rotate(-58.88)"/><ellipse class="cls-35" cx="819.06" cy="902.6" rx="8.65" ry="19.33" transform="translate(-376.98 1137.19) rotate(-58.88)"/><ellipse class="cls-35" cx="853.9" cy="923.64" rx="8.65" ry="19.33" transform="translate(-378.16 1177.18) rotate(-58.88)"/><ellipse class="cls-35" cx="803.8" cy="927.86" rx="8.65" ry="19.33" transform="translate(-405.98 1136.33) rotate(-58.88)"/><ellipse class="cls-35" cx="838.65" cy="948.9" rx="8.65" ry="19.33" transform="translate(-407.15 1176.32) rotate(-58.88)"/><ellipse class="cls-35" cx="789.42" cy="953.65" rx="8.65" ry="19.33" transform="translate(-435 1136.48) rotate(-58.88)"/><ellipse class="cls-35" cx="824.26" cy="974.69" rx="8.65" ry="19.33" transform="translate(-436.18 1176.47) rotate(-58.88)"/><ellipse class="cls-35" cx="775.04" cy="979.44" rx="8.65" ry="19.33" transform="translate(-464.02 1136.63) rotate(-58.88)"/><ellipse class="cls-35" cx="809.88" cy="1000.47" rx="8.65" ry="19.33" transform="translate(-465.2 1176.62) rotate(-58.88)"/><path class="cls-7" d="M840.49,1041.18l-112.51-67.94c-5.39-3.26-12.42-1.06-15,4.69l-41.11,91.8c-2.17,4.84-.38,10.53,4.15,13.27l89.69,54.16c4.46,2.7,10.23,1.7,13.54-2.33l63.93-78.02c4.05-4.94,2.78-12.33-2.69-15.63Z"/><path class="cls-23" d="M726.78,1070.53s-5.05,35.39,25.25,15.25l-25.25-15.25Z"/><ellipse class="cls-34" cx="712.63" cy="1060.98" rx="5.73" ry="9.45" transform="translate(-563.97 1122.59) rotate(-58.88)"/><ellipse class="cls-12" cx="726.9" cy="1055.36" rx="12.88" ry="9.34" transform="translate(-552.27 1132.1) rotate(-58.88)"/><ellipse class="cls-1" cx="728.95" cy="1051.58" rx="7.02" ry="4.61" transform="translate(-548.05 1132.02) rotate(-58.88)"/><ellipse class="cls-12" cx="766.43" cy="1079.1" rx="12.88" ry="9.34" transform="translate(-553.49 1177.4) rotate(-58.88)"/><ellipse class="cls-1" cx="768.48" cy="1075.32" rx="7.02" ry="4.61" transform="translate(-549.27 1177.33) rotate(-58.88)"/><line class="cls-30" x1="408.83" y1="755.48" x2="408.83" y2="671.46"/><line class="cls-30" x1="440.43" y1="830.75" x2="457.97" y2="654.76"/><path class="cls-15" d="M1302.93,657.42c-13.88-2.08-36.14,69.84-49.73,160.63-.23,1.52-.45,3.03-.67,4.53,16.72,2.41,33.41,5.06,50.07,8.59.29-1.86.57-3.72.85-5.6,13.59-90.79,13.36-166.07-.52-168.15Z"/><path class="cls-15" d="M1260.57,570.87c-20.26-3.03-52.78,101.98-72.62,234.55-.33,2.21-.66,4.42-.98,6.62,24.42,3.52,48.79,7.39,73.11,12.54.42-2.71.84-5.43,1.25-8.17,19.85-132.57,19.51-242.5-.76-245.54Z"/><line class="cls-28" x1="1232.63" y1="592.23" x2="1242.14" y2="606.02"/><line class="cls-28" x1="1240.14" y1="579.37" x2="1250.35" y2="591.18"/><line class="cls-28" x1="1225.79" y1="605.57" x2="1233.3" y2="625.05"/><line class="cls-28" x1="1261.74" y1="563.06" x2="1259.23" y2="579.85"/><line class="cls-28" x1="1276.67" y1="583.26" x2="1264.33" y2="593.28"/><line class="cls-28" x1="1280" y1="598.88" x2="1267.57" y2="609.83"/><line class="cls-28" x1="1313.73" y1="659.04" x2="1308.1" y2="674.56"/><line class="cls-28" x1="1318.88" y1="676.17" x2="1306.56" y2="684.83"/><line class="cls-28" x1="1280.77" y1="612.03" x2="1271.16" y2="630.23"/><line class="cls-28" x1="1304.53" y1="646.74" x2="1302.46" y2="660.6"/><line class="cls-28" x1="1292.6" y1="655.48" x2="1294.16" y2="671.67"/><line class="cls-28" x1="1283.12" y1="670.82" x2="1293.36" y2="682.85"/><line class="cls-28" x1="1220.21" y1="632.92" x2="1229.72" y2="646.71"/><line class="cls-28" x1="1213.36" y1="646.26" x2="1220.88" y2="665.74"/><line class="cls-28" x1="1208.4" y1="673.23" x2="1217.91" y2="687.02"/><line class="cls-28" x1="1201.56" y1="686.57" x2="1209.07" y2="706.05"/><line class="cls-28" x1="1282.14" y1="639.62" x2="1269.7" y2="650.56"/><line class="cls-28" x1="1281.11" y1="654.09" x2="1271.51" y2="672.29"/><line class="cls-28" x1="1277.97" y1="679.64" x2="1265.54" y2="690.58"/><line class="cls-28" x1="1278.74" y1="692.79" x2="1269.13" y2="710.99"/><path class="cls-24" d="M1325.84,765.36l-139.41-20.87c-6.68-1-12.73,4.07-12.91,10.83l-2.85,107.84c-.15,5.68,3.96,10.58,9.58,11.42l111.13,16.64c5.53.83,10.83-2.53,12.44-7.89l31.13-103.61c1.97-6.56-2.33-13.35-9.11-14.36Z"/><path class="cls-2" d="M1227.26,843.63s9.59,37.12,31.28,4.68l-31.28-4.68Z"/><ellipse class="cls-26" cx="1207.64" cy="840.47" rx="6.14" ry="10.13" transform="translate(197.65 1910.37) rotate(-81.49)"/><ellipse class="cls-12" cx="1219.46" cy="829.02" rx="13.81" ry="10.02" transform="translate(219.04 1912.31) rotate(-81.49)"/><ellipse class="cls-1" cx="1219.93" cy="824.44" rx="7.53" ry="4.94" transform="translate(223.97 1908.86) rotate(-81.49)"/><ellipse class="cls-26" cx="1279.14" cy="851.52" rx="6.14" ry="10.13" transform="translate(175.85 1921.12) rotate(-77.76)"/><ellipse class="cls-12" cx="1268.39" cy="836.22" rx="13.81" ry="10.02" transform="translate(253.6 1966.83) rotate(-81.49)"/><ellipse class="cls-1" cx="1268.85" cy="831.64" rx="7.53" ry="4.94" transform="translate(258.53 1963.39) rotate(-81.49)"/><line class="cls-30" x1="1325.81" y1="611.18" x2="1334.5" y2="527.61"/><line class="cls-30" x1="1349.46" y1="689.32" x2="1385.1" y2="516.08"/></g></g></g></svg>