<?xml version="1.0" encoding="UTF-8"?><svg id="game_over" xmlns="http://www.w3.org/2000/svg" width="1920" height="1080" viewBox="0 0 1920 1080"><defs><style>.cls-1{fill:#fbb03b;stroke:#fbb03b;}.cls-1,.cls-2{stroke-miterlimit:10;}.cls-3{fill:#000;stroke-width:0px;}.cls-2{fill:#ff931e;stroke:#f15a24;stroke-linecap:round;stroke-width:4px;}</style></defs><g id="baggrund-3"><rect class="cls-1" y="-.5" width="1920" height="1081"/></g><g id="over"><polygon class="cls-2" points="641.5 434.52 691.21 504.19 641.5 628.78 641.5 434.52"/><polygon class="cls-2" points="789.08 407.3 737.91 522.32 794.8 644.64 789.08 407.3"/><path class="cls-2" d="M781.68,584.58c49.33,122.68-28.41,169.42-64.26,169.42s-101.91-50.63-65.56-169.42c0,0,20.05-65.94,35.92-115.5,4.72-14.74,5.89-27.53,9.23-37.2,1.31-3.79,10.03-62.11,11.89-62.11.73,0-.72.14,0,0,1.93-.38,40.71,134.88,42.29,138.76,16.88,41.54-2.28-5.45,30.49,76.06Z"/><path class="cls-3" d="M781.33,653.31c0,46.4-28.2,71-62.6,71s-60.6-27.6-60.6-68.4c0-42.8,26.6-70.8,62.6-70.8s60.6,28.2,60.6,68.2ZM676.73,655.51c0,28.8,15.6,54.6,43,54.6s43.2-25.4,43.2-56c0-26.8-14-54.8-43-54.8s-43.2,26.6-43.2,56.2Z"/><path class="cls-3" d="M868.73,722.11l-44-134.8h18.8l21,66.4c5.8,18.2,10.8,34.6,14.4,50.4h.4c3.8-15.6,9.4-32.6,15.4-50.2l22.8-66.6h18.6l-48.2,134.8h-19.2Z"/><path class="cls-3" d="M1062.92,658.91h-52.4v48.6h58.4v14.6h-75.8v-134.8h72.8v14.6h-55.4v42.6h52.4v14.4Z"/><path class="cls-3" d="M1133.92,589.11c8.8-1.8,21.4-2.8,33.4-2.8,18.6,0,30.6,3.4,39,11,6.8,6,10.6,15.2,10.6,25.6,0,17.8-11.2,29.6-25.4,34.4v.6c10.4,3.6,16.6,13.2,19.8,27.2,4.4,18.8,7.6,31.8,10.4,37h-18c-2.2-3.8-5.2-15.4-9-32.2-4-18.6-11.2-25.6-27-26.2h-16.4v58.4h-17.4v-133ZM1151.32,650.51h17.8c18.6,0,30.4-10.2,30.4-25.6,0-17.4-12.6-25-31-25.2-8.4,0-14.4.8-17.2,1.6v49.2Z"/></g><g id="game"><polygon class="cls-2" points="348.5 133.83 394.43 198.2 348.5 313.31 348.5 133.83"/><polygon class="cls-2" points="484.85 108.68 437.57 214.94 490.13 327.96 484.85 108.68"/><path class="cls-2" d="M478.01,272.47c45.58,113.35-26.25,156.53-59.37,156.53s-94.16-46.78-60.57-156.53c0,0,18.53-60.92,33.19-106.71,4.36-13.62,5.44-25.43,8.53-34.37,1.21-3.5,9.27-57.38,10.99-57.39.68,0-.66.13,0,0,1.79-.35,37.61,124.62,39.07,128.2,15.59,38.38-2.11-5.03,28.17,70.27Z"/><path class="cls-3" d="M305.86,374.93c-7.8,2.8-23.2,7.4-41.4,7.4-20.4,0-37.2-5.2-50.4-17.8-11.6-11.2-18.8-29.2-18.8-50.2.2-40.2,27.8-69.6,73-69.6,15.6,0,27.8,3.4,33.6,6.2l-4.2,14.2c-7.2-3.2-16.2-5.8-29.8-5.8-32.8,0-54.2,20.4-54.2,54.2s20.6,54.4,52,54.4c11.4,0,19.2-1.6,23.2-3.6v-40.2h-27.4v-14h44.4v64.8Z"/><path class="cls-3" d="M396.66,338.53l-14,42.4h-18l45.8-134.8h21l46,134.8h-18.6l-14.4-42.4h-47.8ZM440.86,324.93l-13.2-38.8c-3-8.8-5-16.8-7-24.6h-.4c-2,8-4.2,16.2-6.8,24.4l-13.2,39h40.6Z"/><path class="cls-3" d="M653.26,321.73c-1-18.8-2.2-41.4-2-58.2h-.6c-4.6,15.8-10.2,32.6-17,51.2l-23.8,65.4h-13.2l-21.8-64.2c-6.4-19-11.8-36.4-15.6-52.4h-.4c-.4,16.8-1.4,39.4-2.6,59.6l-3.6,57.8h-16.6l9.4-134.8h22.2l23,65.2c5.6,16.6,10.2,31.4,13.6,45.4h.6c3.4-13.6,8.2-28.4,14.2-45.4l24-65.2h22.2l8.4,134.8h-17l-3.4-59.2Z"/><path class="cls-3" d="M812.66,317.73h-52.4v48.6h58.4v14.6h-75.8v-134.8h72.8v14.6h-55.4v42.6h52.4v14.4Z"/></g></svg>