<?xml version="1.0" encoding="UTF-8"?><svg id="ilddark" xmlns="http://www.w3.org/2000/svg" width="80" height="180" viewBox="0 0 80 180"><defs><style>.cls-1{fill:#fff;}.cls-1,.cls-2,.cls-3,.cls-4,.cls-5{stroke-miterlimit:10;}.cls-1,.cls-3{stroke:#000;}.cls-2,.cls-4{stroke-linecap:round;}.cls-2,.cls-4,.cls-5{stroke:#ff931e;stroke-width:4px;}.cls-2,.cls-5{fill:#f15a24;}.cls-3{fill:#000;}.cls-4{fill:#ff931e;}</style></defs><g id="ilddark-2"><polygon class="cls-2" points="69.63 22.96 47.4 72.93 72.12 126.07 69.63 22.96"/><polygon class="cls-2" points="5.52 34.78 27.11 65.05 5.52 119.18 5.52 34.78"/><path class="cls-2" d="M66.42,99.98c21.43,53.3-12.34,73.61-27.92,73.61S-5.78,151.59,10.01,99.98c0,0,8.71-28.65,15.61-50.18,2.05-6.4,2.56-11.96,4.01-16.16.57-1.65,4.36-26.98,5.17-26.99.32,0-.31.06,0,0,.84-.17,17.69,58.6,18.37,60.29,7.33,18.05-.99-2.37,13.25,33.04Z"/><path class="cls-5" d="M33.57,150.9s6.59-10.65,13.04,0"/><ellipse class="cls-4" cx="59.16" cy="142.98" rx="5.58" ry="3.38"/><ellipse class="cls-4" cx="19.65" cy="143.09" rx="5.58" ry="3.38"/><ellipse class="cls-3" cx="54.57" cy="138.17" rx="4.6" ry="6.34"/><ellipse class="cls-1" cx="54.47" cy="136.06" rx="2.27" ry="3.46"/><ellipse class="cls-3" cx="24.29" cy="137.53" rx="4.6" ry="6.34"/><ellipse class="cls-1" cx="24.19" cy="135.42" rx="2.27" ry="3.46"/></g></svg>