<?xml version="1.0" encoding="UTF-8"?><svg id="ildlys" xmlns="http://www.w3.org/2000/svg" width="80" height="180" viewBox="0 0 80 180"><defs><style>.cls-1,.cls-2{stroke:#000;}.cls-1,.cls-2,.cls-3,.cls-4,.cls-5{stroke-miterlimit:10;}.cls-1,.cls-5{fill:#fff;}.cls-2{fill:#000;}.cls-3{fill:#ff931e;}.cls-3,.cls-4{stroke-linecap:round;stroke-width:4px;}.cls-3,.cls-4,.cls-5{stroke:#ff931e;}.cls-4{fill:#fbb03b;}.cls-5{stroke-width:3px;}</style></defs><g id="ildlys-2"><polygon class="cls-4" points="6.12 34.24 27.71 64.51 6.12 118.64 6.12 34.24"/><polygon class="cls-4" points="70.23 22.41 48 72.38 72.72 125.53 70.23 22.41"/><path class="cls-4" d="M67.02,99.43c21.43,53.3-12.34,73.61-27.92,73.61S-5.18,151.04,10.62,99.43c0,0,8.71-28.65,15.61-50.18,2.05-6.4,2.56-11.96,4.01-16.16.57-1.65,4.36-26.98,5.17-26.99.32,0-.31.06,0,0,.84-.17,17.69,58.6,18.37,60.29,7.33,18.05-.99-2.37,13.25,33.04Z"/><path class="cls-5" d="M50.24,154.99s-8.24-19.41-17.4,0h17.4Z"/><ellipse class="cls-3" cx="20.58" cy="146.67" rx="5.58" ry="3.38"/><ellipse class="cls-2" cx="25.53" cy="140.29" rx="4.6" ry="6.34"/><ellipse class="cls-1" cx="25.43" cy="138.18" rx="2.27" ry="3.46"/><ellipse class="cls-3" cx="61.55" cy="145.24" rx="5.58" ry="3.38"/><ellipse class="cls-2" cx="55.82" cy="140.1" rx="4.6" ry="6.34"/><ellipse class="cls-1" cx="55.72" cy="137.99" rx="2.27" ry="3.46"/></g></svg>