<?xml version="1.0" encoding="UTF-8"?><svg id="ildmid" xmlns="http://www.w3.org/2000/svg" width="80" height="180" viewBox="0 0 80 180"><defs><style>.cls-1,.cls-2{stroke:#000;}.cls-1,.cls-2,.cls-3,.cls-4,.cls-5{stroke-miterlimit:10;}.cls-1,.cls-3{fill:#fff;}.cls-2{fill:#000;}.cls-3{stroke-width:3px;}.cls-3,.cls-4,.cls-5{stroke:#f15a24;}.cls-4{fill:#f15a24;}.cls-4,.cls-5{stroke-linecap:round;stroke-width:4px;}.cls-5{fill:#ff931e;}</style></defs><g id="ildmidt"><polygon class="cls-5" points="6.35 34.34 27.95 64.61 6.35 118.74 6.35 34.34"/><polygon class="cls-5" points="70.47 22.51 48.24 72.48 72.96 125.63 70.47 22.51"/><path class="cls-5" d="M67.26,99.53c21.43,53.3-12.34,73.61-27.92,73.61S-4.94,151.14,10.85,99.53c0,0,8.71-28.65,15.61-50.18,2.05-6.4,2.56-11.96,4.01-16.16.57-1.65,4.36-26.98,5.17-26.99.32,0-.31.06,0,0,.84-.17,17.69,58.6,18.37,60.29,7.33,18.05-.99-2.37,13.25,33.04Z"/><ellipse class="cls-4" cx="22.46" cy="143.47" rx="5.58" ry="3.38"/><ellipse class="cls-4" cx="60.96" cy="143.68" rx="5.58" ry="3.38"/><ellipse class="cls-2" cx="27.18" cy="139.09" rx="4.6" ry="6.34"/><ellipse class="cls-1" cx="27.08" cy="136.97" rx="2.27" ry="3.46"/><path class="cls-3" d="M49.95,153.56s-8.24-19.41-17.4,0h17.4Z"/><ellipse class="cls-2" cx="56.62" cy="139.37" rx="4.6" ry="6.34"/><ellipse class="cls-1" cx="56.52" cy="137.25" rx="2.27" ry="3.46"/></g></svg>