<?xml version="1.0" encoding="UTF-8"?><svg id="kande" xmlns="http://www.w3.org/2000/svg" width="140" height="140" viewBox="0 0 140 140"><defs><style>.cls-1{fill:#73ccff;}.cls-1,.cls-2{stroke:#29abe2;stroke-miterlimit:10;stroke-width:3px;}.cls-3{fill:#f9f0e1;stroke-width:0px;}.cls-2{fill:none;}</style></defs><rect class="cls-3" x="-8.25" width="157" height="62"/><path class="cls-1" d="M86.3,10.65c-20.29,0-37.44,22.05-43.04,52.35,2.64-.5,5.27-1.18,7.92-1.86,5.63-22.78,19.23-38.85,35.12-38.85s29.2,15.71,34.94,38.08c2.51-.14,5.01-.25,7.51-.32-6.15-28.76-22.82-49.4-42.45-49.4Z"/><rect class="cls-3" x="-1.25" y="132" width="149" height="10"/><rect class="cls-3" x="-5.25" y="60" width="46" height="70"/><path class="cls-1" d="M42.76,65.54c0-.4.03-.81.06-1.22.25-2.83,2.24-4.71,4.93-4.8L9.8,26.98c-1.36-1.16-3.43-1.04-4.64.27l-1.83,2c-1.2,1.31-1.08,3.32.28,4.48l38.79,33.27c.03-.51.16-1,.36-1.46Z"/><rect class="cls-3" x="130.75" y="61" width="18" height="71"/><rect class="cls-3" x="-7.47" y="70.52" width="54.26" height="70" transform="translate(-13.16 3.32) rotate(-7.25)"/><rect class="cls-3" x="127.41" y="70.26" width="46" height="70" transform="translate(18.51 -22.43) rotate(9.09)"/><path class="cls-2" d="M125.93,61.13H48.25c-3.72,0-6.61,3.26-6.15,6.96l7.25,59.01c.38,3.11,3.02,5.44,6.15,5.44h61.92c3.08,0,5.7-2.26,6.14-5.31l8.51-59.01c.54-3.74-2.36-7.09-6.14-7.09Z"/></svg>