<?xml version="1.0" encoding="UTF-8"?><svg id="replaysu" xmlns="http://www.w3.org/2000/svg" width="480" height="180" viewBox="0 0 480 180"><defs><style>.cls-1{stroke:#000;stroke-width:3px;}.cls-1,.cls-2{stroke-miterlimit:10;}.cls-1,.cls-3{fill:#000;}.cls-2{fill:#159eff;stroke:#0071bc;stroke-width:15px;}.cls-3{stroke-width:0px;}</style></defs><rect class="cls-2" x="8.48" y="10.26" width="463.05" height="159.47" rx="44.75" ry="44.75"/><path class="cls-1" d="M50.42,54.82c4.17-.94,10.13-1.46,15.82-1.46,8.81,0,14.49,1.77,18.47,5.72,3.22,3.12,5.02,7.9,5.02,13.31,0,9.25-5.3,15.39-12.03,17.88v.31c4.92,1.87,7.86,6.86,9.38,14.14,2.08,9.77,3.6,16.53,4.92,19.24h-8.52c-1.04-1.98-2.46-8.01-4.26-16.74-1.89-9.67-5.3-13.31-12.79-13.62h-7.77v30.36h-8.24V54.82ZM58.66,86.74h8.43c8.81,0,14.4-5.3,14.4-13.31,0-9.05-5.97-13-14.68-13.1-3.98,0-6.82.42-8.15.83v25.58Z"/><path class="cls-1" d="M154.5,91.11h-24.81v25.27h27.66v7.59h-35.9V53.88h34.47v7.59h-26.23v22.15h24.81v7.49Z"/><path class="cls-1" d="M188.12,54.72c3.98-.73,9.19-1.35,15.82-1.35,8.15,0,14.11,2.08,17.9,5.82,3.5,3.33,5.59,8.42,5.59,14.66s-1.7,11.33-4.92,14.97c-4.36,5.09-11.46,7.69-19.51,7.69-2.46,0-4.74-.1-6.63-.62v28.07h-8.24V54.72ZM196.36,88.51c1.8.52,4.07.73,6.82.73,9.95,0,16.01-5.3,16.01-14.97s-5.97-13.72-15.06-13.72c-3.6,0-6.35.31-7.77.73v27.24Z"/><path class="cls-1" d="M258.58,53.88h8.24v62.49h27.28v7.59h-35.52V53.88Z"/><path class="cls-1" d="M333.68,101.92l-6.63,22.04h-8.52l21.69-70.08h9.94l21.78,70.08h-8.81l-6.82-22.04h-22.64ZM354.61,94.85l-6.25-20.17c-1.42-4.58-2.37-8.73-3.32-12.79h-.19c-.95,4.16-1.99,8.42-3.22,12.68l-6.25,20.27h19.23Z"/><path class="cls-1" d="M411.25,123.96v-29.74l-20.17-40.34h9.38l9,19.34c2.46,5.3,4.36,9.57,6.35,14.45h.19c1.8-4.57,3.98-9.15,6.44-14.45l9.19-19.34h9.38l-21.41,40.24v29.84h-8.33Z"/><path class="cls-3" d="M43.22,136.96v-5.2h397.86v5.2H43.22Z"/></svg>