<?xml version="1.0" encoding="UTF-8"?><svg id="kande" xmlns="http://www.w3.org/2000/svg" width="140" height="140" viewBox="0 0 140 140"><defs><style>.cls-1{fill:#d7f5ff;}.cls-1,.cls-2,.cls-3{stroke:#29abe2;stroke-miterlimit:10;stroke-width:3px;}.cls-2{fill:#73ccff;}.cls-3{fill:none;}</style></defs><circle class="cls-1" cx="73.08" cy="70" r="59"/><path class="cls-2" d="M81.08,35.24c.02-.87-1.15-1.33-1.86-.73l-29.93,25.09h-16.61c-.61,0-1.1.44-1.1.98v17.78c0,.54.49.98,1.1.98h15.51l29.44,26.37c.69.61,1.86.19,1.88-.67l1.56-69.8Z"/><path class="cls-3" d="M89.67,84.55c.86-1.06,9.99-15.23.6-29.41"/><path class="cls-3" d="M98.2,90.41c1.17-1.44,13.59-20.71.81-40"/><path class="cls-3" d="M107.64,95.41c1.46-1.79,16.87-25.71,1.01-49.64"/></svg>