<?xml version="1.0" encoding="UTF-8"?><svg xmlns="http://www.w3.org/2000/svg" width="1920" height="1080" xmlns:xlink="http://www.w3.org/1999/xlink" viewBox="0 0 1920 1080"><defs><style>.cls-1,.cls-2,.cls-3,.cls-4,.cls-5,.cls-6,.cls-7,.cls-8,.cls-9,.cls-10,.cls-11,.cls-12,.cls-13,.cls-14,.cls-15,.cls-16,.cls-17,.cls-18,.cls-19,.cls-20,.cls-21,.cls-22,.cls-23,.cls-24,.cls-25,.cls-26,.cls-27,.cls-28,.cls-29,.cls-30,.cls-31,.cls-32,.cls-33,.cls-34,.cls-35,.cls-36,.cls-37,.cls-38,.cls-39,.cls-40,.cls-41,.cls-42,.cls-43,.cls-44,.cls-45,.cls-46,.cls-47,.cls-48,.cls-49{stroke-miterlimit:10;}.cls-1,.cls-2,.cls-9,.cls-10,.cls-18,.cls-21,.cls-25,.cls-33,.cls-46,.cls-48{fill:#fff;}.cls-1,.cls-11{stroke:#000;}.cls-2,.cls-3,.cls-5,.cls-8,.cls-9,.cls-10,.cls-13,.cls-14,.cls-15,.cls-17,.cls-18,.cls-21,.cls-22,.cls-23,.cls-25,.cls-26,.cls-30,.cls-31,.cls-33,.cls-35,.cls-37,.cls-41,.cls-45,.cls-46,.cls-47,.cls-48,.cls-49{stroke-width:3px;}.cls-2,.cls-26,.cls-28{stroke:#ffdc00;}.cls-3{fill:#efc5ca;}.cls-3,.cls-10,.cls-38{stroke:#ce91b3;}.cls-4,.cls-6,.cls-7,.cls-12,.cls-16,.cls-19,.cls-20,.cls-24,.cls-27,.cls-28,.cls-29,.cls-32,.cls-34,.cls-36,.cls-38,.cls-39,.cls-40,.cls-43,.cls-44{stroke-width:4px;}.cls-4,.cls-6,.cls-7,.cls-12,.cls-19,.cls-20,.cls-24,.cls-27,.cls-28,.cls-29,.cls-36,.cls-38,.cls-40,.cls-43,.cls-44{stroke-linecap:round;}.cls-4,.cls-8,.cls-17,.cls-39,.cls-41,.cls-44,.cls-48{stroke:#29abe2;}.cls-4,.cls-17,.cls-39{fill:#73ccff;}.cls-5{fill:#a67c52;}.cls-5,.cls-25,.cls-40{stroke:#8c6239;}.cls-6,.cls-19,.cls-29,.cls-33,.cls-34{stroke:#ff931e;}.cls-6,.cls-34,.cls-36{fill:#f15a24;}.cls-7{fill:#0077d4;}.cls-7,.cls-21,.cls-27{stroke:#0077d4;}.cls-8{fill:#d7f5ff;}.cls-9,.cls-20,.cls-24,.cls-32{stroke:#1b1464;}.cls-11{fill:#000;}.cls-12{fill:#998675;}.cls-12,.cls-37,.cls-46{stroke:#998675;}.cls-13,.cls-30,.cls-41{fill:none;}.cls-13,.cls-35{stroke:#ccb593;}.cls-14{fill:#846b49;}.cls-14,.cls-45{stroke:#4f3f29;}.cls-50{fill:#fafeff;}.cls-50,.cls-51{stroke-width:0px;}.cls-15{fill:#39b54a;}.cls-15,.cls-31{stroke:#009245;}.cls-16,.cls-18,.cls-36,.cls-43{stroke:#f15a24;}.cls-16,.cls-19,.cls-43{fill:#ff931e;}.cls-20,.cls-32{fill:#0071bc;}.cls-22,.cls-30,.cls-42{stroke:#006837;}.cls-22,.cls-42{fill:#009245;}.cls-23{fill:#bbe4ff;}.cls-23,.cls-49{stroke:#159eff;}.cls-24{fill:#1b1464;}.cls-26,.cls-31{fill:#feffbf;}.cls-27,.cls-49{fill:#159eff;}.cls-28{fill:#ffdc00;}.cls-29{fill:#fbb03b;}.cls-52{mix-blend-mode:darken;opacity:.75;}.cls-53{opacity:.6;}.cls-51{fill:#e2e2e2;}.cls-35{fill:#f9f0e1;}.cls-37{fill:#c7b299;}.cls-38{fill:#ce91b3;}.cls-40{fill:#8c6239;}.cls-54{isolation:isolate;}.cls-42{stroke-width:5px;}.cls-44{fill:#29abe2;}.cls-45{fill:#4f3f29;}.cls-47{fill:#ff0043;stroke:#c90027;}</style></defs><g class="cls-54"><g id="spilside"><g id="baggrund-4"><rect class="cls-50" x="12" width="313.07" height="536"/><path class="cls-51" d="M323.07,2v532H14V2h309.07M327.07-2H10v540h317.07V-2h0Z"/><rect class="cls-50" x="329.07" width="313.07" height="536"/><path class="cls-51" d="M640.13,2v532h-309.07V2h309.07M644.13-2h-317.07v540h317.07V-2h0Z"/><rect class="cls-50" x="646.13" width="313.07" height="536"/><path class="cls-51" d="M957.2,2v532h-309.07V2h309.07M961.2-2h-317.07v540h317.07V-2h0Z"/><rect class="cls-50" x="963.2" width="313.07" height="536"/><path class="cls-51" d="M1274.27,2v532h-309.07V2h309.07M1278.27-2h-317.07v540h317.07V-2h0Z"/><rect class="cls-50" x="963.2" y="540" width="313.07" height="536"/><path class="cls-51" d="M1274.27,542v532h-309.07v-532h309.07M1278.27,538h-317.07v540h317.07v-540h0Z"/><rect class="cls-50" x="1280.27" width="313.07" height="536"/><path class="cls-51" d="M1591.33,2v532h-309.07V2h309.07M1595.33-2h-317.07v540h317.07V-2h0Z"/><rect class="cls-50" x="1280.27" y="540" width="313.07" height="536"/><path class="cls-51" d="M1591.33,542v532h-309.07v-532h309.07M1595.33,538h-317.07v540h317.07v-540h0Z"/><rect class="cls-50" x="1597.33" width="313.07" height="536"/><path class="cls-51" d="M1908.4,2v532h-309.07V2h309.07M1912.4-2h-317.07v540h317.07V-2h0Z"/><rect class="cls-50" x="1597.33" y="540" width="313.07" height="536"/><path class="cls-51" d="M1908.4,542v532h-309.07v-532h309.07M1912.4,538h-317.07v540h317.07v-540h0Z"/><rect class="cls-50" x="646.13" y="540" width="313.07" height="536"/><path class="cls-51" d="M957.2,542v532h-309.07v-532h309.07M961.2,538h-317.07v540h317.07v-540h0Z"/><rect class="cls-50" x="329.07" y="540" width="313.07" height="536"/><path class="cls-51" d="M640.13,542v532h-309.07v-532h309.07M644.13,538h-317.07v540h317.07v-540h0Z"/><rect class="cls-50" x="12" y="540" width="313.07" height="536"/><path class="cls-51" d="M323.07,542v532H14v-532h309.07M327.07,538H10v540h317.07v-540h0Z"/><path class="cls-35" d="M126.82,1080C117.51,857.84,1.72,678.36,1.72,678.36,63.98,769.52,439,0,439,0H1.72v1080h125.1Z"/><rect class="cls-45" x="-10.5" y="677.5" width="47.71" height="29" rx="11.57" ry="11.57"/><path class="cls-13" d="M254.82,187.5c29.09,12-231.07,490-231.07,490,0,0,160.08-453,147.28-453"/><path class="cls-13" d="M2.96,677.5s86.62-368,65.67-382"/><path class="cls-13" d="M37.43,1080C29.5,732.5,2.96,706.5,2.96,706.5c0,0,43.11,121,68.94,373.5"/><path class="cls-13" d="M103.97,1080c-29.83-251.5-90.62-373.5-90.62-373.5"/><path class="cls-35" d="M1785.98,1079.91c9.9-222.16,133.03-401.64,133.03-401.64C1852.8,769.43,1454-.09,1454-.09h465.01v1080h-133.03Z"/><path class="cls-13" d="M1649.85,187.41c-30.94,12,245.72,490,245.72,490,0,0-170.23-453-156.62-453"/><path class="cls-13" d="M1917.69,677.41s-92.11-368-69.84-382"/><path class="cls-13" d="M1881.03,1079.91c8.43-347.5,36.66-373.5,36.66-373.5,0,0-45.85,121-73.31,373.5"/><path class="cls-13" d="M1810.27,1079.91c31.72-251.5,96.36-373.5,96.36-373.5"/><rect class="cls-45" x="1881.26" y="677.41" width="50.74" height="29" rx="11.57" ry="11.57" transform="translate(3813.26 1383.82) rotate(180)"/><rect class="cls-14" x="123.5" y="1046.5" width="1672" height="34"/></g><g id="dråber_ild"><g id="_åben_mund"><path class="cls-20" d="M1281.2,507.67c17.78,44.21-10.24,61.05-23.16,61.05s-36.72-18.25-23.63-61.05c0,0,12.16-40,17.42-55.21.47-1.37,2.49-9.35,3.17-9.35.26,0-.26.05,0,0,.7-.14,9.72,25.03,10.29,26.43,6.08,14.97,4.1,8.76,15.91,38.13Z"/><ellipse class="cls-24" cx="1244.71" cy="545.85" rx="4.63" ry="2.81"/><ellipse class="cls-11" cx="1247.66" cy="540.66" rx="3.81" ry="5.19"/><ellipse class="cls-1" cx="1247.58" cy="538.93" rx="1.88" ry="2.83"/><ellipse class="cls-24" cx="1275.29" cy="546.13" rx="4.63" ry="2.81"/><ellipse class="cls-11" cx="1271.53" cy="540.59" rx="3.82" ry="5.26"/><ellipse class="cls-1" cx="1271.45" cy="538.84" rx="1.88" ry="2.87"/><path class="cls-9" d="M1252.84,546.16s6.83,16.1,14.43,0h-14.43Z"/></g><g id="lukket_mund"><path class="cls-20" d="M740.23,610.29c17.78,44.21-10.24,61.05-23.16,61.05s-36.72-18.25-23.63-61.05c0,0,12.16-40,17.42-55.21.47-1.37,2.49-9.35,3.17-9.35.26,0-.26.05,0,0,.7-.14,9.72,25.03,10.29,26.43,6.08,14.97,4.1,8.76,15.91,38.13Z"/><ellipse class="cls-24" cx="703.75" cy="648.47" rx="4.63" ry="2.81"/><ellipse class="cls-11" cx="706.7" cy="643.28" rx="3.81" ry="5.19"/><ellipse class="cls-1" cx="706.61" cy="641.55" rx="1.88" ry="2.83"/><ellipse class="cls-24" cx="734.33" cy="648.75" rx="4.63" ry="2.81"/><ellipse class="cls-11" cx="730.57" cy="643.21" rx="3.82" ry="5.26"/><ellipse class="cls-1" cx="730.49" cy="641.46" rx="1.88" ry="2.87"/><path class="cls-32" d="M724.55,648.38s-5.46,8.84-10.81,0"/></g><g id="_åben_mund-2"><path class="cls-27" d="M884.19,861.95c17.78,44.21-10.24,61.05-23.16,61.05s-36.72-18.25-23.63-61.05c0,0,12.16-40,17.42-55.21.47-1.37,2.49-9.35,3.17-9.35.26,0-.26.05,0,0,.7-.14,9.72,25.03,10.29,26.43,6.08,14.97,4.1,8.76,15.91,38.13Z"/><ellipse class="cls-7" cx="847.7" cy="900.13" rx="4.63" ry="2.81"/><ellipse class="cls-11" cx="850.65" cy="894.94" rx="3.81" ry="5.19"/><ellipse class="cls-1" cx="850.57" cy="893.21" rx="1.88" ry="2.83"/><ellipse class="cls-7" cx="878.28" cy="900.42" rx="4.63" ry="2.81"/><ellipse class="cls-11" cx="874.52" cy="894.87" rx="3.82" ry="5.26"/><ellipse class="cls-1" cx="874.44" cy="893.12" rx="1.88" ry="2.87"/><path class="cls-21" d="M855.48,899.4s6.83,16.1,14.43,0h-14.43Z"/></g><g id="lukket_mund-2"><path class="cls-4" d="M982.03,169.36c17.78,44.21-10.24,61.05-23.16,61.05s-36.72-18.25-23.63-61.05c0,0,12.16-40,17.42-55.21.47-1.37,2.49-9.35,3.17-9.35.26,0-.26.05,0,0,.7-.14,9.72,25.03,10.29,26.43,6.08,14.97,4.1,8.76,15.91,38.13Z"/><ellipse class="cls-44" cx="945.54" cy="207.55" rx="4.63" ry="2.81"/><ellipse class="cls-11" cx="948.49" cy="202.36" rx="3.81" ry="5.19"/><ellipse class="cls-1" cx="948.4" cy="200.63" rx="1.88" ry="2.83"/><ellipse class="cls-44" cx="976.12" cy="207.83" rx="4.63" ry="2.81"/><ellipse class="cls-11" cx="972.36" cy="202.29" rx="3.82" ry="5.26"/><ellipse class="cls-1" cx="972.28" cy="200.54" rx="1.88" ry="2.87"/><path class="cls-39" d="M965.69,207.25s-5.46,8.84-10.81,0"/></g><g id="_åben_mund-3"><path class="cls-4" d="M1020.48,575.79c17.78,44.21-10.24,61.05-23.16,61.05s-36.72-18.25-23.63-61.05c0,0,12.16-40,17.42-55.21.47-1.37,2.49-9.35,3.17-9.35.26,0-.26.05,0,0,.7-.14,9.72,25.03,10.29,26.43,6.08,14.97,4.1,8.76,15.91,38.13Z"/><path class="cls-48" d="M991.99,614.11s6.83,16.1,14.43,0h-14.43Z"/><ellipse class="cls-44" cx="984" cy="613.97" rx="4.63" ry="2.81"/><ellipse class="cls-11" cx="986.94" cy="608.78" rx="3.81" ry="5.19"/><ellipse class="cls-1" cx="986.86" cy="607.05" rx="1.88" ry="2.83"/><ellipse class="cls-44" cx="1014.58" cy="614.25" rx="4.63" ry="2.81"/><ellipse class="cls-11" cx="1010.82" cy="608.71" rx="3.82" ry="5.26"/><ellipse class="cls-1" cx="1010.74" cy="606.96" rx="1.88" ry="2.87"/></g><g id="_åben_mund-4"><polygon class="cls-6" points="661.36 190.49 679.27 215.59 661.36 260.49 661.36 190.49"/><polygon class="cls-6" points="714.54 180.68 696.1 222.12 716.6 266.2 714.54 180.68"/><path class="cls-6" d="M711.87,244.56c17.78,44.21-10.24,61.05-23.16,61.05s-36.72-18.25-23.63-61.05c0,0,7.23-23.76,12.95-41.62,1.7-5.31,2.12-9.92,3.33-13.41.47-1.37,3.61-22.38,4.29-22.38.26,0-.26.05,0,0,.7-.14,14.67,48.6,15.24,50,6.08,14.97-.82-1.96,10.99,27.41Z"/><ellipse class="cls-19" cx="705.82" cy="281.87" rx="4.63" ry="2.81"/><ellipse class="cls-19" cx="672.51" cy="282.37" rx="4.63" ry="2.81"/><path class="cls-33" d="M696.16,289.82s-6.83-16.1-14.43,0h14.43Z"/><ellipse class="cls-11" cx="701.75" cy="276.92" rx="3.82" ry="5.26"/><ellipse class="cls-1" cx="701.66" cy="275.17" rx="1.88" ry="2.87"/><ellipse class="cls-11" cx="676.63" cy="277.08" rx="3.82" ry="5.26"/><ellipse class="cls-1" cx="676.54" cy="275.33" rx="1.88" ry="2.87"/></g><g id="lukket_mund-3"><polygon class="cls-6" points="1129.72 378.3 1111.28 419.75 1131.78 463.83 1129.72 378.3"/><polygon class="cls-6" points="1076.54 388.11 1094.45 413.22 1076.54 458.11 1076.54 388.11"/><path class="cls-6" d="M1127.05,442.18c17.78,44.21-10.24,61.05-23.16,61.05s-36.72-18.25-23.63-61.05c0,0,7.23-23.76,12.95-41.62,1.7-5.31,2.12-9.92,3.33-13.41.47-1.37,3.61-22.38,4.29-22.38.26,0-.26.05,0,0,.7-.14,14.67,48.6,15.24,50,6.08,14.97-.82-1.96,10.99,27.41Z"/><path class="cls-34" d="M1099.8,484.43s5.46-8.84,10.81,0"/><ellipse class="cls-19" cx="1121.03" cy="477.85" rx="4.63" ry="2.81"/><ellipse class="cls-19" cx="1088.27" cy="477.94" rx="4.63" ry="2.81"/><ellipse class="cls-11" cx="1117.23" cy="473.86" rx="3.82" ry="5.26"/><ellipse class="cls-1" cx="1117.15" cy="472.11" rx="1.88" ry="2.87"/><ellipse class="cls-11" cx="1092.11" cy="473.34" rx="3.82" ry="5.26"/><ellipse class="cls-1" cx="1092.03" cy="471.58" rx="1.88" ry="2.87"/></g><g id="_åben_mund-5"><polygon class="cls-43" points="1192.69 850.9 1210.6 876.01 1192.69 920.91 1192.69 850.9"/><polygon class="cls-43" points="1245.87 841.09 1227.43 882.54 1247.93 926.62 1245.87 841.09"/><path class="cls-43" d="M1243.2,904.98c17.78,44.21-10.24,61.05-23.16,61.05s-36.72-18.25-23.63-61.05c0,0,7.23-23.76,12.95-41.62,1.7-5.31,2.12-9.92,3.33-13.41.47-1.37,3.61-22.38,4.29-22.38.26,0-.26.05,0,0,.7-.14,14.67,48.6,15.24,50,6.08,14.97-.82-1.96,10.99,27.41Z"/><ellipse class="cls-36" cx="1206.05" cy="941.42" rx="4.63" ry="2.81"/><ellipse class="cls-36" cx="1237.98" cy="941.6" rx="4.63" ry="2.81"/><ellipse class="cls-11" cx="1209.97" cy="937.79" rx="3.82" ry="5.26"/><ellipse class="cls-1" cx="1209.88" cy="936.03" rx="1.88" ry="2.87"/><path class="cls-18" d="M1228.85,949.79s-6.83-16.1-14.43,0h14.43Z"/><ellipse class="cls-11" cx="1234.38" cy="938.02" rx="3.82" ry="5.26"/><ellipse class="cls-1" cx="1234.3" cy="936.26" rx="1.88" ry="2.87"/></g><g id="lukket_mund-4"><polygon class="cls-43" points="805.16 337.32 823.08 362.42 805.16 407.32 805.16 337.32"/><polygon class="cls-43" points="858.34 327.51 839.9 368.95 860.41 413.04 858.34 327.51"/><path class="cls-43" d="M855.68,391.39c17.78,44.21-10.24,61.05-23.16,61.05s-36.72-18.25-23.63-61.05c0,0,7.23-23.76,12.95-41.62,1.7-5.31,2.12-9.92,3.33-13.41.47-1.37,3.61-22.38,4.29-22.38.26,0-.26.05,0,0,.7-.14,14.67,48.6,15.24,50,6.08,14.97-.82-1.96,10.99,27.41Z"/><ellipse class="cls-36" cx="818.11" cy="430.57" rx="4.63" ry="2.81"/><ellipse class="cls-36" cx="847.45" cy="430.48" rx="4.63" ry="2.81"/><path class="cls-16" d="M827.59,437.05s5.46-8.84,10.81,0"/><ellipse class="cls-11" cx="822.11" cy="425.78" rx="3.82" ry="5.26"/><ellipse class="cls-1" cx="822.03" cy="424.02" rx="1.88" ry="2.87"/><ellipse class="cls-11" cx="843.72" cy="425.78" rx="3.82" ry="5.26"/><ellipse class="cls-1" cx="843.64" cy="424.02" rx="1.88" ry="2.87"/></g><g id="_åben_mund-6"><polygon class="cls-29" points="1306.43 105.76 1324.34 130.87 1306.43 175.77 1306.43 105.76"/><polygon class="cls-29" points="1359.61 95.96 1341.17 137.4 1361.67 181.48 1359.61 95.96"/><path class="cls-29" d="M1356.94,159.84c17.78,44.21-10.24,61.05-23.16,61.05s-36.72-18.25-23.63-61.05c0,0,7.23-23.76,12.95-41.62,1.7-5.31,2.12-9.92,3.33-13.41.47-1.37,3.61-22.38,4.29-22.38.26,0-.26.05,0,0,.7-.14,14.67,48.6,15.24,50,6.08,14.97-.82-1.96,10.99,27.41Z"/><path class="cls-33" d="M1343.02,205.92s-6.83-16.1-14.43,0h14.43Z"/><ellipse class="cls-19" cx="1318.42" cy="199.02" rx="4.63" ry="2.81"/><ellipse class="cls-11" cx="1322.53" cy="193.73" rx="3.82" ry="5.26"/><ellipse class="cls-1" cx="1322.45" cy="191.97" rx="1.88" ry="2.87"/><ellipse class="cls-19" cx="1352.41" cy="197.83" rx="4.63" ry="2.81"/><ellipse class="cls-11" cx="1347.65" cy="193.57" rx="3.82" ry="5.26"/><ellipse class="cls-1" cx="1347.57" cy="191.82" rx="1.88" ry="2.87"/></g></g><g id="UI_elementer"><path class="cls-47" d="M256.51,124.32l-43.06-44.49c-33.96-35.09,10.54-78.15,44.49-43.06,33.52-32.45,76.59,12.05,43.06,44.49l-44.49,43.06Z"/><path class="cls-4" d="M155.04,92.84c39.98,51.03-23.03,70.47-52.08,70.47s-82.59-21.06-53.13-70.47c0,0,27.36-46.17,39.17-63.73,1.06-1.58,5.61-10.79,7.12-10.79.59,0-.58.06,0,0,1.57-.16,21.87,28.9,23.15,30.51,13.68,17.28,9.21,10.11,35.77,44.01Z"/><rect class="cls-23" x="1755.24" y="30.74" width="9.91" height="74.01" rx="4.02" ry="4.02" transform="translate(541.35 1339.48) rotate(-48.42)"/><path class="cls-23" d="M1819.66,26.45c-21.91,0-40.42,23.66-46.47,56.17,2.85-.53,5.69-1.27,8.55-2,6.07-24.44,20.76-41.69,37.92-41.69s31.53,16.85,37.73,40.86c2.71-.15,5.41-.27,8.11-.34-6.64-30.86-24.64-53-45.83-53Z"/><path class="cls-23" d="M1860.79,76.67h-83.11c-3.98,0-7.07,3.49-6.58,7.44l7.75,63.13c.41,3.33,3.23,5.82,6.58,5.82h66.25c3.3,0,6.09-2.42,6.56-5.69l9.1-63.13c.58-4-2.52-7.58-6.56-7.58Z"/><path class="cls-49" d="M1772.34,96.11l6.39,52.06c.41,3.33,3.23,5.82,6.58,5.82h66.25c3.3,0,6.09-2.42,6.56-5.69l7.6-52.7c-31.23,1.38-62.1.16-93.39.5Z"/></g><g id="planter"><path class="cls-15" d="M1558.46,854.08c-12.52,0-22.67,66.4-22.67,148.3,0,1.37,0,2.73,0,4.09,15.07-.08,30.15.05,45.31.96,0-1.68.01-3.36.01-5.05,0-81.9-10.15-148.3-22.67-148.3Z"/><path class="cls-15" d="M1509.64,783.31c-18.28,0-33.1,96.95-33.1,216.55,0,2,0,3.99.01,5.97,22.01-.12,44.03.08,66.16,1.41.01-2.45.02-4.91.02-7.37,0-119.6-14.82-216.55-33.1-216.55Z"/><line class="cls-31" x1="1487.81" y1="805.85" x2="1498.02" y2="816.76"/><line class="cls-31" x1="1492.74" y1="793.51" x2="1503.3" y2="802.58"/><line class="cls-31" x1="1483.54" y1="818.52" x2="1492.74" y2="834.72"/><line class="cls-31" x1="1509.64" y1="776.27" x2="1509.64" y2="791.41"/><line class="cls-31" x1="1525.49" y1="792.11" x2="1515.92" y2="802.58"/><line class="cls-31" x1="1530.49" y1="805.46" x2="1520.96" y2="816.76"/><line class="cls-31" x1="1568.2" y1="854.08" x2="1565.28" y2="868.52"/><line class="cls-31" x1="1575" y1="868.52" x2="1565.28" y2="877.79"/><line class="cls-31" x1="1532.9" y1="816.96" x2="1526.83" y2="834.29"/><line class="cls-31" x1="1558.46" y1="844.45" x2="1558.46" y2="856.96"/><line class="cls-31" x1="1549.08" y1="853.73" x2="1552.6" y2="867.82"/><line class="cls-31" x1="1542.74" y1="868.52" x2="1553.37" y2="877.79"/><line class="cls-31" x1="1482.22" y1="843.39" x2="1492.44" y2="854.31"/><line class="cls-31" x1="1477.95" y1="856.07" x2="1487.15" y2="872.26"/><line class="cls-31" x1="1477.13" y1="880.52" x2="1487.34" y2="891.44"/><line class="cls-31" x1="1472.85" y1="893.2" x2="1482.06" y2="909.4"/><line class="cls-31" x1="1537.76" y1="841.12" x2="1528.23" y2="852.42"/><line class="cls-31" x1="1538.76" y1="854.03" x2="1532.69" y2="871.36"/><line class="cls-31" x1="1539.37" y1="876.99" x2="1529.84" y2="888.29"/><line class="cls-31" x1="1541.78" y1="888.49" x2="1535.71" y2="905.81"/><path class="cls-26" d="M1592.93,946.3h-125.77c-6.03,0-10.7,5.28-9.96,11.26l11.73,95.53c.62,5.03,4.89,8.81,9.96,8.81h100.26c4.99,0,9.22-3.67,9.93-8.6l13.78-95.53c.87-6.05-3.82-11.47-9.93-11.47Z"/><path class="cls-2" d="M1516.28,1028.38s13.37,31.49,28.22,0h-28.22Z"/><ellipse class="cls-28" cx="1498.55" cy="1028.19" rx="9.04" ry="5.48"/><ellipse class="cls-11" cx="1507.47" cy="1016.52" rx="8.94" ry="12.32"/><ellipse class="cls-1" cx="1507.28" cy="1012.42" rx="4.41" ry="6.72"/><ellipse class="cls-28" cx="1563.1" cy="1028.5" rx="5.48" ry="9.04" transform="translate(435.27 2521.51) rotate(-86.28)"/><ellipse class="cls-11" cx="1551.59" cy="1016.42" rx="8.94" ry="12.32"/><ellipse class="cls-1" cx="1551.4" cy="1012.31" rx="4.41" ry="6.72"/><path class="cls-22" d="M415.77,917.68l22.56-1.76c6.05,0,11.6-3.57,14.32-9.25,6.99-14.55,13.59-58.67,2.22-65.26-11.81-6.83-9.67,29.42-10.11,39.48-.17,3.96-2.31,16.38-4.97,19.18-1.68,1.76-41.93,5.97-43.57-15.84"/><path class="cls-22" d="M369.81,874.99l-28.45-1.9c-7.63,0-14.62-3.85-18.06-9.97-8.81-15.68-17.13-63.23-2.8-70.32,14.88-7.36,12.19,31.7,12.74,42.55.22,4.26,2.91,17.65,6.27,20.67,2.11,1.9,52.85,6.44,54.93-17.07"/><path class="cls-22" d="M360,951.04s-3.04-79.73,0-150.04c1.96-45.35,60.5-43.42,60.5,1.98v148.07"/><path class="cls-30" d="M370.91,949.42c6.49-47.7,2.54-96.11-.55-144.15-.31-4.88-.62-9.82.18-14.65,1.34-8.15,5.92-15.73,12.52-20.71-.88,21.64,3.05,41.52,2.18,63.16-.66,16.39-1.32,32.89.98,49.13.69,4.88,1.65,9.74,1.73,14.66.08,4.94-.72,9.84-1.53,14.71-2.18,13.25-4.38,26.56-8.54,39.33"/><path class="cls-30" d="M408.62,949.41c-7.24-47.7-2.83-96.11.61-144.15.35-4.88.69-9.82-.2-14.65-1.5-8.15-6.61-15.73-13.97-20.71.98,21.64-3.4,41.52-2.43,63.16.74,16.39,1.47,32.89-1.1,49.13-.77,4.88-1.84,9.74-1.93,14.66-.09,4.94.81,9.84,1.7,14.71,2.44,13.25,4.89,26.56,9.52,39.33"/><path class="cls-37" d="M452.38,949.99h-125.77c-6.03,0-10.7,5.28-9.96,11.26l11.73,95.53c.62,5.03,4.89,8.81,9.96,8.81h100.26c4.99,0,9.22-3.67,9.93-8.6l13.78-95.53c.87-6.05-3.82-11.47-9.93-11.47Z"/><path class="cls-46" d="M373.75,1030.27s13.37,31.49,28.22,0h-28.22Z"/><ellipse class="cls-12" cx="357.44" cy="1029.45" rx="9.04" ry="5.48"/><ellipse class="cls-11" cx="366.35" cy="1017.78" rx="8.94" ry="12.32"/><ellipse class="cls-1" cx="366.16" cy="1013.68" rx="4.41" ry="6.72"/><ellipse class="cls-12" cx="421.99" cy="1029.76" rx="5.48" ry="9.04" transform="translate(-633 1383.98) rotate(-86.28)"/><ellipse class="cls-11" cx="410.47" cy="1017.67" rx="8.94" ry="12.32"/><ellipse class="cls-1" cx="410.28" cy="1013.57" rx="4.41" ry="6.72"/><line class="cls-42" x1="222.64" y1="952.46" x2="220.39" y2="867.95"/><ellipse class="cls-42" cx="220.18" cy="865.84" rx="13.03" ry="17.96"/><line class="cls-42" x1="220.18" y1="847.88" x2="220.18" y2="883.8"/><line class="cls-42" x1="209.54" y1="970.7" x2="187.9" y2="888.98"/><ellipse class="cls-42" cx="187.21" cy="886.97" rx="13.03" ry="17.96" transform="translate(-199.13 66.9) rotate(-13.31)"/><line class="cls-42" x1="183.07" y1="869.5" x2="191.34" y2="904.45"/><line class="cls-42" x1="237.18" y1="970.84" x2="255.26" y2="888.25"/><ellipse class="cls-42" cx="255.56" cy="886.15" rx="17.96" ry="13.03" transform="translate(-666.02 921.7) rotate(-76.12)"/><line class="cls-42" x1="259.87" y1="868.72" x2="251.25" y2="903.59"/><line class="cls-42" x1="216.53" y1="989.68" x2="165.58" y2="922.22"/><ellipse class="cls-42" cx="164.18" cy="920.62" rx="13.03" ry="17.96" transform="translate(-504.48 266.87) rotate(-35.53)"/><line class="cls-42" x1="153.75" y1="906.01" x2="174.62" y2="935.23"/><line class="cls-42" x1="226.91" y1="985.47" x2="281.11" y2="920.58"/><ellipse class="cls-42" cx="282.35" cy="918.86" rx="17.96" ry="13.03" transform="translate(-593.63 523.01) rotate(-48.6)"/><line class="cls-42" x1="294.22" y1="905.39" x2="270.47" y2="932.33"/><path class="cls-3" d="M287.84,947.84h-125.77c-6.03,0-10.7,5.28-9.96,11.26l11.73,95.53c.62,5.03,4.89,8.81,9.96,8.81h100.26c4.99,0,9.22-3.67,9.93-8.6l13.78-95.53c.87-6.05-3.82-11.47-9.93-11.47Z"/><path class="cls-10" d="M209.22,1028.12s13.37,31.49,28.22,0h-28.22Z"/><ellipse class="cls-38" cx="192.9" cy="1027.3" rx="9.04" ry="5.48"/><ellipse class="cls-11" cx="201.82" cy="1015.63" rx="8.94" ry="12.32"/><ellipse class="cls-1" cx="201.62" cy="1011.53" rx="4.41" ry="6.72"/><ellipse class="cls-38" cx="257.45" cy="1027.61" rx="5.48" ry="9.04" transform="translate(-784.7 1217.78) rotate(-86.28)"/><ellipse class="cls-11" cx="245.94" cy="1015.52" rx="8.94" ry="12.32"/><ellipse class="cls-1" cx="245.74" cy="1011.42" rx="4.41" ry="6.72"/><line class="cls-42" x1="1696.37" y1="953.14" x2="1694.12" y2="792.57"/><ellipse class="cls-42" cx="1676.05" cy="819.01" rx="18.5" ry="8.28"/><ellipse class="cls-42" cx="1714.99" cy="819.01" rx="18.5" ry="8.28"/><ellipse class="cls-42" cx="1675.07" cy="847.24" rx="18.5" ry="8.28"/><ellipse class="cls-42" cx="1714.02" cy="847.24" rx="18.5" ry="8.28"/><ellipse class="cls-42" cx="1675.07" cy="875.48" rx="18.5" ry="8.28"/><ellipse class="cls-42" cx="1714.02" cy="875.48" rx="18.5" ry="8.28"/><ellipse class="cls-42" cx="1676.05" cy="903.72" rx="18.5" ry="8.28"/><ellipse class="cls-42" cx="1714.99" cy="903.72" rx="18.5" ry="8.28"/><ellipse class="cls-42" cx="1677.02" cy="931.95" rx="18.5" ry="8.28"/><ellipse class="cls-42" cx="1715.97" cy="931.95" rx="18.5" ry="8.28"/><path class="cls-5" d="M1761.17,950.16h-125.77c-6.03,0-10.7,5.28-9.96,11.26l11.73,95.53c.62,5.03,4.89,8.81,9.96,8.81h100.26c4.99,0,9.22-3.67,9.93-8.6l13.78-95.53c.87-6.05-3.82-11.47-9.93-11.47Z"/><path class="cls-25" d="M1682.55,1030.44s13.37,31.49,28.22,0h-28.22Z"/><ellipse class="cls-40" cx="1666.23" cy="1029.61" rx="9.04" ry="5.48"/><ellipse class="cls-11" cx="1675.14" cy="1017.95" rx="8.94" ry="12.32"/><ellipse class="cls-1" cx="1674.95" cy="1013.84" rx="4.41" ry="6.72"/><ellipse class="cls-40" cx="1730.78" cy="1029.92" rx="5.48" ry="9.04" transform="translate(590.64 2690.17) rotate(-86.28)"/><ellipse class="cls-11" cx="1719.26" cy="1017.84" rx="8.94" ry="12.32"/><ellipse class="cls-1" cx="1719.07" cy="1013.74" rx="4.41" ry="6.72"/></g><circle class="cls-8" cx="1630.24" cy="100.23" r="59"/><path class="cls-17" d="M1638.24,65.47c.02-.87-1.15-1.33-1.86-.73l-29.93,25.09h-16.61c-.61,0-1.1.44-1.1.98v17.78c0,.54.49.98,1.1.98h15.51l29.44,26.37c.69.61,1.86.19,1.88-.67l1.56-69.8Z"/><path class="cls-41" d="M1646.84,114.78c.86-1.06,9.99-15.23.6-29.41"/><path class="cls-41" d="M1655.37,120.64c1.17-1.44,13.59-20.71.81-40"/><path class="cls-41" d="M1664.8,125.64c1.46-1.79,16.87-25.71,1.01-49.64"/></g><g id="forside"><g id="ondt_hjørne"><g class="cls-53"><image class="cls-52" width="1220" height="789" transform="translate(1043 -743)" xlink:href="spil-1.png"/></g></g></g></g></svg>