<?xml version="1.0" encoding="UTF-8"?><svg id="start" xmlns="http://www.w3.org/2000/svg" width="320" height="170" viewBox="0 0 320 170"><defs><style>.cls-1{fill:#0b4987;stroke-width:2px;}.cls-1,.cls-2{stroke:#159eff;stroke-miterlimit:10;}.cls-2{fill:#73ccff;stroke-width:3px;}</style></defs><rect class="cls-1" x="7.5" y="5.5" width="305" height="159.47" rx="44.75" ry="44.75"/><path class="cls-2" d="M48.3,108.18c3.69,2.5,9.09,4.57,14.77,4.57,8.43,0,13.35-4.89,13.35-11.96,0-6.55-3.41-10.29-12.03-13.93-10.42-4.05-16.86-9.98-16.86-19.86,0-10.92,8.24-19.03,20.65-19.03,6.54,0,11.27,1.66,14.11,3.43l-2.27,7.38c-2.08-1.25-6.35-3.33-12.12-3.33-8.71,0-12.03,5.72-12.03,10.5,0,6.55,3.88,9.77,12.69,13.52,10.8,4.57,16.29,10.29,16.29,20.59,0,10.81-7.29,20.17-22.35,20.17-6.16,0-12.88-1.98-16.29-4.47l2.08-7.59Z"/><path class="cls-2" d="M108.25,56.81h-19.42v-7.69h47.26v7.69h-19.51v62.38h-8.33v-62.38Z"/><path class="cls-2" d="M146.42,97.15l-6.63,22.04h-8.52l21.69-70.08h9.94l21.78,70.08h-8.81l-6.82-22.04h-22.64ZM167.35,90.08l-6.25-20.17c-1.42-4.58-2.37-8.73-3.32-12.79h-.19c-.95,4.16-1.99,8.42-3.22,12.69l-6.25,20.27h19.23Z"/><path class="cls-2" d="M194.06,50.06c4.17-.94,10.13-1.46,15.82-1.46,8.81,0,14.49,1.77,18.47,5.72,3.22,3.12,5.02,7.9,5.02,13.31,0,9.25-5.3,15.39-12.03,17.88v.31c4.92,1.87,7.86,6.86,9.38,14.14,2.08,9.77,3.6,16.53,4.92,19.23h-8.52c-1.04-1.98-2.46-8.01-4.26-16.74-1.89-9.67-5.3-13.31-12.79-13.62h-7.77v30.36h-8.24V50.06ZM202.3,81.97h8.43c8.81,0,14.4-5.3,14.4-13.31,0-9.05-5.97-13-14.68-13.1-3.98,0-6.82.42-8.15.83v25.58Z"/><path class="cls-2" d="M257.99,56.81h-19.42v-7.69h47.26v7.69h-19.51v62.38h-8.33v-62.38Z"/></svg>