<?xml version="1.0" encoding="UTF-8"?><svg id="succes" xmlns="http://www.w3.org/2000/svg" width="1920" height="1080" viewBox="0 0 1920 1080"><defs><style>.cls-1,.cls-2,.cls-3,.cls-4,.cls-5,.cls-6,.cls-7,.cls-8,.cls-9,.cls-10,.cls-11,.cls-12,.cls-13,.cls-14,.cls-15,.cls-16,.cls-17,.cls-18,.cls-19,.cls-20,.cls-21,.cls-22,.cls-23,.cls-24,.cls-25,.cls-26,.cls-27,.cls-28,.cls-29,.cls-30,.cls-31{stroke-miterlimit:10;}.cls-1,.cls-3,.cls-8,.cls-9,.cls-14,.cls-17,.cls-30,.cls-31{fill:#fff;}.cls-1,.cls-10{stroke:#000;}.cls-2{fill:#a6e4ff;stroke:#73ccff;}.cls-3,.cls-4,.cls-6,.cls-8,.cls-9,.cls-12,.cls-14,.cls-15,.cls-17,.cls-18,.cls-21,.cls-22,.cls-24,.cls-30,.cls-31{stroke-width:3px;}.cls-3,.cls-18,.cls-20{stroke:#ffdc00;}.cls-4{fill:#efc5ca;}.cls-4,.cls-9,.cls-25{stroke:#ce91b3;}.cls-5,.cls-7,.cls-11,.cls-13,.cls-16,.cls-19,.cls-20,.cls-23,.cls-25,.cls-26,.cls-27,.cls-29{stroke-width:4px;}.cls-5,.cls-7,.cls-11,.cls-13,.cls-16,.cls-19,.cls-20,.cls-25,.cls-27,.cls-29{stroke-linecap:round;}.cls-5,.cls-26{fill:#73ccff;}.cls-5,.cls-26,.cls-29,.cls-31{stroke:#29abe2;}.cls-6{fill:#a67c52;}.cls-6,.cls-17,.cls-27{stroke:#8c6239;}.cls-7{fill:#0077d4;}.cls-7,.cls-14,.cls-19{stroke:#0077d4;}.cls-32{stroke-width:0px;}.cls-32,.cls-16{fill:#1b1464;}.cls-8,.cls-13,.cls-16,.cls-23{stroke:#1b1464;}.cls-10{fill:#000;}.cls-11{fill:#998675;}.cls-11,.cls-24,.cls-30{stroke:#998675;}.cls-12{fill:#39b54a;}.cls-12,.cls-22{stroke:#009245;}.cls-13,.cls-23{fill:#0071bc;}.cls-15,.cls-21,.cls-28{stroke:#006837;}.cls-15,.cls-28{fill:#009245;}.cls-18,.cls-22{fill:#feffbf;}.cls-19{fill:#159eff;}.cls-20{fill:#ffdc00;}.cls-21{fill:none;}.cls-24{fill:#c7b299;}.cls-25{fill:#ce91b3;}.cls-27{fill:#8c6239;}.cls-28{stroke-width:5px;}.cls-29{fill:#29abe2;}</style></defs><g id="baggrund-2"><rect class="cls-2" x=".5" width="1920" height="1080"/></g><g id="elementer"><path class="cls-12" d="M1438.94,704.57c-21.27-3.28-55.92,106.85-77.41,245.98-.36,2.32-.71,4.64-1.06,6.95,25.63,3.81,51.2,8,76.72,13.52.45-2.85.91-5.7,1.35-8.58,21.49-139.14,21.66-254.59.4-257.88Z"/><path class="cls-12" d="M1374.58,571.54c-31.05-4.8-81.66,156.02-113.04,359.19-.52,3.39-1.04,6.77-1.54,10.14,37.42,5.56,74.77,11.68,112.03,19.75.66-4.16,1.32-8.33,1.97-12.52,31.37-203.17,31.63-371.76.58-376.56Z"/><line class="cls-22" x1="1331.58" y1="604.09" x2="1346.07" y2="625.32"/><line class="cls-22" x1="1343.19" y1="584.43" x2="1358.76" y2="602.62"/><line class="cls-22" x1="1321" y1="624.51" x2="1332.38" y2="654.44"/><line class="cls-22" x1="1376.43" y1="559.57" x2="1372.46" y2="585.3"/><line class="cls-22" x1="1399.19" y1="590.65" x2="1380.2" y2="605.93"/><line class="cls-22" x1="1404.19" y1="614.64" x2="1385.04" y2="631.33"/><line class="cls-22" x1="1395.66" y1="730.67" x2="1386.92" y2="754.43"/><line class="cls-22" x1="1463.26" y1="733.44" x2="1444.31" y2="746.63"/><line class="cls-22" x1="1405.27" y1="634.81" x2="1390.41" y2="662.65"/><line class="cls-22" x1="1441.46" y1="688.21" x2="1438.18" y2="709.45"/><line class="cls-22" x1="1423.1" y1="701.52" x2="1425.39" y2="726.37"/><line class="cls-22" x1="1408.46" y1="724.98" x2="1424.08" y2="743.51"/><line class="cls-22" x1="1312.24" y1="666.41" x2="1326.73" y2="687.63"/><line class="cls-22" x1="1301.66" y1="686.82" x2="1313.04" y2="716.75"/><line class="cls-22" x1="1293.85" y1="728.15" x2="1308.33" y2="749.37"/><line class="cls-22" x1="1283.26" y1="748.56" x2="1294.65" y2="778.49"/><line class="cls-22" x1="1407.18" y1="677.13" x2="1388.03" y2="693.82"/><line class="cls-22" x1="1405.5" y1="699.32" x2="1390.64" y2="727.16"/><line class="cls-22" x1="1400.5" y1="738.47" x2="1381.35" y2="755.17"/><line class="cls-22" x1="1401.58" y1="758.64" x2="1386.72" y2="786.48"/><path class="cls-18" d="M1473.31,870.28l-213.65-32.99c-10.24-1.58-19.56,6.16-19.88,16.52l-5.13,165.36c-.27,8.71,6,16.26,14.61,17.59l170.31,26.3c8.48,1.31,16.63-3.81,19.13-12.01l48.47-158.67c3.07-10.05-3.48-20.49-13.87-22.09Z"/><path class="cls-3" d="M1321.57,989.6s14.45,57,47.94,7.4l-47.94-7.4Z"/><ellipse class="cls-20" cx="1291.51" cy="984.62" rx="9.42" ry="15.54" transform="translate(121.32 2110.73) rotate(-81.22)"/><ellipse class="cls-10" cx="1309.71" cy="967.14" rx="21.18" ry="15.36" transform="translate(154.02 2113.91) rotate(-81.22)"/><ellipse class="cls-1" cx="1310.46" cy="960.12" rx="11.55" ry="7.58" transform="translate(161.59 2108.7) rotate(-81.22)"/><ellipse class="cls-20" cx="1401.08" cy="1002.08" rx="9.42" ry="15.54" transform="translate(119.47 2153.02) rotate(-77.5)"/><ellipse class="cls-10" cx="1384.69" cy="978.53" rx="21.18" ry="15.36" transform="translate(206.3 2197.67) rotate(-81.22)"/><ellipse class="cls-1" cx="1385.44" cy="971.51" rx="11.55" ry="7.58" transform="translate(213.88 2192.45) rotate(-81.22)"/><path class="cls-15" d="M1767.15,813.63l37.79,9.23c9.89,3.25,20.85.39,28.35-7.42,19.22-20.02,53.66-88.53,38.62-105.38-15.61-17.49-31.56,42.86-37.68,59.06-2.41,6.37-12.55,25.51-18.41,28.66-3.68,1.98-71.67-12.73-62.67-49.23"/><path class="cls-15" d="M1714.99,719.26l-45.44-18.35c-12.46-4.09-21.81-14.12-24.14-25.96-5.98-30.34,5.93-112.44,33.14-116.34s2.9,58.31-2,76.32c-1.93,7.08-4.72,30.38-.84,37.12,2.43,4.23,82.86,38.86,98.86,1.58"/><path class="cls-15" d="M1658.19,838.21s37.8-131.83,80.48-245.04c27.52-73,122.1-38.47,97.75,35.68l-79.4,241.81"/><path class="cls-21" d="M1676.88,841.4c36.18-74.42,55.69-155.6,76.4-235.71,2.11-8.14,4.26-16.37,8.15-23.83,6.57-12.6,18.11-22.51,31.56-27.1-13.03,34.87-17.28,69.45-30.32,104.32-9.87,26.41-19.79,53-24.74,80.76-1.49,8.33-2.53,16.79-5.04,24.87-2.52,8.1-6.46,15.68-10.38,23.2-10.67,20.47-21.4,41.03-35.03,59.66"/><path class="cls-21" d="M1738.46,861.6c13.75-81.78,46.91-158.48,78.31-235.09,3.19-7.79,6.39-15.67,7.53-24.03,1.93-14.12-2.36-29.23-11.72-41.31-10.01,35.86-27.83,65.99-37.84,101.85-7.58,27.16-15.23,54.5-28.14,79.64-3.87,7.55-8.23,14.91-11.02,22.91-2.79,8.01-3.95,16.5-5.1,24.93-3.13,22.95-6.26,46-5.54,69.35"/><path class="cls-24" d="M1809.61,886.02l-205.39-67.44c-9.85-3.23-20.3,2.88-22.31,13.05l-32.07,162.3c-1.69,8.55,3.26,17.02,11.54,19.74l163.73,53.76c8.15,2.68,17.03-1.04,20.84-8.72l73.73-148.63c4.67-9.41-.09-20.78-10.07-24.06Z"/><path class="cls-30" d="M1638.16,974.97s4.95,58.59,46.09,15.13l-46.09-15.13Z"/><ellipse class="cls-11" cx="1611.95" cy="964.87" rx="9.42" ry="15.54" transform="translate(192.35 2195.35) rotate(-71.82)"/><ellipse class="cls-10" cx="1632.76" cy="950.6" rx="21.18" ry="15.36" transform="translate(220.22 2205.31) rotate(-71.82)"/><ellipse class="cls-1" cx="1634.65" cy="943.79" rx="11.55" ry="7.58" transform="translate(227.99 2202.41) rotate(-71.82)"/><ellipse class="cls-11" cx="1717.2" cy="999.99" rx="9.42" ry="15.54" transform="translate(148.84 2220.24) rotate(-68.1)"/><ellipse class="cls-10" cx="1704.88" cy="974.09" rx="21.18" ry="15.36" transform="translate(247.52 2289.98) rotate(-71.82)"/><ellipse class="cls-1" cx="1706.76" cy="967.28" rx="11.55" ry="7.58" transform="translate(255.29 2287.08) rotate(-71.82)"/><line class="cls-28" x1="157.6" y1="796.16" x2="117.39" y2="536.19"/><ellipse class="cls-28" cx="94.09" cy="583.19" rx="30.31" ry="13.56" transform="translate(-80.14 18.74) rotate(-7.99)"/><ellipse class="cls-28" cx="157.27" cy="574.32" rx="30.31" ry="13.56" transform="translate(-78.3 27.43) rotate(-7.99)"/><ellipse class="cls-28" cx="98.94" cy="629.22" rx="30.31" ry="13.56" transform="translate(-86.49 19.86) rotate(-7.99)"/><ellipse class="cls-28" cx="162.12" cy="620.35" rx="30.31" ry="13.56" transform="translate(-84.65 28.55) rotate(-7.99)"/><ellipse class="cls-28" cx="105.37" cy="675.03" rx="30.31" ry="13.56" transform="translate(-92.8 21.2) rotate(-7.99)"/><ellipse class="cls-28" cx="168.55" cy="666.16" rx="30.31" ry="13.56" transform="translate(-90.95 29.89) rotate(-7.99)"/><ellipse class="cls-28" cx="113.37" cy="720.61" rx="30.31" ry="13.56" transform="translate(-99.06 22.75) rotate(-7.99)"/><ellipse class="cls-28" cx="176.56" cy="711.74" rx="30.31" ry="13.56" transform="translate(-97.21 31.45) rotate(-7.99)"/><ellipse class="cls-28" cx="121.38" cy="766.2" rx="30.31" ry="13.56" transform="translate(-105.31 24.31) rotate(-7.99)"/><ellipse class="cls-28" cx="184.56" cy="757.33" rx="30.31" ry="13.56" transform="translate(-103.47 33) rotate(-7.99)"/><path class="cls-6" d="M262.04,776.57l-204.02,28.63c-9.78,1.37-16.15,11-13.6,20.54l40.78,152.31c2.15,8.02,9.94,13.19,18.17,12.03l162.64-22.83c8.1-1.14,14.13-8.05,14.16-16.22l.6-158.11c.04-10.02-8.81-17.74-18.73-16.35Z"/><path class="cls-17" d="M152.77,924.71s28.86,48.04,45.78-6.43l-45.78,6.43Z"/><ellipse class="cls-27" cx="126.11" cy="927.08" rx="14.81" ry="8.98" transform="translate(-127.63 26.53) rotate(-7.99)"/><ellipse class="cls-10" cx="137.92" cy="906.14" rx="14.64" ry="20.18" transform="translate(-124.6 27.96) rotate(-7.99)"/><ellipse class="cls-1" cx="136.67" cy="899.52" rx="7.22" ry="11.01" transform="translate(-123.7 27.73) rotate(-7.99)"/><ellipse class="cls-27" cx="230.9" cy="912.89" rx="14.81" ry="8.98" transform="translate(-67.27 19.71) rotate(-4.27)"/><ellipse class="cls-10" cx="209.47" cy="895.91" rx="14.64" ry="20.18" transform="translate(-122.49 37.81) rotate(-7.99)"/><ellipse class="cls-1" cx="208.22" cy="889.3" rx="7.22" ry="11.01" transform="translate(-121.58 37.57) rotate(-7.99)"/><line class="cls-28" x1="454.56" y1="852.47" x2="407.61" y2="722.19"/><ellipse class="cls-28" cx="406.19" cy="719.01" rx="21.34" ry="29.42" transform="translate(-205.14 163.82) rotate(-18.29)"/><line class="cls-28" x1="396.96" y1="691.08" x2="415.43" y2="746.94"/><line class="cls-28" x1="443.57" y1="887.58" x2="367.89" y2="771.6"/><ellipse class="cls-28" cx="365.78" cy="768.83" rx="21.34" ry="29.42" transform="translate(-348.61 305.65) rotate(-31.6)"/><line class="cls-28" x1="350.37" y1="743.78" x2="381.2" y2="793.89"/><line class="cls-28" x1="486.62" y1="873.58" x2="472.29" y2="735.84"/><ellipse class="cls-28" cx="471.68" cy="732.41" rx="21.34" ry="29.42" transform="translate(-54.97 38.47) rotate(-4.41)"/><line class="cls-28" x1="469.41" y1="703.08" x2="473.94" y2="761.74"/><line class="cls-28" x1="464.2" y1="913.5" x2="350.27" y2="834.77"/><ellipse class="cls-28" cx="347.27" cy="833.01" rx="21.34" ry="29.42" transform="translate(-530.13 621.66) rotate(-53.83)"/><line class="cls-28" x1="323.53" y1="815.64" x2="371.02" y2="850.37"/><line class="cls-28" x1="478.18" y1="901.61" x2="529.12" y2="772.84"/><ellipse class="cls-28" cx="530.16" cy="769.52" rx="29.42" ry="21.34" transform="translate(-385.69 955.14) rotate(-66.89)"/><line class="cls-28" x1="541.7" y1="742.46" x2="518.61" y2="796.57"/><path class="cls-4" d="M553.6,811.76l-195.61,64.66c-9.38,3.1-13.93,13.71-9.71,22.64l67.36,142.56c3.55,7.51,12.14,11.19,20.03,8.59l155.94-51.55c7.76-2.57,12.46-10.44,11.03-18.49l-27.69-155.67c-1.75-9.86-11.84-15.88-21.35-12.73Z"/><path class="cls-9" d="M472.59,977.06s36.98,42.1,43.9-14.51l-43.9,14.51Z"/><ellipse class="cls-25" cx="446.79" cy="984.16" rx="14.81" ry="8.98" transform="translate(-286.31 189.96) rotate(-18.29)"/><ellipse class="cls-10" cx="454.66" cy="961.44" rx="14.64" ry="20.18" transform="translate(-278.78 191.28) rotate(-18.29)"/><ellipse class="cls-1" cx="452.24" cy="955.15" rx="7.22" ry="11.01" transform="translate(-276.93 190.2) rotate(-18.29)"/><ellipse class="cls-25" cx="547.35" cy="951.46" rx="14.81" ry="8.98" transform="translate(-221.73 168.27) rotate(-14.57)"/><ellipse class="cls-10" cx="523.23" cy="938.59" rx="14.64" ry="20.18" transform="translate(-268.14 211.64) rotate(-18.29)"/><ellipse class="cls-1" cx="520.81" cy="932.3" rx="7.22" ry="11.01" transform="translate(-266.29 210.57) rotate(-18.29)"/><g id="_åben_mund"><path class="cls-13" d="M1437.73,218.38c21.43,53.3-12.34,73.61-27.92,73.61s-44.28-22-28.48-73.61c0,0,14.66-48.22,21-66.56.57-1.65,3.01-11.27,3.82-11.27.32,0-.31.06,0,0,.84-.17,11.72,30.18,12.41,31.87,7.33,18.05,4.94,10.56,19.18,45.97Z"/><ellipse class="cls-16" cx="1393.74" cy="264.42" rx="5.58" ry="3.38"/><ellipse class="cls-10" cx="1397.29" cy="258.16" rx="4.59" ry="6.26"/><ellipse class="cls-1" cx="1397.19" cy="256.08" rx="2.26" ry="3.41"/><ellipse class="cls-16" cx="1430.61" cy="264.76" rx="5.58" ry="3.38"/><ellipse class="cls-10" cx="1426.08" cy="258.08" rx="4.6" ry="6.34"/><ellipse class="cls-1" cx="1425.98" cy="255.96" rx="2.27" ry="3.46"/><path class="cls-8" d="M1403.54,264.79s8.24,19.41,17.4,0h-17.4Z"/></g><g id="lukket_mund"><path class="cls-13" d="M423.52,572.1c21.43,53.3-12.34,73.61-27.92,73.61s-44.28-22-28.48-73.61c0,0,14.66-48.22,21-66.56.57-1.65,3.01-11.27,3.82-11.27.32,0-.31.06,0,0,.84-.17,11.72,30.18,12.41,31.87,7.33,18.05,4.94,10.56,19.18,45.97Z"/><ellipse class="cls-16" cx="379.53" cy="618.14" rx="5.58" ry="3.38"/><ellipse class="cls-10" cx="383.08" cy="611.89" rx="4.59" ry="6.26"/><ellipse class="cls-1" cx="382.99" cy="609.8" rx="2.26" ry="3.41"/><ellipse class="cls-16" cx="416.4" cy="618.48" rx="5.58" ry="3.38"/><ellipse class="cls-10" cx="411.87" cy="611.8" rx="4.6" ry="6.34"/><ellipse class="cls-1" cx="411.77" cy="609.69" rx="2.27" ry="3.46"/><path class="cls-23" d="M404.61,618.03s-6.59,10.65-13.04,0"/></g><g id="_åben_mund-2"><path class="cls-19" d="M155.06,107.42c21.43,53.3-12.34,73.61-27.92,73.61s-44.28-22-28.48-73.61c0,0,14.66-48.22,21-66.56.57-1.65,3.01-11.27,3.82-11.27.32,0-.31.06,0,0,.84-.17,11.72,30.18,12.41,31.87,7.33,18.05,4.94,10.56,19.18,45.97Z"/><ellipse class="cls-7" cx="111.07" cy="153.46" rx="5.58" ry="3.38"/><ellipse class="cls-10" cx="114.62" cy="147.2" rx="4.59" ry="6.26"/><ellipse class="cls-1" cx="114.52" cy="145.12" rx="2.26" ry="3.41"/><ellipse class="cls-7" cx="147.94" cy="153.8" rx="5.58" ry="3.38"/><ellipse class="cls-10" cx="143.41" cy="147.12" rx="4.6" ry="6.34"/><ellipse class="cls-1" cx="143.31" cy="145" rx="2.27" ry="3.46"/><path class="cls-14" d="M120.45,152.57s8.24,19.41,17.4,0h-17.4Z"/></g><g id="lukket_mund-2"><path class="cls-5" d="M1878.11,363.5c21.43,53.3-12.34,73.61-27.92,73.61s-44.28-22-28.48-73.61c0,0,14.66-48.22,21-66.56.57-1.65,3.01-11.27,3.82-11.27.32,0-.31.06,0,0,.84-.17,11.72,30.18,12.41,31.87,7.33,18.05,4.94,10.56,19.18,45.97Z"/><ellipse class="cls-29" cx="1834.12" cy="409.54" rx="5.58" ry="3.38"/><ellipse class="cls-10" cx="1837.67" cy="403.28" rx="4.59" ry="6.26"/><ellipse class="cls-1" cx="1837.57" cy="401.19" rx="2.26" ry="3.41"/><ellipse class="cls-29" cx="1870.99" cy="409.88" rx="5.58" ry="3.38"/><ellipse class="cls-10" cx="1866.46" cy="403.2" rx="4.6" ry="6.34"/><ellipse class="cls-1" cx="1866.36" cy="401.08" rx="2.27" ry="3.46"/><path class="cls-26" d="M1858.42,409.18s-6.59,10.65-13.04,0"/></g><g id="_åben_mund-3"><path class="cls-5" d="M663.57,201.48c21.43,53.3-12.34,73.61-27.92,73.61s-44.28-22-28.48-73.61c0,0,14.66-48.22,21-66.56.57-1.65,3.01-11.27,3.82-11.27.32,0-.31.06,0,0,.84-.17,11.72,30.18,12.41,31.87,7.33,18.05,4.94,10.56,19.18,45.97Z"/><path class="cls-31" d="M629.23,247.69s8.24,19.41,17.4,0h-17.4Z"/><ellipse class="cls-29" cx="619.59" cy="247.52" rx="5.58" ry="3.38"/><ellipse class="cls-10" cx="623.14" cy="241.26" rx="4.59" ry="6.26"/><ellipse class="cls-1" cx="623.04" cy="239.17" rx="2.26" ry="3.41"/><ellipse class="cls-29" cx="656.46" cy="247.86" rx="5.58" ry="3.38"/><ellipse class="cls-10" cx="651.92" cy="241.18" rx="4.6" ry="6.34"/><ellipse class="cls-1" cx="651.82" cy="239.06" rx="2.27" ry="3.46"/></g><path class="cls-32" d="M413.95,464.17c0,8.66-2.23,16.44-6.69,23.34-4.46,6.9-10.99,12.3-19.58,16.21s-18.78,5.86-30.57,5.86c-14.13,0-25.78-2.67-34.96-8.01-6.51-3.84-11.8-8.97-15.87-15.38-4.07-6.41-6.1-12.65-6.1-18.7,0-3.52,1.22-6.53,3.66-9.03,2.44-2.51,5.55-3.76,9.33-3.76,3.06,0,5.65.98,7.76,2.93,2.11,1.95,3.92,4.85,5.42,8.69,1.82,4.56,3.79,8.37,5.91,11.43,2.11,3.06,5.09,5.58,8.94,7.57,3.84,1.99,8.89,2.98,15.14,2.98,8.59,0,15.58-2,20.95-6.01s8.06-9,8.06-14.99c0-4.75-1.45-8.61-4.35-11.57-2.9-2.96-6.64-5.22-11.23-6.79s-10.73-3.22-18.41-4.98c-10.29-2.41-18.9-5.22-25.83-8.45s-12.44-7.62-16.5-13.18c-4.07-5.57-6.1-12.48-6.1-20.75s2.15-14.88,6.45-21c4.3-6.12,10.51-10.82,18.65-14.11,8.14-3.29,17.71-4.93,28.71-4.93,8.79,0,16.39,1.09,22.8,3.27,6.41,2.18,11.73,5.08,15.97,8.69,4.23,3.61,7.32,7.41,9.28,11.38,1.95,3.97,2.93,7.85,2.93,11.62,0,3.45-1.22,6.56-3.66,9.33-2.44,2.77-5.49,4.15-9.13,4.15-3.32,0-5.84-.83-7.57-2.49-1.73-1.66-3.6-4.38-5.62-8.15-2.6-5.4-5.73-9.62-9.38-12.65-3.65-3.03-9.51-4.54-17.58-4.54-7.49,0-13.53,1.64-18.12,4.93-4.59,3.29-6.88,7.24-6.88,11.87,0,2.87.78,5.34,2.34,7.42,1.56,2.08,3.71,3.87,6.45,5.37,2.73,1.5,5.5,2.67,8.3,3.52,2.8.85,7.42,2.08,13.87,3.71,8.07,1.89,15.38,3.97,21.92,6.25,6.54,2.28,12.11,5.05,16.7,8.3,4.59,3.26,8.17,7.37,10.74,12.35,2.57,4.98,3.86,11.08,3.86,18.31Z"/><path class="cls-32" d="M488.75,447.96v-68.85c0-5.86,1.32-10.25,3.96-13.18s6.1-4.39,10.4-4.39,8.06,1.46,10.69,4.39,3.96,7.32,3.96,13.18v70.41c0,8.01.89,14.7,2.69,20.07,1.79,5.37,4.96,9.54,9.52,12.5,4.56,2.96,10.94,4.44,19.14,4.44,11.33,0,19.34-3.01,24.02-9.03,4.69-6.02,7.03-15.15,7.03-27.39v-71c0-5.92,1.3-10.33,3.91-13.23,2.6-2.9,6.09-4.35,10.45-4.35s7.89,1.45,10.6,4.35c2.7,2.9,4.05,7.31,4.05,13.23v68.85c0,11.2-1.09,20.54-3.27,28.03-2.18,7.49-6.3,14.06-12.35,19.73-5.21,4.82-11.26,8.33-18.16,10.55-6.9,2.21-14.98,3.32-24.22,3.32-11,0-20.48-1.19-28.42-3.56-7.94-2.38-14.42-6.05-19.43-11.04-5.01-4.98-8.69-11.36-11.04-19.14-2.34-7.78-3.52-17.07-3.52-27.88Z"/><path class="cls-32" d="M812.48,461.92c0,4.56-1.12,9.49-3.37,14.79-2.25,5.31-5.78,10.51-10.6,15.62-4.82,5.11-10.97,9.26-18.46,12.45-7.49,3.19-16.21,4.79-26.17,4.79-7.55,0-14.42-.72-20.61-2.15-6.19-1.43-11.8-3.66-16.85-6.69-5.05-3.03-9.68-7.01-13.92-11.96-3.78-4.49-7-9.52-9.67-15.09-2.67-5.57-4.67-11.51-6.01-17.82-1.33-6.31-2-13.02-2-20.12,0-11.52,1.68-21.84,5.03-30.96,3.35-9.11,8.15-16.91,14.4-23.39,6.25-6.48,13.57-11.41,21.97-14.79,8.4-3.38,17.35-5.08,26.86-5.08,11.59,0,21.91,2.31,30.96,6.93,9.05,4.62,15.98,10.34,20.8,17.14,4.82,6.8,7.23,13.23,7.23,19.29,0,3.32-1.17,6.25-3.52,8.79s-5.18,3.81-8.5,3.81c-3.71,0-6.49-.88-8.35-2.64s-3.92-4.79-6.2-9.08c-3.78-7.1-8.22-12.4-13.33-15.92-5.11-3.52-11.41-5.27-18.9-5.27-11.91,0-21.4,4.53-28.47,13.57-7.06,9.05-10.6,21.91-10.6,38.57,0,11.13,1.56,20.39,4.69,27.78,3.12,7.39,7.55,12.91,13.28,16.55,5.73,3.65,12.43,5.47,20.12,5.47,8.33,0,15.38-2.07,21.14-6.2,5.76-4.13,10.11-10.21,13.04-18.21,1.24-3.78,2.77-6.85,4.59-9.23,1.82-2.38,4.75-3.56,8.79-3.56,3.45,0,6.41,1.21,8.89,3.61,2.47,2.41,3.71,5.4,3.71,8.98Z"/><path class="cls-32" d="M1010.53,461.92c0,4.56-1.12,9.49-3.37,14.79-2.25,5.31-5.78,10.51-10.6,15.62-4.82,5.11-10.97,9.26-18.46,12.45-7.49,3.19-16.21,4.79-26.17,4.79-7.55,0-14.42-.72-20.61-2.15-6.19-1.43-11.8-3.66-16.85-6.69-5.05-3.03-9.68-7.01-13.92-11.96-3.78-4.49-7-9.52-9.67-15.09-2.67-5.57-4.67-11.51-6.01-17.82-1.33-6.31-2-13.02-2-20.12,0-11.52,1.68-21.84,5.03-30.96,3.35-9.11,8.15-16.91,14.4-23.39,6.25-6.48,13.57-11.41,21.97-14.79,8.4-3.38,17.35-5.08,26.85-5.08,11.59,0,21.91,2.31,30.96,6.93,9.05,4.62,15.98,10.34,20.8,17.14,4.82,6.8,7.23,13.23,7.23,19.29,0,3.32-1.17,6.25-3.52,8.79s-5.18,3.81-8.5,3.81c-3.71,0-6.49-.88-8.35-2.64s-3.92-4.79-6.2-9.08c-3.78-7.1-8.22-12.4-13.33-15.92-5.11-3.52-11.41-5.27-18.9-5.27-11.91,0-21.4,4.53-28.47,13.57-7.06,9.05-10.6,21.91-10.6,38.57,0,11.13,1.56,20.39,4.69,27.78,3.12,7.39,7.55,12.91,13.28,16.55,5.73,3.65,12.43,5.47,20.12,5.47,8.33,0,15.38-2.07,21.14-6.2,5.76-4.13,10.11-10.21,13.04-18.21,1.24-3.78,2.77-6.85,4.59-9.23,1.82-2.38,4.75-3.56,8.79-3.56,3.45,0,6.41,1.21,8.89,3.61,2.47,2.41,3.71,5.4,3.71,8.98Z"/><path class="cls-32" d="M1180.94,386.33h-65.33v35.16h60.16c4.43,0,7.73.99,9.91,2.98,2.18,1.99,3.27,4.61,3.27,7.86s-1.07,5.91-3.22,7.96-5.47,3.08-9.96,3.08h-60.16v40.72h67.58c4.56,0,7.99,1.06,10.3,3.17,2.31,2.12,3.47,4.93,3.47,8.45s-1.16,6.14-3.47,8.25c-2.31,2.12-5.75,3.17-10.3,3.17h-78.81c-6.32,0-10.86-1.4-13.62-4.2-2.77-2.8-4.15-7.32-4.15-13.57v-107.62c0-4.17.62-7.57,1.86-10.21,1.24-2.64,3.17-4.56,5.81-5.76,2.64-1.2,6.01-1.81,10.11-1.81h76.56c4.62,0,8.06,1.03,10.3,3.08s3.37,4.74,3.37,8.06-1.12,6.1-3.37,8.15-5.68,3.08-10.3,3.08Z"/><path class="cls-32" d="M1378.79,464.17c0,8.66-2.23,16.44-6.69,23.34-4.46,6.9-10.99,12.3-19.58,16.21s-18.78,5.86-30.57,5.86c-14.13,0-25.78-2.67-34.96-8.01-6.51-3.84-11.8-8.97-15.87-15.38-4.07-6.41-6.1-12.65-6.1-18.7,0-3.52,1.22-6.53,3.66-9.03,2.44-2.51,5.55-3.76,9.33-3.76,3.06,0,5.65.98,7.76,2.93,2.12,1.95,3.92,4.85,5.42,8.69,1.82,4.56,3.79,8.37,5.91,11.43,2.12,3.06,5.09,5.58,8.94,7.57,3.84,1.99,8.89,2.98,15.14,2.98,8.59,0,15.58-2,20.95-6.01s8.06-9,8.06-14.99c0-4.75-1.45-8.61-4.35-11.57-2.9-2.96-6.64-5.22-11.23-6.79s-10.73-3.22-18.41-4.98c-10.29-2.41-18.9-5.22-25.83-8.45s-12.44-7.62-16.5-13.18c-4.07-5.57-6.1-12.48-6.1-20.75s2.15-14.88,6.45-21c4.3-6.12,10.51-10.82,18.65-14.11,8.14-3.29,17.71-4.93,28.71-4.93,8.79,0,16.39,1.09,22.8,3.27,6.41,2.18,11.73,5.08,15.97,8.69,4.23,3.61,7.32,7.41,9.28,11.38,1.95,3.97,2.93,7.85,2.93,11.62,0,3.45-1.22,6.56-3.66,9.33-2.44,2.77-5.49,4.15-9.13,4.15-3.32,0-5.84-.83-7.57-2.49-1.73-1.66-3.6-4.38-5.62-8.15-2.6-5.4-5.73-9.62-9.38-12.65-3.65-3.03-9.51-4.54-17.58-4.54-7.49,0-13.53,1.64-18.12,4.93-4.59,3.29-6.88,7.24-6.88,11.87,0,2.87.78,5.34,2.34,7.42,1.56,2.08,3.71,3.87,6.45,5.37,2.73,1.5,5.5,2.67,8.3,3.52,2.8.85,7.42,2.08,13.87,3.71,8.07,1.89,15.38,3.97,21.92,6.25,6.54,2.28,12.11,5.05,16.7,8.3,4.59,3.26,8.17,7.37,10.74,12.35,2.57,4.98,3.86,11.08,3.86,18.31Z"/><path class="cls-32" d="M1562.19,464.17c0,8.66-2.23,16.44-6.69,23.34-4.46,6.9-10.99,12.3-19.58,16.21s-18.78,5.86-30.57,5.86c-14.13,0-25.78-2.67-34.96-8.01-6.51-3.84-11.8-8.97-15.87-15.38-4.07-6.41-6.1-12.65-6.1-18.7,0-3.52,1.22-6.53,3.66-9.03,2.44-2.51,5.55-3.76,9.33-3.76,3.06,0,5.65.98,7.76,2.93,2.12,1.95,3.92,4.85,5.42,8.69,1.82,4.56,3.79,8.37,5.91,11.43,2.12,3.06,5.09,5.58,8.94,7.57,3.84,1.99,8.89,2.98,15.14,2.98,8.59,0,15.58-2,20.95-6.01s8.06-9,8.06-14.99c0-4.75-1.45-8.61-4.35-11.57-2.9-2.96-6.64-5.22-11.23-6.79s-10.73-3.22-18.41-4.98c-10.29-2.41-18.9-5.22-25.83-8.45s-12.44-7.62-16.5-13.18c-4.07-5.57-6.1-12.48-6.1-20.75s2.15-14.88,6.45-21c4.3-6.12,10.51-10.82,18.65-14.11,8.14-3.29,17.71-4.93,28.71-4.93,8.79,0,16.39,1.09,22.8,3.27,6.41,2.18,11.73,5.08,15.97,8.69,4.23,3.61,7.32,7.41,9.28,11.38,1.95,3.97,2.93,7.85,2.93,11.62,0,3.45-1.22,6.56-3.66,9.33-2.44,2.77-5.49,4.15-9.13,4.15-3.32,0-5.84-.83-7.57-2.49-1.73-1.66-3.6-4.38-5.62-8.15-2.6-5.4-5.73-9.62-9.38-12.65-3.65-3.03-9.51-4.54-17.58-4.54-7.49,0-13.53,1.64-18.12,4.93-4.59,3.29-6.88,7.24-6.88,11.87,0,2.87.78,5.34,2.34,7.42,1.56,2.08,3.71,3.87,6.45,5.37,2.73,1.5,5.5,2.67,8.3,3.52,2.8.85,7.42,2.08,13.87,3.71,8.07,1.89,15.38,3.97,21.92,6.25,6.54,2.28,12.11,5.05,16.7,8.3,4.59,3.26,8.17,7.37,10.74,12.35,2.57,4.98,3.86,11.08,3.86,18.31Z"/><path class="cls-32" d="M1643.73,445.12l-3.12-46.78c-.59-9.11-.88-15.66-.88-19.63,0-5.4,1.42-9.62,4.25-12.65s6.56-4.54,11.18-4.54c5.6,0,9.34,1.94,11.23,5.81,1.89,3.87,2.83,9.46,2.83,16.75,0,4.3-.23,8.66-.68,13.09l-4.2,48.14c-.46,5.73-1.43,10.12-2.93,13.18-1.5,3.06-3.97,4.59-7.42,4.59s-5.96-1.48-7.32-4.44c-1.37-2.96-2.34-7.47-2.93-13.53ZM1654.57,509.38c-3.97,0-7.44-1.29-10.4-3.86-2.96-2.57-4.44-6.17-4.44-10.79,0-4.04,1.42-7.47,4.25-10.3s6.3-4.25,10.4-4.25,7.6,1.42,10.5,4.25c2.9,2.83,4.35,6.27,4.35,10.3,0,4.56-1.46,8.14-4.39,10.74s-6.35,3.91-10.25,3.91Z"/></g></svg>