<?xml version="1.0" encoding="UTF-8"?><svg id="vandlys" xmlns="http://www.w3.org/2000/svg" width="80" height="160" viewBox="0 0 80 160"><defs><style>.cls-1,.cls-2,.cls-3,.cls-4,.cls-5{stroke-miterlimit:10;}.cls-1,.cls-3{stroke:#000;}.cls-1,.cls-5{fill:#fff;}.cls-2{fill:#73ccff;}.cls-2,.cls-4{stroke-linecap:round;stroke-width:4px;}.cls-2,.cls-4,.cls-5{stroke:#29abe2;}.cls-3{fill:#000;}.cls-4{fill:#29abe2;}.cls-5{stroke-width:3px;}</style></defs><g id="vandlys-2"><path class="cls-2" d="M66.93,81.55c21.43,53.3-12.34,73.61-27.92,73.61S-5.27,133.16,10.53,81.55c0,0,14.66-48.22,21-66.56.57-1.65,3.01-11.27,3.82-11.27.32,0-.31.06,0,0,.84-.17,11.72,30.18,12.41,31.87,7.33,18.05,4.94,10.56,19.18,45.97Z"/><path class="cls-5" d="M32.59,127.76s8.24,19.41,17.4,0h-17.4Z"/><ellipse class="cls-4" cx="22.94" cy="127.59" rx="5.58" ry="3.38"/><ellipse class="cls-3" cx="26.49" cy="121.33" rx="4.59" ry="6.26"/><ellipse class="cls-1" cx="26.39" cy="119.25" rx="2.26" ry="3.41"/><ellipse class="cls-4" cx="59.81" cy="127.93" rx="5.58" ry="3.38"/><ellipse class="cls-3" cx="55.28" cy="121.25" rx="4.6" ry="6.34"/><ellipse class="cls-1" cx="55.18" cy="119.14" rx="2.27" ry="3.46"/></g></svg>