<?xml version="1.0" encoding="UTF-8"?><svg id="vanddark" xmlns="http://www.w3.org/2000/svg" width="80" height="160" viewBox="0 0 80 160"><defs><style>.cls-1{fill:#fff;}.cls-1,.cls-2{stroke:#000;}.cls-1,.cls-2,.cls-3,.cls-4,.cls-5{stroke-miterlimit:10;}.cls-2{fill:#000;}.cls-3,.cls-4{stroke-linecap:round;}.cls-3,.cls-4,.cls-5{stroke:#1b1464;stroke-width:4px;}.cls-3,.cls-5{fill:#0071bc;}.cls-4{fill:#1b1464;}</style></defs><g id="vanddark-2"><path class="cls-3" d="M66.88,82.18c21.43,53.3-12.34,73.61-27.92,73.61S-5.32,133.79,10.47,82.18c0,0,14.66-48.22,21-66.56.57-1.65,3.01-11.27,3.82-11.27.32,0-.31.06,0,0,.84-.17,11.72,30.18,12.41,31.87,7.33,18.05,4.94,10.56,19.18,45.97Z"/><ellipse class="cls-4" cx="22.89" cy="128.22" rx="5.58" ry="3.38"/><ellipse class="cls-2" cx="26.44" cy="121.96" rx="4.59" ry="6.26"/><ellipse class="cls-1" cx="26.34" cy="119.87" rx="2.26" ry="3.41"/><ellipse class="cls-4" cx="59.76" cy="128.56" rx="5.58" ry="3.38"/><ellipse class="cls-2" cx="55.23" cy="121.87" rx="4.6" ry="6.34"/><ellipse class="cls-1" cx="55.13" cy="119.76" rx="2.27" ry="3.46"/><path class="cls-5" d="M47.97,128.1s-6.59,10.65-13.04,0"/></g></svg>