<?xml version="1.0" encoding="UTF-8"?><svg id="vandmid" xmlns="http://www.w3.org/2000/svg" width="80" height="160" viewBox="0 0 80 160"><defs><style>.cls-1,.cls-2,.cls-3,.cls-4,.cls-5{stroke-miterlimit:10;}.cls-1,.cls-3{stroke:#000;}.cls-1,.cls-4{fill:#fff;}.cls-2{fill:#0077d4;}.cls-2,.cls-4,.cls-5{stroke:#0077d4;}.cls-2,.cls-5{stroke-linecap:round;stroke-width:4px;}.cls-3{fill:#000;}.cls-4{stroke-width:3px;}.cls-5{fill:#159eff;}</style></defs><g id="vandmidt"><path class="cls-5" d="M67.41,81.49c21.43,53.3-12.34,73.61-27.92,73.61S-4.78,133.1,11.01,81.49c0,0,14.66-48.22,21-66.56.57-1.65,3.01-11.27,3.82-11.27.32,0-.31.06,0,0,.84-.17,11.72,30.18,12.41,31.87,7.33,18.05,4.94,10.56,19.18,45.97Z"/><ellipse class="cls-2" cx="23.43" cy="127.53" rx="5.58" ry="3.38"/><ellipse class="cls-3" cx="26.98" cy="121.28" rx="4.59" ry="6.26"/><ellipse class="cls-1" cx="26.88" cy="119.19" rx="2.26" ry="3.41"/><ellipse class="cls-2" cx="60.3" cy="127.87" rx="5.58" ry="3.38"/><ellipse class="cls-3" cx="55.76" cy="121.19" rx="4.6" ry="6.34"/><ellipse class="cls-1" cx="55.66" cy="119.08" rx="2.27" ry="3.46"/><path class="cls-4" d="M32.81,126.65s8.24,19.41,17.4,0h-17.4Z"/></g></svg>